<svg width="45" height="37" viewBox="0 0 45 37" fill="none" xmlns="http://www.w3.org/2000/svg">
<path d="M9.77394 25.655C9.65827 25.655 9.5426 25.6416 9.42841 25.6149L7.46797 25.1522C6.93115 25.0262 6.51148 24.6139 6.37653 24.0786C6.2401 23.5462 6.40915 22.9886 6.81845 22.6223L15.2994 14.9734C15.6034 14.6975 16.072 14.7227 16.3463 15.0267C16.6221 15.3307 16.5969 15.7994 16.2929 16.0737L7.81053 23.7257L9.76801 24.1705L24.415 17.2808C24.7827 17.1043 25.2276 17.2645 25.4011 17.6352C25.5761 18.006 25.4174 18.4479 25.0467 18.6214L10.4101 25.5126C10.204 25.6075 9.98897 25.655 9.77394 25.655Z" fill="#AB8A62"/>
<path d="M25.9919 11.8487C25.7813 11.8487 25.5722 11.7597 25.4254 11.5862L17.2811 1.95751L15.2762 1.48446L17.2025 6.44043C17.3494 6.82155 17.1595 7.2516 16.7769 7.39841C16.4003 7.5467 15.9673 7.35689 15.819 6.97281L13.9045 2.00645C13.7102 1.48594 13.8155 0.910559 14.1803 0.498302C14.5377 0.0904946 15.0879 -0.0844919 15.6173 0.0385919L17.6222 0.510166C17.9307 0.584312 18.2109 0.757816 18.4156 0.998052L26.5599 10.6268C26.8253 10.9382 26.7853 11.4068 26.4724 11.6722C26.333 11.7909 26.1625 11.8487 25.9919 11.8487Z" fill="#AB8A62"/>
<path d="M40.2697 22.2931C40.0635 22.2931 39.8574 22.2694 39.6498 22.2204L24.5609 18.6703C24.162 18.5769 23.9144 18.1765 24.0093 17.779C24.1027 17.3816 24.4986 17.134 24.9005 17.2259L39.9894 20.7761C40.5752 20.914 41.0111 20.61 41.2262 20.2793C41.4412 19.9486 41.5391 19.4251 41.1757 18.9491L38.6548 15.6421C37.8792 14.6248 36.7596 13.9412 35.5035 13.7158L8.50516 8.84434C7.26245 8.5522 6.28965 7.6921 5.86404 6.53689L4.68511 3.49538L3.21848 3.14838L3.76124 7.7351C4.08452 10.5156 6.13246 12.8127 8.85661 13.4533L11.9411 14.1785C12.34 14.2719 12.5877 14.6723 12.4928 15.0697C12.3993 15.4671 12.0079 15.7148 11.6015 15.6228L8.51702 14.8977C5.18634 14.1132 2.68166 11.3045 2.2872 7.90712L1.75186 3.31298C1.69699 2.83548 1.87791 2.36094 2.2353 2.04062C2.59565 1.72031 3.09243 1.59871 3.55659 1.704L5.01729 2.04804C5.51259 2.16519 5.90705 2.5122 6.07314 2.97636L7.25059 6.01193C7.50862 6.71188 8.08697 7.22201 8.80619 7.39254L35.766 12.2536C37.3868 12.5458 38.8297 13.4281 39.8322 14.7405L42.3532 18.0474C43.0383 18.9446 43.0828 20.1369 42.4689 21.0845C41.9721 21.8541 41.1491 22.2931 40.2697 22.2931Z" fill="#AB8A62"/>
<path d="M19.0234 13.8211C18.9804 13.8211 18.9374 13.8166 18.8929 13.8092L18.7491 13.7825C18.3472 13.7069 18.0818 13.3198 18.1574 12.918C18.233 12.5146 18.6275 12.2536 19.022 12.3248C19.4238 12.4004 19.7619 12.8008 19.6863 13.2042C19.6196 13.5601 19.363 13.8211 19.0234 13.8211Z" fill="#AB8A62"/>
<path d="M21.8965 14.3475C21.8535 14.3475 21.8105 14.343 21.766 14.3356L21.6221 14.3074C21.2203 14.2318 20.9548 13.8447 21.0304 13.4429C21.1061 13.0395 21.4991 12.7785 21.895 12.8497C22.2969 12.9253 22.635 13.3257 22.5594 13.7291C22.4926 14.0865 22.2346 14.3475 21.8965 14.3475Z" fill="#AB8A62"/>
<path d="M24.7701 14.8723C24.7285 14.8723 24.6855 14.8679 24.6425 14.8605L24.4987 14.8338C24.0968 14.7611 23.8299 14.3741 23.9025 13.9722C23.9767 13.5673 24.3667 13.2974 24.7656 13.376C25.1675 13.4487 25.5071 13.8476 25.4329 14.251C25.3677 14.6098 25.1111 14.8723 24.7701 14.8723Z" fill="#AB8A62"/>
<path d="M27.6451 15.3976C27.6035 15.3976 27.5605 15.3931 27.5175 15.3857L27.3737 15.359C26.9718 15.2863 26.7049 14.8993 26.7775 14.4974C26.8502 14.0926 27.2447 13.8197 27.6406 13.9013C28.0425 13.9739 28.3821 14.3729 28.3079 14.7762C28.2427 15.1351 27.9847 15.3976 27.6451 15.3976Z" fill="#AB8A62"/>
<path d="M30.5181 15.9239C30.4766 15.9239 30.4336 15.9195 30.3906 15.9121L30.2467 15.8854C29.8449 15.8127 29.5779 15.4257 29.6506 15.0238C29.7247 14.6189 30.1148 14.3505 30.5137 14.4276C30.9155 14.5003 31.2551 14.8992 31.181 15.3026C31.1157 15.6614 30.8592 15.9239 30.5181 15.9239Z" fill="#AB8A62"/>
<path d="M33.3912 16.4488C33.3496 16.4488 33.3066 16.4443 33.2636 16.4369L33.1198 16.4102C32.7179 16.3376 32.451 15.9505 32.5236 15.5486C32.5963 15.1438 32.9893 14.8724 33.3867 14.9525C33.7886 15.0252 34.1282 15.4241 34.054 15.8274C33.9888 16.1863 33.7308 16.4488 33.3912 16.4488Z" fill="#AB8A62"/>
<path d="M40.4323 17.8828C40.3774 17.8828 40.3196 17.8769 40.2632 17.8635L36.7086 17.0286C36.3097 16.9352 36.0621 16.5348 36.157 16.1374C36.2504 15.74 36.6478 15.4938 37.0482 15.5843L40.6028 16.4192C41.0017 16.5126 41.2494 16.913 41.1545 17.3104C41.0729 17.653 40.7689 17.8828 40.4323 17.8828Z" fill="#AB8A62"/>
<path d="M43.7453 36.8483C43.336 36.8483 42.9297 36.5161 42.9297 36.1068C42.9297 35.6975 43.1877 35.3654 43.597 35.3654H43.7453C44.1546 35.3654 44.4868 35.6975 44.4868 36.1068C44.4868 36.5161 44.1546 36.8483 43.7453 36.8483Z" fill="#AB8A62"/>
<path d="M40.7808 36.8482H0.741469C0.332178 36.8482 0 36.516 0 36.1067C0 35.6974 0.332178 35.3652 0.741469 35.3652H40.7808C41.1901 35.3652 41.5222 35.6974 41.5222 36.1067C41.5222 36.516 41.1901 36.8482 40.7808 36.8482Z" fill="#AB8A62"/>
<path d="M35.5905 24.0579C36.3072 24.0579 36.8881 23.477 36.8881 22.7603C36.8881 22.0437 36.3072 21.4628 35.5905 21.4628C34.8739 21.4628 34.293 22.0437 34.293 22.7603C34.293 23.477 34.8739 24.0579 35.5905 24.0579Z" fill="#AB8A62"/>
</svg>
