<svg width="42" height="37" viewBox="0 0 42 37" fill="none" xmlns="http://www.w3.org/2000/svg">
<path d="M6.29492 13.3526V2.83002C6.29492 1.82351 7.46219 1 8.88886 1H32.8179C34.2446 1 35.4119 1.82351 35.4119 2.83002V13.3069" stroke="#AB8A62" stroke-width="1.5" stroke-miterlimit="10" stroke-linecap="round" stroke-linejoin="round"/>
<path d="M1 18.0538C1 17.5458 1.19052 17.1012 1.50806 16.7837C1.82559 16.4662 2.27014 16.2756 2.7782 16.2756H38.5328C39.5489 16.2756 40.3745 17.1012 40.3745 18.1173C40.3745 18.6254 40.184 19.07 39.8664 19.3875C39.5489 19.705 39.1043 19.8955 38.5963 19.8955H2.84171C1.82559 19.8955 1 19.07 1 18.0538Z" stroke="#AB8A62" stroke-width="1.5" stroke-miterlimit="10" stroke-linecap="round" stroke-linejoin="round"/>
<path d="M40.3745 33.8671C40.3745 34.3752 40.184 34.8197 39.8664 35.1372C39.5489 35.4548 39.1043 35.6453 38.5963 35.6453H2.84171C1.82559 35.6453 1 34.8197 1 33.8036C1 33.2955 1.19052 32.851 1.50806 32.5334C1.82559 32.2159 2.27014 32.0254 2.7782 32.0254H38.5328C39.5489 32.0889 40.3745 32.851 40.3745 33.8671Z" stroke="#AB8A62" stroke-width="1.5" stroke-miterlimit="10" stroke-linecap="round" stroke-linejoin="round"/>
<path d="M4.74609 19.8955H8.11198V32.0889H4.74609V19.8955Z" stroke="#AB8A62" stroke-miterlimit="10" stroke-linecap="round" stroke-linejoin="round"/>
<path d="M14.2734 19.8955H17.6393V32.0889H14.2734V19.8955Z" stroke="#AB8A62" stroke-miterlimit="10" stroke-linecap="round" stroke-linejoin="round"/>
<path d="M23.7363 19.8955H27.1022V32.0889H23.7363V19.8955Z" stroke="#AB8A62" stroke-miterlimit="10" stroke-linecap="round" stroke-linejoin="round"/>
<path d="M33.2617 19.8955H36.6276V32.0889H33.2617V19.8955Z" stroke="#AB8A62" stroke-miterlimit="10" stroke-linecap="round" stroke-linejoin="round"/>
</svg>
