<svg width="48" height="53" viewBox="0 0 48 53" fill="none" xmlns="http://www.w3.org/2000/svg">
<path fill-rule="evenodd" clip-rule="evenodd" d="M24.0001 11.6765C24.4388 11.6765 24.7923 12.0303 24.7923 12.4677V15.6959L26.1651 16.8389C26.7349 17.3128 26.3929 18.2378 25.6583 18.2378C25.4784 18.2378 25.2986 18.1779 25.1507 18.0548L23.4931 16.6751C23.3119 16.5247 23.2077 16.3016 23.2077 16.0676V12.4679C23.2078 12.0303 23.5627 11.6765 24.0001 11.6765ZM28.7328 15.7905C28.7328 13.1854 26.61 11.0642 24.0001 11.0642C21.3901 11.0642 19.2673 13.1856 19.2673 15.7905C19.2673 18.3976 21.3901 20.5175 24.0001 20.5175C26.61 20.5175 28.7328 18.3977 28.7328 15.7905ZM17.6819 15.7905C17.6819 19.2704 20.5161 22.1 24.0001 22.1C27.4841 22.1 30.3182 19.2704 30.3182 15.7905C30.3182 12.3119 27.4841 9.48169 24.0001 9.48169C20.5161 9.4818 17.6819 12.312 17.6819 15.7905ZM46.4147 46.5979V20.4333L24.0001 2.19463L1.58538 20.4333V46.5979C1.58538 47.9572 2.69241 49.0634 4.05367 49.0634H4.53469V39.3515C4.53469 37.3384 6.05732 35.6742 8.01264 35.4442V27.9625C8.01264 25.6826 9.86979 23.8287 12.1528 23.8287H35.8489C38.1318 23.8287 39.9883 25.6826 39.9883 27.9625V35.4442C41.9442 35.6742 43.4655 37.3383 43.4655 39.3515V49.0634H43.9466C45.3077 49.0634 46.4147 47.9572 46.4147 46.5979ZM41.5675 51.0344H6.43203C6.2603 51.0344 6.11937 50.8942 6.11937 50.7222V46.3796H41.8809V50.7222C41.8809 50.8942 41.7405 51.0344 41.5675 51.0344ZM8.47577 36.9996H39.525C40.8243 36.9996 41.8809 38.0548 41.8809 39.3515V44.797H6.11925V39.3515C6.11925 38.0549 7.17668 36.9996 8.47577 36.9996ZM21.2736 35.4165H13.3919V31.9352C13.3919 31.0766 14.0916 30.3778 14.9521 30.3778H19.7141C20.5746 30.3778 21.2736 31.0766 21.2736 31.9352V35.4165ZM34.6082 35.4165H26.7265V31.9352C26.7265 31.0766 27.4269 30.3778 28.2874 30.3778H33.0489C33.9087 30.3778 34.6083 31.0766 34.6083 31.9352V35.4165H34.6082ZM38.4029 35.4165H36.1935V31.9352C36.1935 30.2037 34.7826 28.7953 33.0487 28.7953H28.2874C26.5521 28.7953 25.1413 30.2037 25.1413 31.9352V35.4165H22.859V31.9352C22.859 30.2037 21.4481 28.7953 19.7142 28.7953H14.9522C13.2176 28.7953 11.8074 30.2037 11.8074 31.9352V35.4165H9.59744V27.9627C9.59744 26.5558 10.744 25.4121 12.1529 25.4121H35.8489C37.2578 25.4121 38.403 26.5558 38.403 27.9627V35.4165H38.4029ZM47.7085 19.444L24.5008 0.56037C24.2092 0.322976 23.7909 0.322976 23.5007 0.56037L0.292328 19.444C0.108403 19.5944 0 19.8202 0 20.0577V46.5979C0 48.8301 1.81903 50.646 4.05355 50.646H4.53457V50.7222C4.53457 51.7672 5.38611 52.6176 6.43191 52.6176H41.5674C42.6138 52.6176 43.4654 51.7672 43.4654 50.7222V50.646H43.9464C46.1817 50.646 48 48.8301 48 46.5979V20.0577C48.0001 19.8202 47.8931 19.5944 47.7085 19.444Z" fill="#AB8A62"/>
</svg>
