<svg width="40" height="40" viewBox="0 0 40 40" fill="none" xmlns="http://www.w3.org/2000/svg">
<g clip-path="url(#clip0_669_328)">
<path d="M10.0833 13.4613V4.79605C10.0833 3.27514 11.3208 2.03772 12.8417 2.03772H27.1592C28.6801 2.03772 29.9175 3.27514 29.9175 4.79605L29.9243 13.4551C29.9268 14.4181 29.4388 15.2976 28.6185 15.8065C28.5091 15.8744 28.3876 15.9067 28.2677 15.9067C27.6015 15.9067 27.3451 15.0274 27.9155 14.6735C28.3398 14.4103 28.5923 13.9556 28.5908 13.4574L28.5842 4.79664C28.5842 4.01039 27.9449 3.37114 27.1592 3.37114H12.8417C12.0559 3.37114 11.4167 4.01039 11.4167 4.79614V13.4613C11.4167 13.9578 11.669 14.411 12.0917 14.6733C12.4045 14.8675 12.5007 15.2785 12.3065 15.5913C12.1124 15.9041 11.7016 16.0005 11.3885 15.8061C10.5712 15.2988 10.0833 14.4222 10.0833 13.4613ZM40 20.7953C40 19.3249 38.8038 18.1286 37.3333 18.1286H28.5833C28.2152 18.1286 27.9167 18.4271 27.9167 18.7953C27.9167 19.1635 28.2152 19.462 28.5833 19.462H37.3333C38.0685 19.462 38.6667 20.0601 38.6667 20.7953C38.6667 21.5305 38.0685 22.1286 37.3333 22.1286H29.9167C29.5485 22.1286 29.25 22.4271 29.25 22.7953C29.25 23.1635 29.5485 23.462 29.9167 23.462H36.0278V37.2953C36.0278 37.6635 36.3263 37.962 36.6944 37.962C37.0626 37.962 37.3611 37.6635 37.3611 37.2953V23.4613C38.8187 23.4463 40 22.2565 40 20.7953ZM25.7148 30.0602L27.5585 37.1271C27.6514 37.4833 27.438 37.8475 27.0817 37.9404C26.7259 38.0333 26.3614 37.8204 26.2682 37.4636L24.4729 30.5823C23.6672 30.7942 23.8248 30.7411 16.7573 30.7411C16.3323 30.7411 15.9201 30.6856 15.5271 30.5823L13.7317 37.4636C13.6534 37.7635 13.383 37.9621 13.0871 37.9621C12.6494 37.9621 12.3316 37.5484 12.4415 37.1271L14.2853 30.0602C12.4986 28.9944 11.5721 26.9041 12.0336 24.8431L12.3428 23.462H3.97225V37.2953C3.97225 37.6635 3.67375 37.962 3.30558 37.962C2.93742 37.962 2.63892 37.6635 2.63892 37.2953V23.4613C1.18133 23.4463 0 22.2565 0 20.7953C0 19.3249 1.19625 18.1286 2.66667 18.1286H13.5368L13.7013 17.394C14.3612 14.4468 16.9822 12.3495 20 12.3495C23.0201 12.3495 25.6393 14.449 26.2987 17.394C28.1177 25.5186 28.0833 25.1745 28.0833 25.9006C28.0833 27.6671 27.1318 29.2149 25.7148 30.0602ZM13.2383 19.462H2.66667C1.9315 19.462 1.33333 20.0601 1.33333 20.7953C1.33333 21.5305 1.9315 22.1286 2.66667 22.1286H12.6413L13.2383 19.462ZM26.6653 25.1343L24.9975 17.6852C24.4699 15.3286 22.4149 13.6828 19.9999 13.6828C17.5849 13.6828 15.5299 15.3286 15.0023 17.6852C14.8145 18.5242 13.5363 24.2334 13.3346 25.1344C12.8429 27.331 14.5232 29.4079 16.7571 29.4079H23.2426C25.475 29.4079 27.1573 27.3331 26.6653 25.1343Z" fill="#AB8A62"/>
</g>
<defs>
<clipPath id="clip0_669_328">
<rect width="40" height="40" fill="white"/>
</clipPath>
</defs>
</svg>
