<svg width="34" height="36" viewBox="0 0 34 36" fill="none" xmlns="http://www.w3.org/2000/svg">
<path d="M32.4762 20.0762C32.6328 20.0762 32.783 20.014 32.8937 19.9033C33.0045 19.7925 33.0667 19.6423 33.0667 19.4857V14.7619C33.0667 14.6053 33.0045 14.4551 32.8937 14.3444C32.783 14.2337 32.6328 14.1714 32.4762 14.1714H31.8857V8.56191C31.8851 8.01399 31.6672 7.48869 31.2797 7.10125C30.8923 6.71381 30.367 6.49587 29.8191 6.49524H27.1619V1.47619C27.1615 1.08482 27.0058 0.709605 26.7291 0.432863C26.4523 0.15612 26.0771 0.000449304 25.6857 0H7.38096C6.98958 0.000449304 6.61437 0.15612 6.33763 0.432863C6.06089 0.709605 5.90522 1.08482 5.90477 1.47619V6.49524H3.24762C2.6997 6.49587 2.1744 6.71381 1.78696 7.10125C1.39952 7.48869 1.18158 8.01399 1.18095 8.56191V14.1714H0.590477C0.433872 14.1714 0.283683 14.2337 0.172947 14.3444C0.0622109 14.4551 0 14.6053 0 14.7619V19.4857C0 19.6423 0.0622109 19.7925 0.172947 19.9033C0.283683 20.014 0.433872 20.0762 0.590477 20.0762H1.18095V31.8857H0.885715C0.650887 31.886 0.425749 31.9794 0.2597 32.1454C0.0936517 32.3115 0.000253985 32.5366 0 32.7715V34.8381C0 34.9947 0.0622109 35.1449 0.172947 35.2557C0.283683 35.3664 0.433872 35.4286 0.590477 35.4286H32.4762C32.6328 35.4286 32.783 35.3664 32.8937 35.2557C33.0045 35.1449 33.0667 34.9947 33.0667 34.8381V32.7715C33.0664 32.5366 32.973 32.3115 32.807 32.1454C32.6409 31.9794 32.4158 31.886 32.181 31.8857H31.8857V20.0762H32.4762ZM7.08572 1.47619C7.08572 1.39789 7.11682 1.32279 7.17219 1.26743C7.22756 1.21206 7.30266 1.18095 7.38096 1.18095H25.6857C25.764 1.18095 25.8391 1.21206 25.8945 1.26743C25.9499 1.32279 25.981 1.39789 25.981 1.47619V11.5143C25.981 11.5926 25.9499 11.6677 25.8945 11.7231C25.8391 11.7784 25.764 11.8095 25.6857 11.8095H7.38096C7.30266 11.8095 7.22756 11.7784 7.17219 11.7231C7.11682 11.6677 7.08572 11.5926 7.08572 11.5143V1.47619ZM2.36191 8.56191C2.36216 8.32708 2.45556 8.10195 2.62161 7.9359C2.78766 7.76985 3.01279 7.67645 3.24762 7.6762H5.90477V11.5143C5.90522 11.9057 6.06089 12.2809 6.33763 12.5576C6.61437 12.8344 6.98958 12.99 7.38096 12.9905H25.6857C26.0771 12.99 26.4523 12.8344 26.7291 12.5576C27.0058 12.2809 27.1615 11.9057 27.1619 11.5143V7.6762H29.8191C30.0539 7.67645 30.279 7.76985 30.4451 7.9359C30.6111 8.10195 30.7045 8.32708 30.7048 8.56191V14.1714H2.36191V8.56191ZM31.8857 34.2476H1.18095V33.0667H31.8857V34.2476ZM13.581 22.4381H4.13334C3.97673 22.4381 3.82654 22.5003 3.71581 22.6111C3.60507 22.7218 3.54286 22.872 3.54286 23.0286V31.8857H2.36191V20.0762H15.3524V31.8857H14.1714V23.0286C14.1714 22.872 14.1092 22.7218 13.9985 22.6111C13.8878 22.5003 13.7376 22.4381 13.581 22.4381ZM12.9905 23.6191V31.8857H9.44763V23.6191H12.9905ZM8.26667 23.6191V31.8857H4.72381V23.6191H8.26667ZM28.3429 29.6254V25.981C28.3429 25.863 28.3075 25.7477 28.2414 25.6499C28.1752 25.5522 28.0813 25.4765 27.9717 25.4327L25.0193 24.2518C24.9297 24.2159 24.8327 24.2026 24.7368 24.2129C24.6408 24.2233 24.5489 24.257 24.469 24.3111C24.3891 24.3652 24.3236 24.438 24.2784 24.5233C24.2332 24.6085 24.2095 24.7035 24.2095 24.8V26.5715C24.2095 26.6811 24.2401 26.7886 24.2977 26.8819C24.3554 26.9751 24.4379 27.0505 24.5359 27.0996L25.3135 27.4884L24.9064 29.5238H19.4857C19.2023 29.5237 18.923 29.5917 18.6713 29.7219C18.4196 29.8522 18.2028 30.041 18.0392 30.2724C17.8756 30.5038 17.7699 30.7711 17.731 31.0519C17.6922 31.3326 17.7213 31.6186 17.8159 31.8857H16.5333V20.0762H30.7048V31.8857H29.4223C29.4999 31.6665 29.5336 31.434 29.5214 31.2017C29.5092 30.9694 29.4513 30.7418 29.351 30.5319C29.2508 30.3219 29.1101 30.1338 28.9372 29.9783C28.7642 29.8228 28.5622 29.7028 28.3429 29.6254ZM26.2451 26.6338L25.3905 26.2065V25.6722L27.1619 26.3807V29.5238H26.1107L26.56 27.2777C26.5854 27.1507 26.5683 27.0189 26.5114 26.9025C26.4545 26.7862 26.3609 26.6917 26.2451 26.6338ZM26.0825 31.8857H21.1556C21.291 31.5037 21.291 31.0868 21.1556 30.7048H26.0825C25.9471 31.0868 25.9471 31.5037 26.0825 31.8857ZM27.7524 30.7048C27.8692 30.7048 27.9833 30.7394 28.0805 30.8043C28.1776 30.8692 28.2532 30.9614 28.2979 31.0693C28.3426 31.1772 28.3543 31.2959 28.3315 31.4105C28.3087 31.525 28.2525 31.6302 28.1699 31.7128C28.0873 31.7954 27.9821 31.8516 27.8676 31.8744C27.7531 31.8972 27.6343 31.8855 27.5264 31.8408C27.4185 31.7961 27.3263 31.7204 27.2614 31.6233C27.1966 31.5262 27.1619 31.4121 27.1619 31.2953C27.1621 31.1387 27.2244 30.9886 27.3351 30.8779C27.4458 30.7672 27.5958 30.705 27.7524 30.7048ZM20.0762 31.2953C20.0762 31.4121 20.0416 31.5262 19.9767 31.6233C19.9118 31.7204 19.8196 31.7961 19.7117 31.8408C19.6038 31.8855 19.4851 31.8972 19.3705 31.8744C19.256 31.8516 19.1508 31.7954 19.0682 31.7128C18.9856 31.6302 18.9294 31.525 18.9066 31.4105C18.8838 31.2959 18.8955 31.1772 18.9402 31.0693C18.9849 30.9614 19.0606 30.8692 19.1577 30.8043C19.2548 30.7394 19.3689 30.7048 19.4857 30.7048C19.6423 30.705 19.7924 30.7672 19.9031 30.8779C20.0138 30.9886 20.076 31.1387 20.0762 31.2953ZM1.18095 18.8953V15.3524H31.8857V18.8953H1.18095Z" fill="#AB8A62"/>
<path d="M9.74377 9.44778H10.3342C10.4417 9.44752 10.5489 9.43552 10.6538 9.41198C10.7149 9.75277 10.8937 10.0613 11.1591 10.2837C11.4244 10.506 11.7595 10.6282 12.1057 10.6287H12.6962C13.0875 10.6283 13.4627 10.4726 13.7395 10.1959C14.0162 9.91913 14.1719 9.54391 14.1723 9.15254V8.26683H18.8962V9.15254C18.8966 9.54391 19.0523 9.91913 19.329 10.1959C19.6058 10.4726 19.981 10.6283 20.3723 10.6287H20.9628C21.309 10.6282 21.6441 10.506 21.9094 10.2837C22.1748 10.0613 22.3536 9.75277 22.4147 9.41198C22.5196 9.43552 22.6268 9.44752 22.7343 9.44778H23.3247C23.7161 9.44733 24.0913 9.29166 24.3681 9.01492C24.6448 8.73817 24.8005 8.36296 24.8009 7.97159V5.01921C24.8005 4.62783 24.6448 4.25262 24.3681 3.97588C24.0913 3.69913 23.7161 3.54346 23.3247 3.54301H22.7343C22.6268 3.54327 22.5196 3.55528 22.4147 3.57881C22.3536 3.23803 22.1748 2.92952 21.9094 2.70714C21.6441 2.48476 21.309 2.36263 20.9628 2.36206H20.3723C19.981 2.36251 19.6058 2.51818 19.329 2.79492C19.0523 3.07167 18.8966 3.44688 18.8962 3.83825V4.72397H14.1723V3.83825C14.1719 3.44688 14.0162 3.07167 13.7395 2.79492C13.4627 2.51818 13.0875 2.36251 12.6962 2.36206H12.1057C11.7595 2.36263 11.4244 2.48476 11.1591 2.70714C10.8937 2.92952 10.7149 3.23803 10.6538 3.57881C10.5489 3.55528 10.4417 3.54327 10.3342 3.54301H9.74377C9.3524 3.54346 8.97718 3.69913 8.70044 3.97588C8.4237 4.25262 8.26803 4.62783 8.26758 5.01921V7.97159C8.26803 8.36296 8.4237 8.73817 8.70044 9.01492C8.97718 9.29166 9.3524 9.44733 9.74377 9.44778ZM22.439 5.01921C22.439 4.9409 22.4701 4.86581 22.5255 4.81044C22.5809 4.75507 22.656 4.72397 22.7343 4.72397H23.3247C23.403 4.72397 23.4781 4.75507 23.5335 4.81044C23.5889 4.86581 23.62 4.9409 23.62 5.01921V7.97159C23.62 8.04989 23.5889 8.12499 23.5335 8.18035C23.4781 8.23572 23.403 8.26683 23.3247 8.26683H22.7343C22.656 8.26683 22.5809 8.23572 22.5255 8.18035C22.4701 8.12499 22.439 8.04989 22.439 7.97159V5.01921ZM20.0771 7.67635V3.83825C20.0771 3.75995 20.1082 3.68485 20.1636 3.62949C20.219 3.57412 20.294 3.54301 20.3723 3.54301H20.9628C21.0411 3.54301 21.1162 3.57412 21.1716 3.62949C21.227 3.68485 21.2581 3.75995 21.2581 3.83825V9.15254C21.2581 9.23084 21.227 9.30594 21.1716 9.36131C21.1162 9.41667 21.0411 9.44778 20.9628 9.44778H20.3723C20.294 9.44778 20.219 9.41667 20.1636 9.36131C20.1082 9.30594 20.0771 9.23084 20.0771 9.15254V7.67635ZM14.1723 5.90492H18.8962V7.08587H14.1723V5.90492ZM11.8104 7.97159V3.83825C11.8104 3.75995 11.8415 3.68485 11.8969 3.62949C11.9523 3.57412 12.0274 3.54301 12.1057 3.54301H12.6962C12.7745 3.54301 12.8495 3.57412 12.9049 3.62949C12.9603 3.68485 12.9914 3.75995 12.9914 3.83825V9.15254C12.9914 9.23084 12.9603 9.30594 12.9049 9.36131C12.8495 9.41667 12.7745 9.44778 12.6962 9.44778H12.1057C12.0274 9.44778 11.9523 9.41667 11.8969 9.36131C11.8415 9.30594 11.8104 9.23084 11.8104 9.15254V7.97159ZM9.44853 5.01921C9.44853 4.9409 9.47964 4.86581 9.535 4.81044C9.59037 4.75507 9.66547 4.72397 9.74377 4.72397H10.3342C10.4125 4.72397 10.4876 4.75507 10.543 4.81044C10.5984 4.86581 10.6295 4.9409 10.6295 5.01921V7.97159C10.6295 8.04989 10.5984 8.12499 10.543 8.18035C10.4876 8.23572 10.4125 8.26683 10.3342 8.26683H9.74377C9.66547 8.26683 9.59037 8.23572 9.535 8.18035C9.47964 8.12499 9.44853 8.04989 9.44853 7.97159V5.01921Z" fill="#AB8A62"/>
</svg>
