<svg width="48" height="52" viewBox="0 0 48 52" fill="none" xmlns="http://www.w3.org/2000/svg">
<path d="M47.1429 29.1429C47.3702 29.1429 47.5882 29.0526 47.749 28.8918C47.9097 28.7311 48 28.5131 48 28.2857V21.4286C48 21.2013 47.9097 20.9832 47.749 20.8225C47.5882 20.6617 47.3702 20.5714 47.1429 20.5714H46.2857V12.4286C46.2848 11.6332 45.9685 10.8707 45.406 10.3083C44.8436 9.74584 44.0811 9.42948 43.2857 9.42858H39.4286V2.14286C39.4279 1.57474 39.202 1.03007 38.8002 0.628349C38.3985 0.226626 37.8538 0.000652215 37.2857 0H10.7143C10.1462 0.000652215 9.6015 0.226626 9.19978 0.628349C8.79806 1.03007 8.57208 1.57474 8.57143 2.14286V9.42858H4.71429C3.91892 9.42948 3.15638 9.74584 2.59397 10.3083C2.03156 10.8707 1.71519 11.6332 1.71429 12.4286V20.5714H0.857143C0.629815 20.5714 0.411797 20.6617 0.251052 20.8225C0.0903061 20.9832 0 21.2013 0 21.4286V28.2857C0 28.5131 0.0903061 28.7311 0.251052 28.8918C0.411797 29.0526 0.629815 29.1429 0.857143 29.1429H1.71429V46.2857H1.28571C0.944835 46.2861 0.618023 46.4217 0.376984 46.6627C0.135946 46.9038 0.000368687 47.2306 0 47.5714V50.5714C0 50.7988 0.0903061 51.0168 0.251052 51.1775C0.411797 51.3383 0.629815 51.4286 0.857143 51.4286H47.1429C47.3702 51.4286 47.5882 51.3383 47.749 51.1775C47.9097 51.0168 48 50.7988 48 50.5714V47.5714C47.9996 47.2306 47.8641 46.9038 47.623 46.6627C47.382 46.4217 47.0552 46.2861 46.7143 46.2857H46.2857V29.1429H47.1429ZM10.2857 2.14286C10.2857 2.02919 10.3309 1.92018 10.4112 1.83981C10.4916 1.75944 10.6006 1.71429 10.7143 1.71429H37.2857C37.3994 1.71429 37.5084 1.75944 37.5888 1.83981C37.6691 1.92018 37.7143 2.02919 37.7143 2.14286V16.7143C37.7143 16.828 37.6691 16.937 37.5888 17.0173C37.5084 17.0977 37.3994 17.1429 37.2857 17.1429H10.7143C10.6006 17.1429 10.4916 17.0977 10.4112 17.0173C10.3309 16.937 10.2857 16.828 10.2857 16.7143V2.14286ZM3.42857 12.4286C3.42894 12.0877 3.56452 11.7609 3.80556 11.5198C4.04659 11.2788 4.37341 11.1432 4.71429 11.1429H8.57143V16.7143C8.57208 17.2824 8.79806 17.8271 9.19978 18.2288C9.6015 18.6305 10.1462 18.8565 10.7143 18.8572H37.2857C37.8538 18.8565 38.3985 18.6305 38.8002 18.2288C39.202 17.8271 39.4279 17.2824 39.4286 16.7143V11.1429H43.2857C43.6266 11.1432 43.9534 11.2788 44.1945 11.5198C44.4355 11.7609 44.5711 12.0877 44.5714 12.4286V20.5714H3.42857V12.4286ZM46.2857 49.7143H1.71429V48H46.2857V49.7143ZM19.7143 32.5714H6C5.77267 32.5714 5.55466 32.6617 5.39391 32.8225C5.23316 32.9832 5.14286 33.2013 5.14286 33.4286V46.2857H3.42857V29.1429H22.2857V46.2857H20.5714V33.4286C20.5714 33.2013 20.4811 32.9832 20.3204 32.8225C20.1596 32.6617 19.9416 32.5714 19.7143 32.5714ZM18.8571 34.2857V46.2857H13.7143V34.2857H18.8571ZM12 34.2857V46.2857H6.85714V34.2857H12ZM41.1429 43.0046V37.7143C41.1429 37.543 41.0915 37.3756 40.9955 37.2337C40.8995 37.0919 40.7631 36.9821 40.604 36.9184L36.3183 35.2042C36.1883 35.1521 36.0475 35.1328 35.9082 35.1478C35.7689 35.1628 35.6354 35.2117 35.5195 35.2902C35.4035 35.3688 35.3085 35.4745 35.2428 35.5983C35.1772 35.722 35.1429 35.8599 35.1429 36V38.5714C35.1429 38.7306 35.1872 38.8866 35.2709 39.022C35.3546 39.1574 35.4743 39.2669 35.6167 39.3381L36.7454 39.9025L36.1545 42.8572H28.2857C27.8743 42.857 27.4689 42.9556 27.1035 43.1447C26.7381 43.3338 26.4234 43.6078 26.1859 43.9438C25.9484 44.2797 25.795 44.6677 25.7386 45.0753C25.6822 45.4828 25.7244 45.8979 25.8617 46.2857H24V29.1429H44.5714V46.2857H42.7097C42.8225 45.9674 42.8713 45.63 42.8536 45.2928C42.8359 44.9556 42.7518 44.6252 42.6063 44.3204C42.4608 44.0157 42.2567 43.7426 42.0055 43.5169C41.7544 43.2911 41.4613 43.117 41.1429 43.0046ZM38.0977 38.662L36.8572 38.0417V37.266L39.4286 38.2946V42.8572H37.9027L38.5548 39.5967C38.5917 39.4123 38.5669 39.2209 38.4843 39.052C38.4017 38.8831 38.2658 38.7461 38.0977 38.662ZM37.8617 46.2857H30.7097C30.9063 45.7312 30.9063 45.126 30.7097 44.5714H37.8617C37.6652 45.126 37.6652 45.7312 37.8617 46.2857ZM40.2857 44.5714C40.4553 44.5714 40.621 44.6217 40.7619 44.7159C40.9029 44.8101 41.0127 44.944 41.0776 45.1006C41.1425 45.2572 41.1595 45.4295 41.1264 45.5958C41.0933 45.7621 41.0117 45.9148 40.8918 46.0347C40.7719 46.1546 40.6192 46.2362 40.4529 46.2693C40.2867 46.3023 40.1143 46.2854 39.9577 46.2205C39.8011 46.1556 39.6672 46.0457 39.573 45.9048C39.4789 45.7638 39.4286 45.5981 39.4286 45.4286C39.4288 45.2013 39.5192 44.9835 39.6799 44.8228C39.8406 44.6621 40.0585 44.5717 40.2857 44.5714ZM29.1429 45.4286C29.1429 45.5981 29.0926 45.7638 28.9984 45.9048C28.9042 46.0457 28.7704 46.1556 28.6137 46.2205C28.4571 46.2854 28.2848 46.3023 28.1185 46.2693C27.9522 46.2362 27.7995 46.1546 27.6796 46.0347C27.5598 45.9148 27.4781 45.7621 27.445 45.5958C27.412 45.4295 27.429 45.2572 27.4938 45.1006C27.5587 44.944 27.6686 44.8101 27.8095 44.7159C27.9505 44.6217 28.1162 44.5714 28.2857 44.5714C28.513 44.5717 28.7308 44.6621 28.8915 44.8228C29.0522 44.9835 29.1426 45.2013 29.1429 45.4286ZM1.71429 27.4286V22.2857H46.2857V27.4286H1.71429Z" fill="#AB8A62"/>
<path d="M14.1429 13.7146H15C15.156 13.7142 15.3116 13.6968 15.4638 13.6626C15.5525 14.1573 15.8121 14.6051 16.1973 14.9279C16.5825 15.2507 17.0689 15.428 17.5714 15.4288H18.4286C18.9967 15.4282 19.5414 15.2022 19.9431 14.8005C20.3448 14.3988 20.5708 13.8541 20.5714 13.286V12.0003H27.4286V13.286C27.4292 13.8541 27.6552 14.3988 28.0569 14.8005C28.4586 15.2022 29.0033 15.4282 29.5714 15.4288H30.4286C30.9312 15.428 31.4175 15.2507 31.8027 14.9279C32.1879 14.6051 32.4475 14.1573 32.5362 13.6626C32.6884 13.6968 32.844 13.7142 33 13.7146H33.8571C34.4253 13.7139 34.9699 13.4879 35.3717 13.0862C35.7734 12.6845 35.9994 12.1398 36 11.5717V7.28598C35.9994 6.71786 35.7734 6.17319 35.3717 5.77147C34.9699 5.36975 34.4253 5.14377 33.8571 5.14312H33C32.844 5.14349 32.6884 5.16092 32.5362 5.19508C32.4475 4.70039 32.1879 4.25256 31.8027 3.92975C31.4175 3.60694 30.9312 3.42966 30.4286 3.42883H29.5714C29.0033 3.42949 28.4586 3.65546 28.0569 4.05718C27.6552 4.4589 27.4292 5.00357 27.4286 5.57169V6.85741H20.5714V5.57169C20.5708 5.00357 20.3448 4.4589 19.9431 4.05718C19.5414 3.65546 18.9967 3.42949 18.4286 3.42883H17.5714C17.0689 3.42966 16.5825 3.60694 16.1973 3.92975C15.8121 4.25256 15.5525 4.70039 15.4638 5.19508C15.3116 5.16092 15.156 5.14349 15 5.14312H14.1429C13.5747 5.14377 13.0301 5.36975 12.6283 5.77147C12.2266 6.17319 12.0007 6.71786 12 7.28598V11.5717C12.0007 12.1398 12.2266 12.6845 12.6283 13.0862C13.0301 13.4879 13.5747 13.7139 14.1429 13.7146ZM32.5714 7.28598C32.5714 7.17231 32.6166 7.0633 32.697 6.98293C32.7773 6.90256 32.8863 6.85741 33 6.85741H33.8571C33.9708 6.85741 34.0798 6.90256 34.1602 6.98293C34.2406 7.0633 34.2857 7.17231 34.2857 7.28598V11.5717C34.2857 11.6854 34.2406 11.7944 34.1602 11.8747C34.0798 11.9551 33.9708 12.0003 33.8571 12.0003H33C32.8863 12.0003 32.7773 11.9551 32.697 11.8747C32.6166 11.7944 32.5714 11.6854 32.5714 11.5717V7.28598ZM29.1429 11.1431V5.57169C29.1429 5.45803 29.188 5.34902 29.2684 5.26864C29.3488 5.18827 29.4578 5.14312 29.5714 5.14312H30.4286C30.5422 5.14312 30.6513 5.18827 30.7316 5.26864C30.812 5.34902 30.8571 5.45803 30.8571 5.57169V13.286C30.8571 13.3996 30.812 13.5087 30.7316 13.589C30.6513 13.6694 30.5422 13.7146 30.4286 13.7146H29.5714C29.4578 13.7146 29.3488 13.6694 29.2684 13.589C29.188 13.5087 29.1429 13.3996 29.1429 13.286V11.1431ZM20.5714 8.57169H27.4286V10.286H20.5714V8.57169ZM17.1429 11.5717V5.57169C17.1429 5.45803 17.188 5.34902 17.2684 5.26864C17.3488 5.18827 17.4578 5.14312 17.5714 5.14312H18.4286C18.5422 5.14312 18.6512 5.18827 18.7316 5.26864C18.812 5.34902 18.8571 5.45803 18.8571 5.57169V13.286C18.8571 13.3996 18.812 13.5087 18.7316 13.589C18.6512 13.6694 18.5422 13.7146 18.4286 13.7146H17.5714C17.4578 13.7146 17.3488 13.6694 17.2684 13.589C17.188 13.5087 17.1429 13.3996 17.1429 13.286V11.5717ZM13.7143 7.28598C13.7143 7.17231 13.7594 7.0633 13.8398 6.98293C13.9202 6.90256 14.0292 6.85741 14.1429 6.85741H15C15.1137 6.85741 15.2227 6.90256 15.303 6.98293C15.3834 7.0633 15.4286 7.17231 15.4286 7.28598V11.5717C15.4286 11.6854 15.3834 11.7944 15.303 11.8747C15.2227 11.9551 15.1137 12.0003 15 12.0003H14.1429C14.0292 12.0003 13.9202 11.9551 13.8398 11.8747C13.7594 11.7944 13.7143 11.6854 13.7143 11.5717V7.28598Z" fill="#AB8A62"/>
</svg>
