<svg width="140" height="40" viewBox="0 0 140 40" fill="none" xmlns="http://www.w3.org/2000/svg">
<path d="M25.6086 16.2456C25.6086 17.6243 26.7081 18.746 28.0595 18.746C29.4109 18.746 30.5104 17.6243 30.5104 16.2456C30.5104 14.867 29.4109 13.7453 28.0595 13.7453C26.7081 13.7436 25.6086 14.8653 25.6086 16.2456ZM28.0595 14.2961C29.113 14.2961 29.9705 15.1709 29.9705 16.2456C29.9705 17.3203 29.113 18.1935 28.0595 18.1935C27.0061 18.1935 26.1485 17.3187 26.1485 16.2456C26.1485 15.1709 27.0061 14.2961 28.0595 14.2961ZM20.2476 6.92928C20.2904 6.92592 24.4811 6.57161 26.2473 10.6992C26.2917 10.8033 26.3905 10.8654 26.4958 10.8654C26.532 10.8654 26.5682 10.8587 26.6045 10.8419C26.7411 10.7814 26.8036 10.6185 26.7444 10.4792C25.8308 8.34487 24.3149 7.31215 22.9734 6.81677C24.0284 6.92425 25.2564 7.23154 26.3954 7.96369C26.5222 8.04429 26.6884 8.00567 26.7691 7.87805C26.8481 7.74875 26.8102 7.57914 26.6851 7.49686C23.7239 5.59262 20.3085 6.35331 20.1653 6.38689C20.027 6.4188 19.9348 6.5565 19.9579 6.69923C19.9776 6.84196 20.1044 6.94272 20.2476 6.92928ZM22.733 14.0996C22.7462 14.1013 22.7594 14.1029 22.7742 14.1029C22.9059 14.1029 23.0211 14.0039 23.0408 13.8679C23.7124 9.28188 20.4615 7.46496 20.4286 7.44649C20.3068 7.37932 20.157 7.41962 20.078 7.53548C20.0007 7.65135 20.0204 7.8092 20.1258 7.90156C20.1406 7.91499 21.5759 9.208 21.222 12.0257C21.2039 12.1769 21.3076 12.3146 21.4557 12.3347C21.6039 12.3549 21.7388 12.2474 21.7586 12.0963C21.91 10.8839 21.7635 9.92671 21.5216 9.20632C22.2014 10.1366 22.8219 11.621 22.5042 13.7873C22.4828 13.9367 22.5849 14.0761 22.733 14.0996ZM13.9894 8.04765C13.9203 8.18199 13.9697 8.34991 14.103 8.42044C14.1442 8.44227 14.187 8.45234 14.2298 8.45234C14.3269 8.45234 14.4207 8.39861 14.4701 8.30457C14.9079 7.45992 15.6832 6.93768 16.7728 6.75464C17.6139 6.61359 18.3333 6.73617 18.3398 6.73785C18.4682 6.75968 18.5917 6.68747 18.6378 6.56657C18.6839 6.44399 18.6411 6.30629 18.5324 6.23408C18.4946 6.20889 17.5909 5.62284 16.2543 5.43813C15.0182 5.26685 13.1648 5.42637 11.3624 7.1459C11.2538 7.25002 11.2472 7.42466 11.3492 7.53548C11.4513 7.64631 11.6225 7.65303 11.7311 7.54892C13.7376 5.63292 15.7836 5.78237 17.0329 6.16356C16.9243 6.17531 16.814 6.18874 16.7004 6.20722C15.4429 6.41712 14.5063 7.05187 13.9894 8.04765ZM33.0601 22.7224H22.4384C22.2705 21.3505 22.5717 19.9517 23.3437 18.7326C23.3437 18.7309 23.3454 18.7309 23.3454 18.7292C23.3454 18.7275 23.347 18.7275 23.347 18.7259C23.3783 18.6788 23.3931 18.652 23.3931 18.652C23.4408 18.5663 23.4408 18.4605 23.3914 18.3766C23.3437 18.2909 23.2548 18.2389 23.1577 18.2389C19.9496 18.2389 17.2321 19.678 15.0774 22.5142C15.0231 22.5847 14.9672 22.6536 14.9128 22.7224H14.4948C14.4948 22.7191 14.4964 22.7174 14.4981 22.714C14.5063 22.6401 15.3573 15.3019 19.1925 8.06276C19.2632 7.92842 19.2139 7.7605 19.0838 7.68829C18.9522 7.61609 18.7876 7.66479 18.7168 7.79912C14.8289 15.1374 13.9697 22.578 13.9615 22.6519C13.9582 22.6754 13.9598 22.6989 13.9631 22.7224H12.1443C11.7377 9.23318 7.43338 6.90913 7.22104 6.80166C7.2194 6.79998 7.21775 6.79998 7.21446 6.79998C7.20129 6.79327 7.18812 6.78991 7.17331 6.78487C7.16837 6.78319 7.16343 6.78151 7.15849 6.77983C7.14039 6.77647 7.12064 6.77312 7.10088 6.77312C7.08113 6.77312 7.06138 6.77647 7.04327 6.77983C7.03834 6.78151 7.0334 6.78319 7.03011 6.78487C7.01529 6.78823 7.00212 6.79327 6.98896 6.79998C6.98731 6.80166 6.98566 6.80166 6.98237 6.80166C6.77004 6.90745 2.46572 9.23318 2.05916 22.7224H0.269946C0.120159 22.7224 0 22.8467 0 22.9978C0 25.7669 0.653466 28.3831 1.80896 30.6971C1.81884 30.7323 1.8353 30.7626 1.8567 30.7894C4.63022 36.2553 10.2283 40 16.6658 40C20.743 40 24.4811 38.4971 27.3814 36.0085C27.4126 35.9917 27.439 35.9682 27.462 35.9396C28.2801 35.2276 29.0307 34.4367 29.7022 33.5786C29.7335 33.5534 29.7598 33.5199 29.778 33.4829C30.9285 31.9884 31.8388 30.2924 32.4511 28.4587C32.4626 28.4352 32.4708 28.41 32.4758 28.3848C33.0305 26.6921 33.3333 24.8819 33.3333 23.0012C33.33 22.8467 33.2099 22.7224 33.0601 22.7224ZM14.4569 23.2749C13.7689 24.0658 13.0051 24.7744 12.1722 25.389C12.1772 24.6569 12.1722 23.9516 12.1574 23.2749H14.4569ZM7.37248 7.58754C8.6432 8.69751 12.5261 13.5203 11.4447 30.4183C11.4414 30.4737 11.4546 30.5275 11.4793 30.5711C9.96329 30.373 8.58229 30.2638 7.37248 30.2101V7.58754ZM4.5183 11.2802C5.37916 9.08877 6.31738 8.03757 6.83094 7.58922V30.1916C4.95449 30.1329 3.54221 30.2084 2.75048 30.2739C2.39165 24.5326 2.4147 16.6319 4.5183 11.2802ZM0.543183 23.2749H2.04599C2.00155 25.3454 2.04599 27.6711 2.20894 30.2806C1.18019 28.1614 0.584333 25.7853 0.543183 23.2749ZM16.6658 39.4475C10.5608 39.4475 5.2376 35.9665 2.50029 30.8482C4.6401 30.64 15.1762 29.9985 26.7509 35.8221C23.9873 38.089 20.478 39.4475 16.6658 39.4475ZM27.2052 35.4375C21.6105 32.5879 16.2395 31.2378 11.9056 30.6299C11.95 30.5846 11.9797 30.5241 11.9846 30.4536C12.085 28.8919 12.1426 27.4327 12.164 26.0674C13.3113 25.2681 14.34 24.3059 15.2322 23.1993C15.2486 23.1825 15.2634 23.1641 15.2766 23.1422C15.354 23.0465 15.4313 22.9508 15.5071 22.8517C17.2996 20.4907 19.497 19.1524 22.0516 18.8552C20.4583 19.8761 17.6008 22.3866 19.1135 26.6266C19.599 27.9851 20.4583 29.2311 21.6022 30.2302C22.9799 31.4343 25.709 33.4073 28.9681 33.6189C28.4266 34.2705 27.8373 34.8783 27.2052 35.4375ZM29.3944 33.0849C26.1222 33.0295 23.3355 31.0178 21.9545 29.8121C20.8813 28.8751 20.0764 27.7097 19.6221 26.4386C18.8435 24.2589 19.204 22.3228 20.692 20.6838C21.2862 20.0289 21.9512 19.5537 22.4499 19.2481C21.5907 21.1322 21.65 23.2799 22.6507 25.1556C23.8062 27.3201 25.9378 28.6115 28.3509 28.6115H31.8207C31.2413 30.237 30.4166 31.7432 29.3944 33.0849ZM32.0067 28.059H28.3509C26.1386 28.059 24.1848 26.8752 23.1248 24.892C22.8466 24.3714 22.6507 23.8274 22.5289 23.2749H32.7836C32.7589 24.9407 32.4873 26.5477 32.0067 28.059ZM10.9772 2.93104C12.9574 2.02258 14.6972 1.88992 16.1506 2.53642C18.2921 3.48854 19.0937 5.84786 19.1019 5.87137C19.1398 5.98556 19.2435 6.05944 19.3587 6.05944C19.3768 6.05944 19.3949 6.05776 19.4147 6.05273C19.548 6.02418 19.6402 5.89824 19.6287 5.75886C19.6254 5.71016 19.1744 0.941156 15.2355 0.00750549C15.0906 -0.0277583 14.9441 0.0645992 14.9112 0.214051C14.8766 0.361823 14.9672 0.511274 15.1137 0.544858C17.0576 1.00497 18.0633 2.52467 18.5769 3.81264C18.0682 3.1527 17.3506 2.46925 16.3745 2.03265C14.7746 1.31898 12.885 1.45164 10.7583 2.42727C10.6217 2.4894 10.5608 2.65397 10.6217 2.79167C10.681 2.93104 10.8406 2.99317 10.9772 2.93104Z" fill="#000834"/>
<path d="M64.1955 16.36V22.9733C64.1955 24.8756 64.2488 26.1733 64.3555 26.8667C64.4799 27.56 64.6488 27.9956 64.8622 28.1733C65.2711 28.5111 65.9199 28.68 66.8088 28.68L66.8622 29H59.7155L59.7688 28.68C60.6399 28.68 61.2799 28.52 61.6888 28.2C62.0266 27.9333 62.2222 27.0622 62.2755 25.5867C62.3111 25 62.3288 24.1289 62.3288 22.9733V11.6933L54.8622 28.7333L47.1555 14.3067V22.92C47.1555 24.6978 47.2355 25.9867 47.3955 26.7867C47.5733 27.5689 47.8488 28.0844 48.2222 28.3333C48.5955 28.5644 49.2177 28.68 50.0888 28.68L50.1422 29H43.5822L43.6355 28.68C44.2933 28.68 44.7822 28.6356 45.1022 28.5467C45.4399 28.44 45.7244 28.1733 45.9555 27.7467C46.1866 27.32 46.3288 26.7511 46.3822 26.04C46.4533 25.3289 46.4888 24.2889 46.4888 22.92V16.3867C46.4888 15.0178 46.4533 13.9778 46.3822 13.2667C46.3288 12.5556 46.1866 11.9867 45.9555 11.56C45.7244 11.1333 45.4399 10.8756 45.1022 10.7867C44.7822 10.68 44.2933 10.6267 43.6355 10.6267L43.5822 10.3333H47.1555L55.3955 25.88L62.1955 10.3333H66.8622L66.8088 10.6267C65.9199 10.6267 65.2711 10.7956 64.8622 11.1333C64.4177 11.5067 64.1955 13.2489 64.1955 16.36ZM69.2524 22.7067C69.2524 20.84 69.7857 19.2756 70.8524 18.0133C71.919 16.7511 73.3679 16.12 75.199 16.12C77.0302 16.12 78.5057 16.7511 79.6257 18.0133C80.7457 19.2756 81.3057 20.84 81.3057 22.7067C81.3057 24.5733 80.7635 26.1378 79.679 27.4C78.6124 28.6444 77.1635 29.2667 75.3324 29.2667C73.5013 29.2667 72.0257 28.6356 70.9057 27.3733C69.8035 26.1111 69.2524 24.5556 69.2524 22.7067ZM72.319 27.0267C73.0302 28.1644 74.0346 28.7333 75.3324 28.7333C76.6302 28.7333 77.6079 28.1733 78.2657 27.0533C78.9413 25.9333 79.279 24.4933 79.279 22.7333C79.279 20.9556 78.9235 19.4978 78.2124 18.36C77.5013 17.2222 76.4968 16.6533 75.199 16.6533C73.919 16.6533 72.9413 17.2222 72.2657 18.36C71.6079 19.48 71.279 20.92 71.279 22.68C71.279 24.44 71.6257 25.8889 72.319 27.0267ZM83.4451 22.7067C83.4451 20.84 83.9784 19.2756 85.0451 18.0133C86.1118 16.7511 87.5606 16.12 89.3918 16.12C91.2229 16.12 92.6984 16.7511 93.8184 18.0133C94.9384 19.2756 95.4984 20.84 95.4984 22.7067C95.4984 24.5733 94.9562 26.1378 93.8718 27.4C92.8051 28.6444 91.3562 29.2667 89.5251 29.2667C87.694 29.2667 86.2184 28.6356 85.0984 27.3733C83.9962 26.1111 83.4451 24.5556 83.4451 22.7067ZM86.5118 27.0267C87.2229 28.1644 88.2273 28.7333 89.5251 28.7333C90.8229 28.7333 91.8006 28.1733 92.4584 27.0533C93.134 25.9333 93.4718 24.4933 93.4718 22.7333C93.4718 20.9556 93.1162 19.4978 92.4051 18.36C91.694 17.2222 90.6895 16.6533 89.3918 16.6533C88.1118 16.6533 87.134 17.2222 86.4584 18.36C85.8006 19.48 85.4718 20.92 85.4718 22.68C85.4718 24.44 85.8184 25.8889 86.5118 27.0267ZM101.931 16.12V20.8933C102.091 19.6133 102.536 18.5022 103.264 17.56C103.993 16.6 104.962 16.12 106.171 16.12C108.891 16.12 110.251 17.5422 110.251 20.3867V24.6C110.251 26.4489 110.367 27.5956 110.598 28.04C110.847 28.4667 111.487 28.68 112.518 28.68L112.571 29H106.091L106.144 28.68C107.211 28.68 107.851 28.4578 108.064 28.0133C108.278 27.5689 108.384 26.3511 108.384 24.36V20.6533C108.384 19.4267 108.189 18.5022 107.798 17.88C107.424 17.2578 106.82 16.9467 105.984 16.9467C105.167 16.9467 104.482 17.2311 103.931 17.8C103.38 18.3511 102.971 19.0533 102.704 19.9067C102.189 21.56 101.931 23.2222 101.931 24.8933C101.931 26.5644 102.038 27.6133 102.251 28.04C102.482 28.4667 103.122 28.68 104.171 28.68L104.224 29H97.7178L97.7711 28.68C98.8378 28.68 99.4867 28.4667 99.7178 28.04C99.9489 27.5956 100.064 26.4311 100.064 24.5467V22.4133C100.064 19.7467 99.9311 18.1378 99.6645 17.5867C99.5756 17.3911 99.4156 17.2133 99.1845 17.0533C98.9711 16.8933 98.7311 16.7956 98.4645 16.76C98.2156 16.7244 97.8689 16.7067 97.4245 16.7067L97.3711 16.4133C98.9178 16.2178 100.438 16.12 101.931 16.12ZM118.248 9.37333V24.36C118.248 26.3333 118.364 27.5511 118.595 28.0133C118.826 28.4578 119.466 28.68 120.515 28.68L120.568 29H114.035L114.088 28.68C115.155 28.68 115.804 28.4578 116.035 28.0133C116.266 27.5689 116.381 26.3511 116.381 24.36V14.1733C116.381 12.2 116.275 11.0089 116.061 10.6C115.99 10.4756 115.857 10.3511 115.661 10.2267C115.466 10.1022 115.252 10.0311 115.021 10.0133C114.808 9.99555 114.497 9.98667 114.088 9.98667L114.035 9.69333C115.368 9.48 116.772 9.37333 118.248 9.37333ZM124.643 12.92C124.341 12.6178 124.189 12.2622 124.189 11.8533C124.189 11.4444 124.341 11.0889 124.643 10.7867C124.945 10.4844 125.301 10.3333 125.709 10.3333C126.118 10.3333 126.474 10.4844 126.776 10.7867C127.078 11.0889 127.229 11.4444 127.229 11.8533C127.229 12.2622 127.078 12.6178 126.776 12.92C126.474 13.2222 126.118 13.3733 125.709 13.3733C125.301 13.3733 124.945 13.2222 124.643 12.92ZM126.723 16.12V24.6C126.723 26.4667 126.829 27.6133 127.043 28.04C127.274 28.4667 127.914 28.68 128.963 28.68L129.016 29H122.509L122.563 28.68C123.629 28.68 124.278 28.4667 124.509 28.04C124.741 27.5956 124.856 26.4311 124.856 24.5467V22.68C124.856 20.6178 124.794 19.2578 124.669 18.6C124.563 17.9244 124.403 17.4889 124.189 17.2933C123.763 16.9022 123.105 16.7067 122.216 16.7067L122.163 16.4133C123.709 16.2178 125.229 16.12 126.723 16.12ZM134.52 16.3867H137.8V16.9733H134.52V27.1333C134.52 27.5067 134.609 27.8089 134.786 28.04C134.964 28.2533 135.195 28.36 135.48 28.36C136.12 28.36 136.875 28.1733 137.746 27.8L137.8 28.0933C136.555 28.8756 135.453 29.2667 134.493 29.2667C133.871 29.2667 133.409 29.1156 133.106 28.8133C132.804 28.5111 132.653 27.9867 132.653 27.24V16.9733H131.053V16.3867C132.013 16.3867 132.68 16.12 133.053 15.5867C133.444 15.0356 133.737 14.2267 133.933 13.16L134.52 13.1067V16.3867Z" fill="#000834"/>
</svg>
