<svg width="36" height="38" viewBox="0 0 36 38" fill="none" xmlns="http://www.w3.org/2000/svg">
<path d="M36 9.76374V2.40156C36 1.0773 34.4813 0 32.6144 0H3.3856C1.51873 0 0 1.0773 0 2.40156V9.76374C0 10.5871 0.587951 11.3142 1.48142 11.747C0.577293 12.3316 0 13.1651 0 14.0988V31.8188C0 33.5796 2.01964 35.0129 4.502 35.0129H4.66631V37.17C4.66631 37.5178 5.0633 37.8 5.55445 37.8H9.77579C10.1906 37.8 10.5503 37.5965 10.6426 37.3099L11.378 35.0129H24.622L25.3574 37.3099C25.4497 37.5965 25.8094 37.8 26.2242 37.8H30.4456C30.9367 37.8 31.3337 37.5178 31.3337 37.17V35.0129H31.498C33.9804 35.0129 36 33.5803 36 31.8188V14.0988C36 13.1651 35.4218 12.3316 34.5186 11.747C35.412 11.3142 36 10.5871 36 9.76374ZM9.06706 36.54H6.44259V35.0129H9.55554L9.06706 36.54ZM29.5565 36.54H26.9321L26.4436 35.0129H29.5565V36.54ZM34.2228 31.8188C34.2228 32.8854 32.9999 33.7529 31.4971 33.7529H4.50289C3.00015 33.7529 1.77718 32.8854 1.77718 31.8188V14.0988C1.77718 13.0322 3.00015 12.1647 4.50289 12.1647H31.498C33.0007 12.1647 34.2237 13.0322 34.2237 14.0988L34.2228 31.8188ZM4.50289 10.9047H3.3856C2.49835 10.9047 1.77629 10.3931 1.77629 9.76311V2.40156C1.77629 1.77219 2.49746 1.26 3.3856 1.26H32.6144C33.5017 1.26 34.2237 1.77156 34.2237 2.40156V9.76374C34.2237 10.3931 33.5025 10.9053 32.6144 10.9053L4.50289 10.9047Z" fill="#AB8A62"/>
<path d="M7.65052 15.3C5.91407 15.3 4.5 16.1362 4.5 17.1637V27.8364C4.5 28.8639 5.91407 29.7 7.65052 29.7C9.38697 29.7 10.8 28.8639 10.8 27.8364V17.1643C10.8 16.1368 9.38697 15.3007 7.65052 15.3007V15.3ZM8.70663 27.8364C8.70663 28.1814 8.23353 28.4613 7.65052 28.4613C7.06752 28.4613 6.59337 28.1808 6.59337 27.8364V17.1643C6.59337 16.8193 7.06752 16.5394 7.65052 16.5394C8.23353 16.5394 8.70663 16.8199 8.70663 17.1643V27.8364Z" fill="#AB8A62"/>
<path d="M7.65052 2.69995C5.91407 2.69995 4.5 3.54086 4.5 4.57425V7.12565C4.5 8.15904 5.91407 8.99995 7.65052 8.99995C9.38697 8.99995 10.8 8.15904 10.8 7.12565V4.57425C10.8 3.54086 9.38697 2.69995 7.65052 2.69995ZM8.70663 7.12565C8.70663 7.47198 8.23353 7.75415 7.65052 7.75415C7.06752 7.75415 6.59337 7.47198 6.59337 7.12565V4.57425C6.59337 4.2273 7.06752 3.94575 7.65052 3.94575C8.23353 3.94575 8.70663 4.22792 8.70663 4.57425V7.12565Z" fill="#AB8A62"/>
</svg>
