<svg width="52" height="13" viewBox="0 0 52 13" fill="none" xmlns="http://www.w3.org/2000/svg">
<g clip-path="url(#clip0_926_706)">
<path d="M0.3563 7.11079L3.88506 9.0646L5.81388 12.6391C5.93379 12.8612 6.16333 13 6.41343 13C6.66352 13 6.89307 12.8612 7.01298 12.6391L8.94181 9.0646L12.3164 7.19407H51.3148C51.6917 7.19407 52 6.88174 52 6.5C52 6.11826 51.6917 5.80593 51.3148 5.80593H12.3198L8.94523 3.9354L7.01641 0.360919C6.8965 0.138816 6.66696 0 6.41686 0C6.16677 0 5.93723 0.138816 5.81731 0.360919L3.88849 3.9354L0.359726 5.88922C0.140465 6.01068 0.0034256 6.24319 0.0034256 6.49653C0 6.75334 0.137039 6.98932 0.3563 7.11079ZM4.71758 5.05633C4.83406 4.99386 4.92656 4.89669 4.98823 4.7787L6.41343 2.14122L7.83864 4.7787C7.90031 4.89669 7.99623 4.99039 8.10929 5.05633L10.7165 6.5L8.10929 7.94367C7.99623 8.00614 7.90031 8.10331 7.83864 8.2213L6.41343 10.8623L4.98823 8.2213C4.92656 8.10331 4.83063 8.00961 4.71758 7.94367L2.1104 6.5L4.71758 5.05633Z" fill="#AB8A62"/>
</g>
<defs>
<clipPath id="clip0_926_706">
<rect width="52" height="13" fill="white" transform="matrix(-1 0 0 -1 52 13)"/>
</clipPath>
</defs>
</svg>
