<svg width="141" height="75" viewBox="0 0 141 75" fill="none" xmlns="http://www.w3.org/2000/svg">
<path d="M137.297 28.0753C130.404 14.8795 114.071 9.73884 100.866 16.6293C90.1143 22.2418 85.923 35.5579 91.5356 46.3093C93.7261 50.5058 97.6961 53.6547 102.451 54.9552C102.5 54.9684 102.548 54.9816 102.596 54.9948C109.827 56.9102 116.539 55.0757 120.53 50.0714C124.187 45.494 124.807 39.1735 122.092 33.9733C120.609 31.1314 117.939 28.9913 114.759 28.1111C114.74 28.1058 114.711 28.0979 114.691 28.0926C109.743 26.7393 105.143 27.9797 102.373 31.4C99.8189 34.5582 99.3808 38.9274 101.257 42.53C102.318 44.562 104.229 46.028 106.549 46.6831C109.971 47.588 113.174 46.6808 115.112 44.2562C116.906 42.0201 117.202 38.9287 115.877 36.379C115.368 35.3999 114.156 35.0166 113.177 35.5263C112.198 36.0361 111.814 37.2479 112.324 38.2271C112.915 39.3633 112.785 40.7481 111.982 41.7517C111.052 42.9176 109.445 43.2971 107.568 42.8046C106.348 42.4503 105.344 41.6883 104.803 40.6696C103.66 38.4805 103.93 35.8276 105.481 33.9088C107.264 31.7113 110.273 31.0206 113.687 31.9545C115.835 32.5524 117.554 33.9244 118.542 35.8117C120.52 39.6081 120.07 44.2124 117.403 47.5573C114.379 51.3335 109.358 52.635 103.618 51.1066C103.579 51.0961 103.541 51.0855 103.502 51.075C99.8176 50.0672 96.7557 47.654 95.0749 44.4367C90.4845 35.6339 93.9093 24.7415 102.702 20.1485C113.95 14.2775 127.868 18.6543 133.729 29.8988C138.9 39.8036 137.654 52.3183 130.623 61.0427C123.827 69.4787 113.382 72.5313 101.971 69.4105C88.4863 65.7226 81.2708 58.1406 73.6382 50.1127C64.8725 40.8833 55.7982 31.3415 36.8153 26.1499L-56.5364 0.61904C-57.5975 0.328857 -58.703 0.959556 -58.9932 2.02059C-59.2834 3.08162 -58.6527 4.18716 -57.5916 4.47735L35.7987 30.0187C53.7012 34.9149 62.3794 44.0477 70.7779 52.876C78.804 61.3225 86.3893 69.296 100.954 73.2794C113.774 76.7853 126.046 73.1543 133.77 63.5621C141.771 53.6412 143.193 39.3813 137.297 28.0753Z" fill="#F1F1F1"/>
</svg>
