<svg width="163" height="309" viewBox="0 0 163 309" fill="none" xmlns="http://www.w3.org/2000/svg">
<path opacity="0.7" d="M257.301 54.4372C238.587 41.5553 221.428 44.4266 210.261 53.9328C207.538 35.6188 198.355 20.6806 183.609 11.0968C163.921 -1.70745 135.363 -3.60868 114.196 6.4019C93.6527 16.1021 87.583 32.3596 90.2288 46.7546C72.9534 39.9257 55.4058 40.3913 39.6868 48.3455C18.7151 58.9769 2.76268 82.6453 0.895074 105.965C-0.933621 128.547 10.1553 141.933 23.9678 146.86C9.41601 158.384 1.05071 173.788 0.0779976 191.287C-1.16707 214.684 11.4003 240.293 30.6989 253.601C39.57 259.693 48.091 262.293 55.7948 262.254C64.3547 262.254 71.864 259.072 77.7392 254.067C80.4628 272.42 89.6451 287.358 104.391 296.942C115.675 304.275 129.838 308.039 143.883 308.039C154.35 308.039 164.777 305.943 173.804 301.675C194.348 291.975 200.417 275.679 197.772 261.284C205.787 264.465 213.88 266.056 221.817 266.056C230.96 266.056 239.909 263.922 248.314 259.693C269.246 249.062 285.199 225.393 287.105 202.074C288.934 179.492 277.845 166.106 264.033 161.178C278.584 149.654 286.95 134.25 287.922 116.751C289.167 93.3155 276.6 67.707 257.301 54.4372ZM143.922 201.375C129.838 189.58 116.181 180.035 102.835 177.629C106.026 159.548 107.504 142.98 102.913 130.254C120.188 123.968 135.324 116.984 144.078 106.663C158.163 118.458 171.82 128.042 185.165 130.409C181.975 148.49 180.496 165.058 185.087 177.746C167.773 184.032 152.677 191.054 143.922 201.375ZM120.85 20.409C134.818 13.8128 157.929 12.9592 175.127 24.095C188.978 33.0968 196.06 48.1515 195.554 67.5906C195.204 80.4336 192.052 95.9927 188.978 111.009C188.706 112.405 188.395 113.802 188.122 115.16C174.388 112.832 156.684 97.2344 139.448 82.0633C137.269 80.162 135.09 78.222 132.911 76.3208C134.312 75.894 135.752 75.4284 137.152 74.7687C155.361 66.5042 155.789 45.2414 155.789 44.349C155.828 40.0809 152.404 36.6277 148.163 36.5501C143.728 36.5889 140.343 39.8869 140.226 44.155C140.226 44.2714 139.837 56.5324 130.694 60.6841C121.433 64.8746 111.278 58.0068 107.154 49.1991C105.17 44.8922 100.267 30.1479 120.85 20.409ZM16.3806 107.206C17.6257 91.8411 28.4422 71.4319 46.7292 62.1973C61.4755 54.7088 78.0504 56.1444 94.7032 66.3102C105.675 73.0227 117.62 83.5377 129.137 93.7035C130.188 94.6347 131.277 95.5659 132.328 96.4971C123.457 107.167 101.045 114.695 79.2566 121.95C76.533 122.882 73.7705 123.774 71.008 124.744C71.3582 123.308 71.6306 121.834 71.7862 120.321C73.7316 100.455 55.4447 89.4742 54.6665 89.0086C50.9702 86.8358 46.1845 88.0386 44.0056 91.7247C41.8267 95.4107 43.0329 100.183 46.7292 102.356C46.8459 102.434 57.2344 108.836 56.2617 118.808C55.289 128.935 44.2779 134.25 34.5508 133.397C29.8429 132.97 14.5519 129.866 16.3806 107.206ZM71.3971 238.236C68.6735 242.116 58.3239 253.756 39.57 240.836C26.847 232.067 14.5519 212.55 15.6414 192.141C16.5363 175.651 26.0688 162.032 43.1885 152.758C54.5109 146.628 69.6073 141.584 84.198 136.733C85.5598 136.268 86.8826 135.841 88.2444 135.375C93.0691 148.374 88.4001 171.499 83.8089 193.965C83.2253 196.797 82.6416 199.629 82.0969 202.462C81.0464 201.453 79.918 200.483 78.6341 199.552C62.3703 187.95 43.6554 198.233 42.8772 198.659C39.142 200.755 37.8581 205.45 39.9202 209.174C41.9823 212.899 46.7292 214.257 50.4644 212.201C50.5811 212.123 61.3976 206.342 69.5684 212.162C77.8948 218.06 76.9999 230.282 71.3971 238.236ZM167.151 287.629C153.183 294.226 130.071 295.079 112.873 283.943C99.0221 274.942 91.9407 259.887 92.4465 240.448C92.7967 227.605 95.9483 212.046 99.0221 197.03C99.2944 195.633 99.5668 194.275 99.8781 192.878C113.613 195.206 131.316 210.804 148.514 225.975C150.692 227.876 152.871 229.816 155.05 231.718C153.649 232.144 152.21 232.61 150.809 233.27C132.6 241.534 132.172 262.797 132.172 263.689C132.133 267.957 135.596 271.488 139.876 271.527C144.195 271.488 147.697 268.113 147.735 263.845C147.735 263.728 148.124 251.545 157.268 247.393C166.528 243.203 176.683 250.07 180.808 258.878C182.831 263.107 187.772 277.89 167.151 287.629ZM271.62 200.793C270.375 216.159 259.558 236.568 241.271 245.802C226.525 253.291 209.95 251.855 193.297 241.689C182.325 234.977 170.38 224.462 158.863 214.296C157.813 213.365 156.723 212.434 155.673 211.502C164.544 200.832 186.955 193.305 208.744 186.049C211.467 185.118 214.23 184.226 216.992 183.294C216.642 184.73 216.37 186.166 216.214 187.718C214.308 207.584 232.556 218.564 233.334 219.03C237.03 221.203 241.816 220 243.995 216.314C246.174 212.628 244.967 207.855 241.271 205.682C241.154 205.605 230.766 199.203 231.739 189.231C232.711 179.104 243.761 173.788 253.488 174.642C258.157 175.03 273.448 178.173 271.62 200.793ZM272.398 115.897C271.503 132.388 261.97 146.007 244.851 155.28C233.528 161.411 218.432 166.455 203.841 171.305C202.48 171.771 201.157 172.197 199.795 172.663C194.97 159.665 199.639 136.539 204.23 114.074C204.814 111.241 205.398 108.409 205.942 105.577C206.993 106.585 208.121 107.555 209.405 108.487C225.669 120.088 244.345 109.806 245.123 109.379C248.858 107.284 250.142 102.589 248.08 98.864C246.018 95.1391 241.271 93.7811 237.536 95.8375C237.419 95.9151 226.564 101.658 218.432 95.8763C210.144 89.9786 211.039 77.7564 216.642 69.8023C219.366 65.9222 229.715 54.282 248.469 67.2026C261.153 75.9716 273.487 95.4883 272.398 115.897Z" fill="#EBEBEB"/>
</svg>
