<svg width="52" height="13" viewBox="0 0 52 13" fill="none" xmlns="http://www.w3.org/2000/svg">
<g clip-path="url(#clip0_926_625)">
<path d="M51.6437 7.11079L48.1149 9.0646L46.1861 12.6391C46.0662 12.8612 45.8367 13 45.5866 13C45.3365 13 45.1069 12.8612 44.987 12.6391L43.0582 9.0646L39.6836 7.19407H0.685196C0.308338 7.19407 0 6.88174 0 6.5C0 6.11826 0.308338 5.80593 0.685196 5.80593H39.6802L43.0548 3.9354L44.9836 0.360919C45.1035 0.138816 45.333 0 45.5831 0C45.8332 0 46.0628 0.138816 46.1827 0.360919L48.1115 3.9354L51.6403 5.88922C51.8595 6.01068 51.9966 6.24319 51.9966 6.49653C52 6.75334 51.863 6.98932 51.6437 7.11079ZM47.2824 5.05633C47.1659 4.99386 47.0734 4.89669 47.0118 4.7787L45.5866 2.14122L44.1614 4.7787C44.0997 4.89669 44.0038 4.99039 43.8907 5.05633L41.2835 6.5L43.8907 7.94367C44.0038 8.00614 44.0997 8.10331 44.1614 8.2213L45.5866 10.8623L47.0118 8.2213C47.0734 8.10331 47.1694 8.00961 47.2824 7.94367L49.8896 6.5L47.2824 5.05633Z" fill="#AB8A62"/>
</g>
<defs>
<clipPath id="clip0_926_625">
<rect width="52" height="13" fill="white" transform="matrix(1 0 0 -1 0 13)"/>
</clipPath>
</defs>
</svg>
