<svg width="146" height="114" viewBox="0 0 146 114" fill="none" xmlns="http://www.w3.org/2000/svg">
<g opacity="0.2" clip-path="url(#clip0_926_1036)">
<path opacity="0.74" d="M135.297 60.0753C128.404 46.8795 112.071 41.7388 98.8657 48.6293C88.1143 54.2418 83.923 67.5579 89.5356 78.3093C91.7261 82.5058 95.6961 85.6547 100.451 86.9552C100.5 86.9684 100.548 86.9816 100.596 86.9948C107.827 88.9102 114.539 87.0757 118.53 82.0714C122.187 77.494 122.807 71.1735 120.092 65.9733C118.609 63.1314 115.939 60.9913 112.759 60.1111C112.74 60.1058 112.711 60.0979 112.691 60.0926C107.743 58.7393 103.143 59.9797 100.373 63.4C97.8189 66.5582 97.3808 70.9274 99.2569 74.53C100.318 76.562 102.229 78.028 104.549 78.6831C107.971 79.588 111.174 78.6808 113.112 76.2562C114.906 74.0201 115.202 70.9287 113.877 68.379C113.368 67.3999 112.156 67.0166 111.177 67.5263C110.198 68.0361 109.814 69.2479 110.324 70.2271C110.915 71.3633 110.785 72.7481 109.982 73.7517C109.052 74.9176 107.445 75.2971 105.568 74.8046C104.348 74.4503 103.344 73.6883 102.803 72.6696C101.66 70.4805 101.93 67.8276 103.481 65.9088C105.264 63.7113 108.273 63.0206 111.687 63.9545C113.835 64.5524 115.554 65.9244 116.542 67.8117C118.52 71.6081 118.07 76.2124 115.403 79.5573C112.379 83.3335 107.358 84.635 101.618 83.1066C101.579 83.0961 101.541 83.0855 101.502 83.075C97.8176 82.0672 94.7557 79.654 93.0749 76.4367C88.4845 67.6339 91.9093 56.7415 100.702 52.1485C111.95 46.2775 125.868 50.6543 131.729 61.8988C136.9 71.8036 135.654 84.3183 128.623 93.0427C121.827 101.479 111.382 104.531 99.9711 101.411C86.4863 97.7226 79.2708 90.1406 71.6382 82.1127C62.8725 72.8833 53.7982 63.3415 34.8153 58.1499L-58.5364 32.619C-59.5975 32.3289 -60.703 32.9596 -60.9932 34.0206C-61.2834 35.0816 -60.6527 36.1872 -59.5916 36.4773L33.7987 62.0187C51.7012 66.9149 60.3794 76.0477 68.7779 84.876C76.804 93.3225 84.3893 101.296 98.9544 105.279C111.774 108.785 124.046 105.154 131.77 95.5621C139.771 85.6412 141.193 71.3813 135.297 60.0753Z" fill="#65676B"/>
</g>
<defs>
<clipPath id="clip0_926_1036">
<rect width="204.83" height="61.83" fill="white" transform="translate(-51.689) rotate(15.2958)"/>
</clipPath>
</defs>
</svg>
