<svg width="52" height="52" viewBox="0 0 52 52" fill="none" xmlns="http://www.w3.org/2000/svg">
<path d="M24.2766 5.50678L13.7027 11.7732C13.2513 12.045 12.8677 12.4162 12.5811 12.8585C12.2946 13.3008 12.1126 13.8025 12.049 14.3257C11.9854 14.8488 12.0419 15.3796 12.2142 15.8777C12.3864 16.3757 12.6699 16.828 13.0431 17.2001C13.3439 17.502 13.7003 17.7429 14.0925 17.9096V21.0179C14.0927 21.1598 14.1231 21.3 14.1817 21.4292C14.2403 21.5585 14.3257 21.6738 14.4323 21.7674C14.5381 21.86 14.6622 21.9292 14.7965 21.9705C14.9308 22.0118 15.0724 22.0244 15.2119 22.0073C22.4197 21.1078 29.7115 21.1078 36.9194 22.0073H37.0293C37.2944 22.0073 37.5486 21.902 37.736 21.7146C37.9234 21.5271 38.0287 21.2729 38.0287 21.0079V17.9096C38.6091 17.6522 39.1074 17.24 39.469 16.7181C39.8306 16.1962 40.0415 15.5849 40.0787 14.9511C40.1158 14.3172 39.9778 13.6854 39.6797 13.1249C39.3815 12.5643 38.9348 12.0967 38.3885 11.7732L27.7946 5.50678C27.2615 5.19303 26.6542 5.02759 26.0356 5.02759C25.4171 5.02759 24.8097 5.19303 24.2766 5.50678ZM16.0414 19.9285V18.1495C22.6736 17.2465 29.3976 17.2465 36.0299 18.1495V19.9285C29.3877 19.1859 22.6835 19.1859 16.0414 19.9285ZM38.0287 14.7515C38.029 15.1283 37.8836 15.4906 37.6228 15.7626C37.362 16.0346 37.006 16.1951 36.6295 16.2106C29.5755 15.2112 22.4158 15.2112 15.3618 16.2106C14.9857 16.2016 14.6276 16.0476 14.3623 15.7809C14.2285 15.6507 14.1216 15.4955 14.0479 15.324C13.9742 15.1525 13.935 14.9681 13.9326 14.7814C13.9333 14.5272 14 14.2775 14.1262 14.0568C14.2523 13.8361 14.4335 13.6519 14.6522 13.5222L25.2861 7.22579C25.5136 7.09323 25.7723 7.02338 26.0356 7.02338C26.299 7.02338 26.5576 7.09323 26.7852 7.22579L37.3491 13.4922C37.5603 13.6268 37.7337 13.8131 37.8526 14.0335C37.9715 14.2539 38.0322 14.501 38.0287 14.7515Z" fill="#AB8A62"/>
<path d="M36.4296 24.0162C36.5908 23.8066 36.6623 23.5417 36.6286 23.2794C36.5949 23.0172 36.4586 22.779 36.2497 22.617C36.1456 22.5356 36.0264 22.4757 35.899 22.4407C35.7716 22.4056 35.6386 22.3962 35.5075 22.413C35.3765 22.4297 35.2501 22.4722 35.1356 22.5381C35.0211 22.604 34.9208 22.692 34.8405 22.7969C34.7006 22.9968 31.1526 27.5341 25.4059 27.2143C23.8126 27.0847 22.2634 26.6261 20.8563 25.8675C19.4492 25.1089 18.2146 24.0667 17.2306 22.8069C17.1519 22.7019 17.0532 22.6134 16.9403 22.5465C16.8273 22.4797 16.7023 22.4357 16.5724 22.4171C16.4425 22.3986 16.3102 22.4058 16.183 22.4384C16.0559 22.4709 15.9364 22.5282 15.8314 22.607C15.7264 22.6857 15.638 22.7844 15.5711 22.8973C15.5042 23.0103 15.4602 23.1353 15.4417 23.2652C15.4231 23.3951 15.4303 23.5274 15.4629 23.6546C15.4955 23.7817 15.5528 23.9012 15.6315 24.0062C16.7828 25.5072 18.2396 26.7466 19.9057 27.6425C21.5717 28.5384 23.409 29.0704 25.296 29.2032H26.0156C28.0246 29.1502 29.9978 28.6584 31.7967 27.7624C33.5957 26.8664 35.1769 25.5878 36.4296 24.0162Z" fill="#AB8A62"/>
<path d="M51.371 15.3811L47.1734 12.6926L46.9436 17.6898L48.2628 17.0201C50.1895 21.783 50.5359 27.0385 49.2512 32.0131C47.9664 36.9876 45.1183 41.4181 41.1263 44.6523C37.1342 47.8865 32.2092 49.7534 27.0764 49.9782C21.9436 50.203 16.8742 48.7737 12.6148 45.9009C8.35528 43.028 5.1308 38.8634 3.4161 34.0203C1.7014 29.1771 1.5871 23.9114 3.09003 18.9984C4.59296 14.0854 7.63369 9.78475 11.7645 6.72978C15.8953 3.67481 20.8979 2.02693 26.0356 2.02877C26.3007 2.02877 26.5549 1.92347 26.7423 1.73604C26.9297 1.54861 27.035 1.2944 27.035 1.02934C27.035 0.764277 26.9297 0.510069 26.7423 0.322641C26.5549 0.135212 26.3007 0.0299155 26.0356 0.0299155C20.46 0.0254603 15.0308 1.81451 10.5501 5.13277C6.06945 8.45103 2.7749 13.1225 1.1532 18.4571C-0.468496 23.7916 -0.331333 29.5063 1.54443 34.7569C3.42019 40.0075 6.93506 44.5156 11.5698 47.615C16.2045 50.7145 21.7133 52.241 27.2822 51.9691C32.8512 51.6971 38.185 49.6411 42.4957 46.1049C46.8064 42.5686 49.8653 37.7395 51.2206 32.3311C52.5758 26.9227 52.1555 21.2219 50.0218 16.0707L51.371 15.3811Z" fill="#AB8A62"/>
<path d="M38.0286 5.21716C38.1799 5.30699 38.3523 5.35526 38.5283 5.35708C38.7496 5.35863 38.9651 5.28669 39.1411 5.15254C39.3171 5.01839 39.4436 4.82963 39.5008 4.61584C39.558 4.40206 39.5426 4.17534 39.457 3.97126C39.3714 3.76718 39.2206 3.59726 39.028 3.48816L38.1785 3.02842C38.0621 2.96371 37.9339 2.92293 37.8014 2.90848C37.669 2.89403 37.535 2.90621 37.4073 2.94429C37.2797 2.98237 37.1609 3.04559 37.058 3.13023C36.9552 3.21487 36.8703 3.31922 36.8083 3.43715C36.7463 3.55508 36.7086 3.68421 36.6972 3.81695C36.6859 3.94968 36.7012 4.08335 36.7423 4.21008C36.7833 4.33681 36.8493 4.45406 36.9363 4.55492C37.0234 4.65578 37.1297 4.73823 37.249 4.79741L38.0286 5.21716Z" fill="#AB8A62"/>
<path d="M32.4618 2.89825C32.5512 2.9128 32.6423 2.9128 32.7317 2.89825C32.8629 2.91531 32.9963 2.90635 33.124 2.87189C33.2518 2.83743 33.3716 2.77813 33.4764 2.69739C33.5813 2.61665 33.6693 2.51605 33.7352 2.40132C33.8012 2.2866 33.844 2.15999 33.861 2.02875C33.8781 1.8975 33.8691 1.76418 33.8347 1.6364C33.8002 1.50861 33.7409 1.38886 33.6602 1.28399C33.5794 1.17912 33.4788 1.09118 33.3641 1.02519C33.2494 0.959206 33.1228 0.91646 32.9915 0.899398L32.0921 0.66953C31.827 0.608566 31.5486 0.655394 31.318 0.799714C31.0875 0.944034 30.9237 1.17402 30.8628 1.43909C30.8018 1.70415 30.8486 1.98258 30.9929 2.21311C31.1373 2.44365 31.3673 2.60742 31.6323 2.66838C31.9122 2.74833 32.192 2.81829 32.4618 2.89825Z" fill="#AB8A62"/>
<path d="M42.7859 8.84473C42.9736 9.02571 43.2247 9.12614 43.4854 9.12457C43.6177 9.12402 43.7485 9.09724 43.8703 9.04577C43.9921 8.9943 44.1025 8.91918 44.195 8.82474C44.3812 8.63749 44.4857 8.38418 44.4857 8.12015C44.4857 7.85611 44.3812 7.60281 44.195 7.41555L43.5154 6.77592C43.418 6.68668 43.3038 6.61764 43.1795 6.57281C43.0552 6.52799 42.9232 6.50826 42.7912 6.51476C42.6593 6.52127 42.5299 6.55388 42.4106 6.61072C42.2913 6.66755 42.1845 6.74748 42.0962 6.84588C41.9191 7.04223 41.827 7.30079 41.8401 7.56493C41.8532 7.82906 41.9705 8.07723 42.1662 8.25507L42.7859 8.84473Z" fill="#AB8A62"/>
<path d="M17.0408 40.007C17.3059 40.007 17.5601 39.9018 17.7475 39.7143C17.935 39.5269 18.0403 39.2727 18.0403 39.0076V35.0099C18.0403 34.7449 17.935 34.4907 17.7475 34.3032C17.5601 34.1158 17.3059 34.0105 17.0408 34.0105H13.0431C12.7781 34.0105 12.5239 34.1158 12.3364 34.3032C12.149 34.4907 12.0437 34.7449 12.0437 35.0099C12.0437 35.275 12.149 35.5292 12.3364 35.7166C12.5239 35.9041 12.7781 36.0093 13.0431 36.0093H16.0414V38.0082H13.0431C12.7781 38.0082 12.5239 38.1135 12.3364 38.3009C12.149 38.4884 12.0437 38.7426 12.0437 39.0076V42.0059C12.0437 42.271 12.149 42.5252 12.3364 42.7126C12.5239 42.9 12.7781 43.0053 13.0431 43.0053H17.0408C17.3059 43.0053 17.5601 42.9 17.7475 42.7126C17.935 42.5252 18.0403 42.271 18.0403 42.0059C18.0403 41.7408 17.935 41.4866 17.7475 41.2992C17.5601 41.1118 17.3059 41.0065 17.0408 41.0065H14.0426V40.007H17.0408Z" fill="#AB8A62"/>
<path d="M25.0362 43.0053C25.3013 43.0053 25.5555 42.9 25.7429 42.7126C25.9303 42.5252 26.0356 42.271 26.0356 42.0059V37.0088C26.0356 36.7437 25.9303 36.4895 25.7429 36.3021C25.5555 36.1146 25.3013 36.0093 25.0362 36.0093C24.7711 36.0093 24.5169 36.1146 24.3295 36.3021C24.1421 36.4895 24.0368 36.7437 24.0368 37.0088V38.0082H22.0379V35.0099C22.0379 34.7449 21.9326 34.4907 21.7452 34.3032C21.5578 34.1158 21.3036 34.0105 21.0385 34.0105C20.7734 34.0105 20.5192 34.1158 20.3318 34.3032C20.1444 34.4907 20.0391 34.7449 20.0391 35.0099V39.0076C20.0391 39.2727 20.1444 39.5269 20.3318 39.7143C20.5192 39.9018 20.7734 40.007 21.0385 40.007H24.0368V42.0059C24.0368 42.271 24.1421 42.5252 24.3295 42.7126C24.5169 42.9 24.7711 43.0053 25.0362 43.0053Z" fill="#AB8A62"/>
<path d="M37.6389 42.9254C37.7621 42.9779 37.8947 43.0051 38.0286 43.0053C38.2248 43.0052 38.4166 42.9473 38.5801 42.8389C38.7436 42.7305 38.8716 42.5763 38.9481 42.3957L41.9464 35.3997C42.0107 35.2478 42.0364 35.0823 42.0213 34.9181C42.0061 34.7538 41.9506 34.5959 41.8595 34.4583C41.7685 34.3208 41.6448 34.2079 41.4995 34.1297C41.3542 34.0516 41.1919 34.0106 41.0269 34.0105H37.0292C36.7641 34.0105 36.5099 34.1158 36.3225 34.3032C36.1351 34.4907 36.0298 34.7449 36.0298 35.0099C36.0298 35.275 36.1351 35.5292 36.3225 35.7166C36.5099 35.9041 36.7641 36.0093 37.0292 36.0093H39.5078L37.1092 41.6161C37.006 41.86 37.0038 42.1349 37.1031 42.3803C37.2025 42.6258 37.3951 42.8218 37.6389 42.9254Z" fill="#AB8A62"/>
<path d="M33.1117 30.6224L27.1151 44.6143C27.0119 44.8582 27.0098 45.133 27.1091 45.3785C27.2084 45.624 27.4011 45.82 27.6448 45.9235C27.7681 45.9761 27.9006 46.0032 28.0346 46.0035C28.2308 46.0033 28.4225 45.9455 28.586 45.837C28.7496 45.7286 28.8775 45.5745 28.954 45.3939L34.9506 31.4019C35.0421 31.1603 35.0366 30.8926 34.9351 30.6551C34.8335 30.4175 34.644 30.2284 34.4061 30.1276C34.1682 30.0268 33.9005 30.022 33.6592 30.1142C33.4179 30.2064 33.2216 30.3886 33.1117 30.6224Z" fill="#AB8A62"/>
</svg>
