<svg width="184" height="99" viewBox="0 0 184 99" fill="none" xmlns="http://www.w3.org/2000/svg">
<g opacity="0.1" clip-path="url(#clip0_926_1130)">
<path d="M174.842 52.6222C168.913 41.2734 154.867 36.8522 143.51 42.7782C134.263 47.6052 130.658 59.0574 135.485 68.304C137.369 71.9132 140.784 74.6213 144.873 75.7398C144.915 75.7511 144.956 75.7625 144.998 75.7738C151.217 77.4211 156.989 75.8434 160.422 71.5396C163.567 67.6029 164.1 62.167 161.765 57.6946C160.49 55.2506 158.194 53.4099 155.458 52.6529C155.442 52.6484 155.417 52.6416 155.4 52.6371C151.145 51.4732 147.188 52.54 144.806 55.4815C142.609 58.1977 142.233 61.9554 143.846 65.0537C144.759 66.8013 146.403 68.0621 148.397 68.6255C151.341 69.4038 154.095 68.6235 155.762 66.5383C157.305 64.6152 157.559 61.9565 156.42 59.7637C155.982 58.9215 154.94 58.5919 154.098 59.0303C153.255 59.4687 152.926 60.5109 153.364 61.3531C153.873 62.3302 153.761 63.5212 153.07 64.3844C152.27 65.387 150.888 65.7134 149.274 65.2898C148.225 64.9851 147.361 64.3298 146.896 63.4537C145.913 61.571 146.145 59.2894 147.479 57.6392C149.012 55.7493 151.6 55.1552 154.536 55.9584C156.384 56.4726 157.863 57.6526 158.711 59.2757C160.413 62.5408 160.026 66.5006 157.732 69.3774C155.132 72.625 150.813 73.7444 145.877 72.4299C145.844 72.4208 145.81 72.4117 145.777 72.4027C142.608 71.536 139.975 69.4606 138.529 66.6935C134.582 59.1228 137.527 49.755 145.089 45.8048C154.762 40.7557 166.733 44.5198 171.773 54.1905C176.22 62.7089 175.149 73.472 169.102 80.9752C163.257 88.2305 154.274 90.8558 144.46 88.1719C132.863 85.0001 126.657 78.4793 120.093 71.5751C112.554 63.6375 104.75 55.4312 88.4242 50.9662L8.13872 29.0089C7.22619 28.7593 6.27539 29.3018 6.02582 30.2143C5.77626 31.1268 6.31868 32.0776 7.2312 32.3272L87.5499 54.2936C102.947 58.5045 110.41 66.359 117.633 73.9516C124.536 81.2159 131.06 88.0733 143.586 91.4992C154.611 94.5144 165.166 91.3916 171.809 83.142C178.689 74.6097 179.913 62.3457 174.842 52.6222Z" fill="#65676B"/>
</g>
<defs>
<clipPath id="clip0_926_1130">
<rect width="176.16" height="53.1758" fill="white" transform="translate(14.0278 0.955566) rotate(15.2958)"/>
</clipPath>
</defs>
</svg>
