<svg width="86" height="86" viewBox="0 0 86 86" fill="none" xmlns="http://www.w3.org/2000/svg">
<g opacity="0.04" clip-path="url(#clip0_926_1128)">
<path d="M13.8065 50.3056C6.88975 58.1982 8.48385 66.0909 9.4295 68.9858C12.6177 78.7629 23.4521 86.0001 33.7192 86.0001C35.2592 86.0001 36.7993 85.8362 38.2853 85.5085C41.2303 84.8258 48.7685 82.1493 51.8756 72.0445C56.0095 75.7861 60.1163 77.0696 63.4395 77.3427C70.7616 77.9163 78.0836 73.7378 82.8929 66.1182C83.001 65.9544 83.082 65.7905 83.1901 65.5993C87.1618 57.5155 86.9727 49.0766 82.6767 42.9591C80.7584 40.2281 77.5432 37.3332 72.2206 35.6673C79.1913 27.7746 77.5702 19.8547 76.6246 16.9598C72.923 5.73525 59.1706 -2.10279 47.7418 0.518991C44.7968 1.20175 37.2586 3.87815 34.1515 13.9283C29.9906 10.1322 25.8568 8.84862 22.5335 8.60283C15.2655 8.05662 7.80838 12.3716 3.10716 19.882C2.99909 20.0458 2.91803 20.2097 2.83697 20.3735C-1.10773 28.3208 -0.918601 36.9782 3.29629 43.0138C5.21461 45.7448 8.45683 48.6397 13.8065 50.3056ZM12.3745 25.4806C14.4009 22.3399 17.8593 19.1992 21.7229 19.4723C25.9378 19.8 30.1527 24.3608 33.6381 32.3628C34.7188 34.848 37.4207 36.1316 40.0415 35.4215C42.6353 34.6841 44.2834 32.1716 43.9592 29.4679C43.1756 23.3231 42.9595 12.8086 50.1464 11.1427C56.0905 9.77717 64.4392 14.5292 66.3575 20.4009C68.6541 27.4469 59.6029 32.6905 53.9831 35.203C51.5244 36.2954 50.2275 39.0538 50.957 41.6755C51.6595 44.2973 54.1722 45.9906 56.847 45.6355C65.3579 44.5431 71.41 45.854 73.8417 49.3224C76.0572 52.4904 75.2196 57.1058 73.6255 60.4923C71.5721 63.6057 68.0597 66.7464 64.2771 66.4459C60.0892 66.1182 55.8473 61.5574 52.389 53.6101C51.3082 51.1249 48.6064 49.814 45.9856 50.5514C43.3918 51.2888 41.7437 53.8013 42.0679 56.505C42.8514 62.6498 43.0676 73.2189 35.9077 74.8575C29.9366 76.223 21.6149 71.4437 19.6965 65.572C17.4 58.4987 26.4242 53.2551 32.044 50.7699C34.5027 49.6775 35.7996 46.9191 35.0701 44.2973C34.4216 41.9213 32.2602 40.31 29.8825 40.31C29.6664 40.31 29.4232 40.3373 29.2071 40.3647C20.6422 41.4571 14.59 40.1462 12.1584 36.6778C9.88881 33.4825 10.7804 28.867 12.3745 25.4806Z" fill="#000834"/>
</g>
<defs>
<clipPath id="clip0_926_1128">
<rect width="86" height="86" fill="white"/>
</clipPath>
</defs>
</svg>
