<svg width="101" height="193" viewBox="0 0 101 193" fill="none" xmlns="http://www.w3.org/2000/svg">
<g opacity="0.03">
<path d="M4.5 0C-48.7148 0 -92 43.2852 -92 96.5C-92 149.715 -48.7148 193 4.5 193C57.7148 193 101 149.715 101 96.5C101 43.2852 57.6892 0 4.5 0ZM4.5 182.737C-43.0444 182.737 -81.7368 144.044 -81.7368 96.5C-81.7368 48.9556 -43.0444 10.2632 4.5 10.2632C52.0444 10.2632 90.7368 48.9556 90.7368 96.5C90.7368 144.044 52.0444 182.737 4.5 182.737Z" fill="#000834"/>
<path d="M4.50002 43.7983C-24.5449 43.7983 -48.2017 67.4294 -48.2017 96.5C-48.2017 125.545 -24.5706 149.202 4.50002 149.202C33.5449 149.202 57.2017 125.571 57.2017 96.5C57.176 67.4294 33.5449 43.7983 4.50002 43.7983ZM4.50002 138.913C-18.9001 138.913 -37.9384 119.875 -37.9384 96.4743C-37.9384 73.0742 -18.9001 54.0359 4.50002 54.0359C27.9002 54.0359 46.9385 73.0742 46.9385 96.4743C46.9128 119.9 27.9002 138.913 4.50002 138.913Z" fill="#000834"/>
<path d="M4.49986 22.7329C-36.1682 22.7329 -69.2671 55.8318 -69.2671 96.4999C-69.2671 137.168 -36.1682 170.267 4.49986 170.267C45.1679 170.267 78.2668 137.168 78.2668 96.4999C78.2668 55.8062 45.1679 22.7329 4.49986 22.7329ZM4.49986 160.004C-30.5234 160.004 -59.0039 131.523 -59.0039 96.4999C-59.0039 61.4766 -30.5234 32.9961 4.49986 32.9961C39.5231 32.9961 68.0036 61.4766 68.0036 96.4999C68.0036 131.497 39.4975 160.004 4.49986 160.004Z" fill="#000834"/>
<path d="M4.49991 76.9741C-6.27648 76.9741 -15.0259 85.7235 -15.0259 96.4999C-15.0259 107.276 -6.27648 116.026 4.49991 116.026C15.2763 116.026 24.0257 107.276 24.0257 96.4999C24 85.7235 15.2763 76.9741 4.49991 76.9741Z" fill="#000834"/>
</g>
</svg>
