<svg width="34" height="34" viewBox="0 0 34 34" fill="none" xmlns="http://www.w3.org/2000/svg">
<path d="M11.4088 17.9136L25.1721 11.6493C27.3792 10.6448 26.1979 7.44277 24.0455 7.83567C22.3133 4.47752 19.0933 3.05616 15.7547 3.62089C11.7656 -2.81555 1.23633 -0.224494 1.23633 7.87009V33.4332C1.23633 33.7461 1.49004 33.9998 1.80297 33.9998C2.1159 33.9998 2.36962 33.7461 2.36962 33.4332V7.87009C2.36962 1.0955 11.0682 -1.19473 14.5868 3.90202C13.8473 4.13371 13.1351 4.46052 12.4835 4.86468C9.90492 1.91112 4.61027 3.54801 4.61027 7.87009V33.4332C4.61027 33.7461 4.86398 33.9998 5.17691 33.9998C5.48984 33.9998 5.74356 33.7461 5.74356 33.4332V7.87009C5.74356 4.62102 9.68067 3.47768 11.5572 5.52496C8.94786 7.65278 7.86458 11.0131 9.27283 14.5594C7.5746 15.9156 9.1799 18.9282 11.4088 17.9136ZM10.2196 15.301C10.5044 15.1714 10.6303 14.8353 10.5006 14.5505C6.74517 6.29949 18.8907 0.580211 22.9817 8.24719L11.8188 13.328C11.534 13.4577 11.4082 13.7936 11.5378 14.0785C11.6675 14.3633 12.0036 14.4891 12.2883 14.3594C12.3314 14.3398 23.9908 9.03306 23.9829 9.0366C25.0593 8.55821 25.7501 10.141 24.7026 10.6177L10.9393 16.8821C9.88303 17.3628 9.1634 15.7818 10.2196 15.301Z" fill="#AB8A62"/>
<path d="M20.1978 18.5882L19.6709 17.1971C19.5601 16.9045 19.2329 16.7571 18.9403 16.8679C18.6477 16.9788 18.5003 17.3059 18.6111 17.5985L19.1379 18.9896C19.2486 19.2818 19.5755 19.4297 19.8686 19.3188C20.1612 19.2079 20.3086 18.8808 20.1978 18.5882Z" fill="#AB8A62"/>
<path d="M24.2137 29.1909L23.2099 26.5402C23.0991 26.2475 22.7717 26.1001 22.4794 26.211C22.1867 26.3218 22.0393 26.6489 22.1502 26.9415L23.154 29.5922C23.2648 29.8849 23.592 30.0322 23.8845 29.9214C24.1772 29.8106 24.3246 29.4835 24.2137 29.1909Z" fill="#AB8A62"/>
<path d="M22.206 23.8895L21.2022 21.2389C21.0914 20.9462 20.7642 20.7988 20.4716 20.9097C20.1789 21.0205 20.0315 21.3476 20.1424 21.6403L21.1462 24.2909C21.2568 24.5832 21.5837 24.7311 21.8768 24.6202C22.1694 24.5093 22.3168 24.1822 22.206 23.8895Z" fill="#AB8A62"/>
<path d="M25.2178 31.8415C25.107 31.5488 24.7797 31.4014 24.4872 31.5122C24.1945 31.6231 24.0471 31.9502 24.158 32.2428L24.6848 33.6339C24.7706 33.8605 24.9861 33.9999 25.2148 33.9999C25.6095 33.9999 25.8853 33.6038 25.7447 33.2325L25.2178 31.8415Z" fill="#AB8A62"/>
<path d="M15.9444 20.5936L15.702 19.1261C15.651 18.8173 15.3592 18.6085 15.0506 18.6594C14.7418 18.7104 14.5328 19.002 14.5839 19.3108L14.8262 20.7783C14.8771 21.0863 15.168 21.2962 15.4777 21.245C15.7864 21.194 15.9954 20.9024 15.9444 20.5936Z" fill="#AB8A62"/>
<path d="M17.0972 27.5788L16.5203 24.0862C16.4693 23.7775 16.1779 23.5684 15.8689 23.6195C15.5602 23.6705 15.3511 23.9621 15.4022 24.2709L15.9791 27.7635C16.0298 28.071 16.3202 28.2814 16.6305 28.2302C16.9392 28.1792 17.1482 27.8876 17.0972 27.5788Z" fill="#AB8A62"/>
<path d="M17.6746 31.0713C17.6236 30.7625 17.3319 30.5536 17.0232 30.6046C16.7144 30.6556 16.5055 30.9472 16.5565 31.256L16.7989 32.7236C16.8447 33.0011 17.0849 33.198 17.3572 33.198C17.7089 33.198 17.9737 32.8828 17.917 32.5389L17.6746 31.0713Z" fill="#AB8A62"/>
<path d="M11.3302 20.4015C11.018 20.3854 10.7507 20.6243 10.7338 20.9368L10.5809 23.7659C10.5634 24.0904 10.8217 24.3631 11.1472 24.3631C11.4462 24.3631 11.6962 24.1292 11.7125 23.8271L11.8654 20.998C11.8824 20.6854 11.6427 20.4184 11.3302 20.4015Z" fill="#AB8A62"/>
<path d="M10.9904 26.691C10.6777 26.6745 10.4109 26.9138 10.394 27.2263L10.2411 30.0554C10.2235 30.3799 10.4818 30.6526 10.8074 30.6526C11.1063 30.6526 11.3564 30.4187 11.3727 30.1166L11.5256 27.2875C11.5426 26.9749 11.303 26.7078 10.9904 26.691Z" fill="#AB8A62"/>
<path d="M22.9378 15.0575C22.6804 15.2355 22.616 15.5885 22.794 15.8459L23.64 17.0693C23.8182 17.3271 24.1714 17.3908 24.4283 17.2131C24.6857 17.0351 24.7501 16.6822 24.5721 16.4248L23.7261 15.2013C23.5482 14.9439 23.1952 14.8795 22.9378 15.0575Z" fill="#AB8A62"/>
<path d="M26.6558 19.4396C26.4778 19.1823 26.125 19.1178 25.8674 19.2958C25.61 19.4738 25.5457 19.8267 25.7236 20.0841L27.8084 23.0989C27.9184 23.258 28.0952 23.3433 28.275 23.3433C28.7268 23.3433 29.0017 22.8321 28.7405 22.4544L26.6558 19.4396Z" fill="#AB8A62"/>
<path d="M30.8257 25.4694C30.6477 25.212 30.2949 25.1476 30.0374 25.3256C29.78 25.5036 29.7156 25.8565 29.8936 26.1139L30.7396 27.3373C30.8496 27.4964 31.0264 27.5817 31.2061 27.5817C31.658 27.5817 31.9328 27.0704 31.6717 26.6927L30.8257 25.4694Z" fill="#AB8A62"/>
<path d="M29.0979 14.0678L27.9545 13.1164C27.7139 12.9161 27.3567 12.9489 27.1565 13.1894C26.9563 13.43 26.989 13.7873 27.2296 13.9875L28.3729 14.939C28.6144 15.1399 28.9716 15.1055 29.171 14.8659C29.3711 14.6253 29.3384 14.268 29.0979 14.0678Z" fill="#AB8A62"/>
<path d="M32.5588 16.9476L31.4155 15.9961C31.1749 15.7959 30.8177 15.8286 30.6174 16.0692C30.4173 16.3097 30.45 16.667 30.6905 16.8672L31.8339 17.8187C32.0748 18.0193 32.4321 17.9856 32.6319 17.7456C32.8321 17.505 32.7994 17.1477 32.5588 16.9476Z" fill="#AB8A62"/>
</svg>
