<svg width="35" height="35" viewBox="0 0 35 35" fill="none" xmlns="http://www.w3.org/2000/svg">
<path d="M15.8767 3.58623L8.95295 7.68945C8.65733 7.86746 8.40616 8.1105 8.21853 8.40011C8.0309 8.68972 7.91174 9.01828 7.87011 9.36084C7.82847 9.70339 7.86545 10.0509 7.97824 10.3771C8.09103 10.7032 8.27666 10.9993 8.52103 11.243C8.71801 11.4407 8.95133 11.5984 9.20817 11.7076V13.7428C9.20829 13.8358 9.22819 13.9276 9.26656 14.0122C9.30492 14.0968 9.36087 14.1723 9.43067 14.2337C9.49993 14.2943 9.58119 14.3396 9.66915 14.3666C9.7571 14.3937 9.84978 14.4019 9.94112 14.3907C14.6608 13.8017 19.4354 13.8017 24.1551 14.3907H24.2271C24.4007 14.3907 24.5671 14.3218 24.6899 14.199C24.8126 14.0763 24.8815 13.9099 24.8815 13.7363V11.7076C25.2616 11.539 25.5879 11.2691 25.8246 10.9274C26.0614 10.5856 26.1995 10.1853 26.2239 9.77032C26.2482 9.3553 26.1578 8.94159 25.9626 8.57454C25.7674 8.20749 25.4749 7.90127 25.1171 7.68945L18.1803 3.58623C17.8312 3.38079 17.4335 3.27246 17.0285 3.27246C16.6235 3.27246 16.2258 3.38079 15.8767 3.58623ZM10.4843 13.0295V11.8647C14.8271 11.2733 19.2299 11.2733 23.5727 11.8647V13.0295C19.2234 12.5433 14.8335 12.5433 10.4843 13.0295ZM24.8815 9.63962C24.8818 9.88637 24.7865 10.1236 24.6157 10.3017C24.4449 10.4798 24.2119 10.5849 23.9654 10.5951C19.3464 9.94068 14.6582 9.94068 10.0393 10.5951C9.79303 10.5891 9.55857 10.4883 9.38486 10.3137C9.29722 10.2285 9.22725 10.1268 9.17897 10.0145C9.13068 9.90221 9.10502 9.78149 9.10346 9.65926C9.10395 9.49279 9.14762 9.32931 9.23021 9.18477C9.3128 9.04024 9.43148 8.91962 9.57465 8.83469L16.5377 4.71184C16.6867 4.62503 16.8561 4.5793 17.0285 4.5793C17.2009 4.5793 17.3703 4.62503 17.5193 4.71184L24.4365 8.81505C24.5748 8.90317 24.6883 9.02518 24.7662 9.1695C24.8441 9.31382 24.8838 9.47565 24.8815 9.63962Z" fill="#AB8A62"/>
<path d="M23.8353 15.7062C23.9409 15.5689 23.9877 15.3955 23.9657 15.2237C23.9436 15.052 23.8544 14.8961 23.7175 14.79C23.6494 14.7367 23.5713 14.6975 23.4879 14.6745C23.4045 14.6516 23.3174 14.6454 23.2316 14.6564C23.1458 14.6673 23.063 14.6952 22.988 14.7384C22.913 14.7815 22.8474 14.8391 22.7948 14.9078C22.7032 15.0387 20.38 18.0097 16.6171 17.8003C15.5737 17.7154 14.5594 17.4151 13.638 16.9184C12.7166 16.4217 11.9082 15.7393 11.2639 14.9143C11.2123 14.8456 11.1477 14.7877 11.0738 14.7439C10.9998 14.7001 10.918 14.6713 10.8329 14.6591C10.7478 14.647 10.6612 14.6517 10.5779 14.673C10.4947 14.6944 10.4165 14.7319 10.3477 14.7834C10.279 14.835 10.221 14.8996 10.1772 14.9736C10.1335 15.0475 10.1047 15.1294 10.0925 15.2144C10.0804 15.2995 10.0851 15.3861 10.1064 15.4694C10.1277 15.5526 10.1653 15.6309 10.2168 15.6996C10.9707 16.6825 11.9246 17.494 13.0155 18.0807C14.1064 18.6673 15.3095 19.0156 16.5451 19.1026H17.0163C18.3318 19.0679 19.6238 18.7459 20.8017 18.1592C21.9797 17.5725 23.0151 16.7353 23.8353 15.7062Z" fill="#AB8A62"/>
<path d="M33.6181 10.0519L30.8695 8.29152L30.719 11.5636L31.5829 11.1252C32.8444 14.2438 33.0713 17.6852 32.23 20.9425C31.3888 24.1998 29.5238 27.1009 26.9099 29.2186C24.2959 31.3364 21.071 32.5588 17.7101 32.706C14.3491 32.8532 11.0297 31.9173 8.2406 30.0362C5.45151 28.155 3.34013 25.4281 2.21735 22.2568C1.09457 19.0855 1.01973 15.6375 2.00384 12.4205C2.98795 9.20346 4.97902 6.38744 7.68385 4.38706C10.3887 2.38667 13.6644 1.30764 17.0285 1.30885C17.2021 1.30885 17.3686 1.2399 17.4913 1.11717C17.614 0.994444 17.683 0.827989 17.683 0.654426C17.683 0.480863 17.614 0.314409 17.4913 0.191681C17.3686 0.0689533 17.2021 5.4355e-06 17.0285 5.4355e-06C13.3776 -0.00291186 9.82263 1.16855 6.88869 3.34134C3.95475 5.51413 1.79749 8.57299 0.73561 12.066C-0.326273 15.5591 -0.236459 19.3011 0.991784 22.7392C2.22003 26.1772 4.52156 29.1291 7.55636 31.1586C10.5912 33.1881 14.1983 34.1877 17.8448 34.0096C21.4914 33.8316 24.9839 32.4853 27.8066 30.1697C30.6292 27.8542 32.6322 24.6921 33.5196 21.1507C34.407 17.6094 34.1318 13.8764 32.7346 10.5035L33.6181 10.0519Z" fill="#AB8A62"/>
<path d="M24.88 3.39656C24.9791 3.45538 25.092 3.48698 25.2072 3.48818C25.3521 3.48919 25.4933 3.44208 25.6085 3.35424C25.7237 3.2664 25.8066 3.1428 25.844 3.00281C25.8814 2.86283 25.8713 2.71438 25.8153 2.58074C25.7593 2.44711 25.6605 2.33585 25.5344 2.26441L24.9782 1.96338C24.9019 1.921 24.818 1.8943 24.7313 1.88484C24.6445 1.87538 24.5568 1.88335 24.4732 1.90829C24.3896 1.93322 24.3119 1.97462 24.2445 2.03004C24.1771 2.08546 24.1215 2.15379 24.081 2.23101C24.0404 2.30823 24.0157 2.39279 24.0082 2.4797C24.0008 2.56662 24.0108 2.65414 24.0377 2.73712C24.0646 2.82011 24.1078 2.89688 24.1648 2.96292C24.2218 3.02897 24.2914 3.08295 24.3696 3.1217L24.88 3.39656Z" fill="#AB8A62"/>
<path d="M21.236 1.87818C21.2945 1.88771 21.3542 1.88771 21.4127 1.87818C21.4987 1.88935 21.586 1.88349 21.6696 1.86092C21.7533 1.83836 21.8317 1.79953 21.9004 1.74666C21.9691 1.69379 22.0266 1.62792 22.0699 1.55279C22.1131 1.47767 22.1411 1.39477 22.1522 1.30883C22.1634 1.22289 22.1575 1.1356 22.135 1.05192C22.1124 0.968249 22.0736 0.88984 22.0207 0.821171C21.9678 0.752503 21.902 0.69492 21.8268 0.65171C21.7517 0.608501 21.6688 0.580511 21.5829 0.569339L20.9939 0.418822C20.8203 0.378903 20.638 0.409566 20.4871 0.504066C20.3361 0.598567 20.2289 0.749163 20.189 0.922726C20.149 1.09629 20.1797 1.2786 20.2742 1.42956C20.3687 1.58051 20.5193 1.68774 20.6929 1.72766C20.8761 1.78002 21.0593 1.82583 21.236 1.87818Z" fill="#AB8A62"/>
<path d="M27.9951 5.77193C28.118 5.89044 28.2824 5.9562 28.4532 5.95517C28.5398 5.95481 28.6254 5.93727 28.7052 5.90357C28.7849 5.86987 28.8572 5.82068 28.9178 5.75885C29.0397 5.63623 29.1081 5.47037 29.1081 5.29748C29.1081 5.12459 29.0397 4.95873 28.9178 4.83611L28.4728 4.41728C28.409 4.35885 28.3342 4.31364 28.2528 4.28429C28.1714 4.25494 28.085 4.24202 27.9986 4.24628C27.9122 4.25054 27.8275 4.27189 27.7494 4.30911C27.6712 4.34633 27.6013 4.39866 27.5435 4.46309C27.4275 4.59166 27.3672 4.76097 27.3758 4.93392C27.3844 5.10688 27.4612 5.26938 27.5893 5.38583L27.9951 5.77193Z" fill="#AB8A62"/>
<path d="M11.1373 26.1769C11.3109 26.1769 11.4774 26.1079 11.6001 25.9852C11.7228 25.8625 11.7918 25.696 11.7918 25.5225V22.9048C11.7918 22.7312 11.7228 22.5648 11.6001 22.442C11.4774 22.3193 11.3109 22.2504 11.1373 22.2504H8.51966C8.34609 22.2504 8.17964 22.3193 8.05691 22.442C7.93418 22.5648 7.86523 22.7312 7.86523 22.9048C7.86523 23.0784 7.93418 23.2448 8.05691 23.3675C8.17964 23.4903 8.34609 23.5592 8.51966 23.5592H10.4829V24.868H8.51966C8.34609 24.868 8.17964 24.937 8.05691 25.0597C7.93418 25.1825 7.86523 25.3489 7.86523 25.5225V27.4857C7.86523 27.6593 7.93418 27.8258 8.05691 27.9485C8.17964 28.0712 8.34609 28.1402 8.51966 28.1402H11.1373C11.3109 28.1402 11.4774 28.0712 11.6001 27.9485C11.7228 27.8258 11.7918 27.6593 11.7918 27.4857C11.7918 27.3122 11.7228 27.1457 11.6001 27.023C11.4774 26.9003 11.3109 26.8313 11.1373 26.8313H9.17408V26.1769H11.1373Z" fill="#AB8A62"/>
<path d="M16.3756 28.1402C16.5492 28.1402 16.7156 28.0712 16.8384 27.9485C16.9611 27.8258 17.03 27.6593 17.03 27.4857V24.2136C17.03 24.0401 16.9611 23.8736 16.8384 23.7509C16.7156 23.6282 16.5492 23.5592 16.3756 23.5592C16.2021 23.5592 16.0356 23.6282 15.9129 23.7509C15.7901 23.8736 15.7212 24.0401 15.7212 24.2136V24.868H14.4124V22.9048C14.4124 22.7312 14.3434 22.5648 14.2207 22.442C14.098 22.3193 13.9315 22.2504 13.7579 22.2504C13.5844 22.2504 13.4179 22.3193 13.2952 22.442C13.1725 22.5648 13.1035 22.7312 13.1035 22.9048V25.5225C13.1035 25.696 13.1725 25.8625 13.2952 25.9852C13.4179 26.1079 13.5844 26.1769 13.7579 26.1769H15.7212V27.4857C15.7212 27.6593 15.7901 27.8258 15.9129 27.9485C16.0356 28.0712 16.2021 28.1402 16.3756 28.1402Z" fill="#AB8A62"/>
<path d="M24.6278 28.0878C24.7085 28.1222 24.7953 28.14 24.8831 28.1402C25.0115 28.14 25.1371 28.1021 25.2442 28.0312C25.3512 27.9602 25.435 27.8592 25.4851 27.741L27.4484 23.16C27.4905 23.0605 27.5074 22.9522 27.4974 22.8447C27.4875 22.7371 27.4511 22.6337 27.3915 22.5436C27.3319 22.4535 27.2509 22.3796 27.1558 22.3284C27.0607 22.2773 26.9543 22.2505 26.8463 22.2504H24.2286C24.0551 22.2504 23.8886 22.3193 23.7659 22.442C23.6432 22.5648 23.5742 22.7312 23.5742 22.9048C23.5742 23.0784 23.6432 23.2448 23.7659 23.3675C23.8886 23.4903 24.0551 23.5592 24.2286 23.5592H25.8516L24.281 27.2305C24.2134 27.3902 24.212 27.5702 24.2771 27.7309C24.3421 27.8916 24.4682 28.02 24.6278 28.0878Z" fill="#AB8A62"/>
<path d="M21.6618 20.0317L17.7353 29.1936C17.6678 29.3533 17.6663 29.5333 17.7314 29.694C17.7964 29.8548 17.9226 29.9831 18.0821 30.0509C18.1629 30.0853 18.2496 30.1031 18.3374 30.1033C18.4658 30.1032 18.5914 30.0653 18.6985 29.9943C18.8055 29.9233 18.8893 29.8224 18.9394 29.7041L22.866 20.5422C22.9259 20.384 22.9223 20.2087 22.8558 20.0532C22.7893 19.8976 22.6652 19.7738 22.5094 19.7078C22.3537 19.6418 22.1784 19.6386 22.0204 19.699C21.8623 19.7594 21.7338 19.8787 21.6618 20.0317Z" fill="#AB8A62"/>
</svg>
