<svg width="61" height="50" viewBox="0 0 61 50" fill="none" xmlns="http://www.w3.org/2000/svg">
<path d="M45.883 24.1541C47.8567 24.1541 49.6424 23.4023 51.0522 21.9925C53.8717 19.1729 53.8717 14.4737 51.0522 11.6541C49.6424 10.2443 47.8567 9.49243 45.883 9.49243C43.9093 9.49243 42.1236 10.2443 40.7138 11.6541C37.8942 14.4737 37.8942 19.1729 40.7138 21.9925C42.0296 23.4023 43.9093 24.1541 45.883 24.1541ZM42.0296 13.0639C43.0634 12.03 44.3792 11.4661 45.883 11.4661C47.2928 11.4661 48.7026 12.03 49.7364 13.0639C51.8981 15.2255 51.8981 18.609 49.7364 20.7707C48.7026 21.8045 47.2928 22.3684 45.883 22.3684C44.4732 22.3684 43.0634 21.8045 42.0296 20.7707C39.8679 18.609 39.8679 15.1316 42.0296 13.0639Z" fill="#AB8A62"/>
<path d="M1.89786 31.109C4.05952 31.109 5.09336 31.7669 6.22119 32.5188C7.443 33.2707 8.85278 34.2106 11.5784 34.2106C14.3039 34.2106 15.7137 33.2707 16.9355 32.5188C18.1573 31.7669 19.0972 31.109 21.2588 31.109C23.4205 31.109 24.4543 31.7669 25.5822 32.5188C26.804 33.2707 28.2138 34.2106 30.9393 34.2106C33.6649 34.2106 35.0747 33.2707 36.2965 32.5188C37.5183 31.7669 38.4582 31.109 40.6198 31.109C42.7815 31.109 43.8153 31.7669 44.9432 32.5188C46.165 33.2707 47.5747 34.2106 50.3003 34.2106C53.0259 34.2106 54.4357 33.2707 55.6575 32.5188C56.8793 31.7669 57.8192 31.109 59.9808 31.109C60.5447 31.109 60.9207 30.7331 60.9207 30.1692C60.9207 29.6053 60.5447 29.2293 59.9808 29.2293C57.2552 29.2293 55.8455 30.1692 54.6236 30.9211C53.4018 31.6729 52.462 32.3308 50.3003 32.3308C48.1387 32.3308 47.1048 31.6729 45.977 30.9211C45.3191 30.5451 44.6612 30.0752 43.7214 29.7932C43.7214 29.6993 43.6274 29.6053 43.5334 29.5113L27.6499 13.5338L33.9469 7.23675C35.6386 5.54502 35.6386 2.91342 33.9469 1.22169C33.195 0.375819 32.0672 -0.00012207 30.9393 -0.00012207C29.8115 -0.00012207 28.7777 0.469805 27.9318 1.22169L18.3453 11.0902C17.0295 12.4059 17.0295 14.4736 18.3453 15.7894L24.2664 21.7105L14.022 31.7669L13.928 31.8609C13.2701 32.0489 12.6122 32.2369 11.5784 32.2369C9.41669 32.2369 8.38285 31.579 7.25503 30.8271C6.03322 30.0752 4.62344 29.1353 1.89786 29.1353C1.33395 29.1353 0.958008 29.5113 0.958008 30.0752C0.958008 30.6391 1.33395 31.109 1.89786 31.109ZM26.2401 20.9586L19.6611 14.3796C19.3791 14.0977 19.2852 13.7217 19.2852 13.3458C19.2852 12.9699 19.4731 12.5939 19.6611 12.312L29.4356 2.53748C29.9055 2.06756 30.4694 1.87958 31.1273 1.87958C31.7852 1.87958 32.3491 2.16154 32.819 2.53748C33.7589 3.47734 33.7589 4.9811 32.819 5.82697L25.8641 12.7819C25.4882 13.1578 25.4882 13.7217 25.8641 14.0977L40.9018 29.1353C40.9018 29.1353 40.9018 29.1353 40.8078 29.1353C38.0822 29.1353 36.6724 30.0752 35.4506 30.8271C34.2288 31.579 33.289 32.2369 31.1273 32.2369C28.9656 32.2369 27.9318 31.579 26.804 30.8271C25.5822 30.0752 24.1724 29.1353 21.4468 29.1353C20.507 29.1353 19.7551 29.2293 19.0972 29.4173L26.2401 22.2744C26.428 22.0864 26.522 21.8985 26.522 21.6165C26.428 21.3346 26.3341 21.1466 26.2401 20.9586Z" fill="#AB8A62"/>
<path d="M1.89786 39.0039C4.05952 39.0039 5.09336 39.6618 6.22119 40.4136C7.443 41.1655 8.85278 42.1054 11.5784 42.1054C14.3039 42.1054 15.7137 41.1655 16.9355 40.4136C18.1573 39.6618 19.0972 39.0039 21.2588 39.0039C23.4205 39.0039 24.4543 39.6618 25.5822 40.4136C26.804 41.1655 28.2138 42.1054 30.9393 42.1054C33.6649 42.1054 35.0747 41.1655 36.2965 40.4136C37.5183 39.6618 38.4582 39.0039 40.6198 39.0039C42.7815 39.0039 43.8153 39.6618 44.9432 40.4136C46.165 41.1655 47.5747 42.1054 50.3003 42.1054C53.0259 42.1054 54.4357 41.1655 55.6575 40.4136C56.8793 39.6618 57.8192 39.0039 59.9808 39.0039C60.5447 39.0039 60.9207 38.6279 60.9207 38.064C60.9207 37.5001 60.5447 37.1241 59.9808 37.1241C57.2552 37.1241 55.8455 38.064 54.6236 38.8159C53.4018 39.5678 52.462 40.2257 50.3003 40.2257C48.1387 40.2257 47.1048 39.5678 45.977 38.8159C44.7552 38.064 43.3454 37.1241 40.6198 37.1241C37.8943 37.1241 36.4845 38.064 35.2627 38.8159C34.0409 39.5678 33.101 40.2257 30.9393 40.2257C28.7777 40.2257 27.7438 39.5678 26.616 38.8159C25.3942 38.064 23.9844 37.1241 21.2588 37.1241C18.5333 37.1241 17.1235 38.064 15.9017 38.8159C14.6799 39.5678 13.74 40.2257 11.5784 40.2257C9.41669 40.2257 8.38285 39.5678 7.25503 38.8159C6.03322 38.064 4.62344 37.1241 1.89786 37.1241C1.33395 37.1241 0.958008 37.5001 0.958008 38.064C0.958008 38.6279 1.33395 39.0039 1.89786 39.0039Z" fill="#AB8A62"/>
<path d="M1.89786 46.8985C4.05952 46.8985 5.09336 47.5564 6.22119 48.3083C7.443 49.0602 8.85278 50 11.5784 50C14.3039 50 15.7137 49.0602 16.9355 48.3083C18.1573 47.5564 19.0972 46.8985 21.2588 46.8985C23.4205 46.8985 24.4543 47.5564 25.5822 48.3083C26.804 49.0602 28.2138 50 30.9393 50C33.6649 50 35.0747 49.0602 36.2965 48.3083C37.5183 47.5564 38.4582 46.8985 40.6198 46.8985C42.7815 46.8985 43.8153 47.5564 44.9432 48.3083C46.165 49.0602 47.5747 50 50.3003 50C53.0259 50 54.4357 49.0602 55.6575 48.3083C56.8793 47.5564 57.8192 46.8985 59.9808 46.8985C60.5447 46.8985 60.9207 46.5226 60.9207 45.9587C60.9207 45.3947 60.5447 45.0188 59.9808 45.0188C57.2552 45.0188 55.8455 45.9587 54.6236 46.7105C53.4018 47.4624 52.462 48.1203 50.3003 48.1203C48.1387 48.1203 47.1048 47.4624 45.977 46.7105C44.7552 45.9587 43.3454 45.0188 40.6198 45.0188C37.8943 45.0188 36.4845 45.9587 35.2627 46.7105C34.0409 47.4624 33.101 48.1203 30.9393 48.1203C28.7777 48.1203 27.7438 47.4624 26.616 46.7105C25.3942 45.9587 23.9844 45.0188 21.2588 45.0188C18.5333 45.0188 17.1235 45.9587 15.9017 46.7105C14.6799 47.4624 13.74 48.1203 11.5784 48.1203C9.41669 48.1203 8.38285 47.4624 7.25503 46.7105C6.03322 45.9587 4.62344 45.0188 1.89786 45.0188C1.33395 45.0188 0.958008 45.3947 0.958008 45.9587C0.958008 46.5226 1.33395 46.8985 1.89786 46.8985Z" fill="#AB8A62"/>
</svg>
