<svg width="38" height="27" viewBox="0 0 38 27" fill="none" xmlns="http://www.w3.org/2000/svg">
<path d="M35.7639 9.32713C26.8654 0.894113 13.1644 0.450257 3.76155 7.99703C3.23998 8.41568 2.73143 8.85902 2.23749 9.32713C1.70609 9.83069 0.867051 9.80824 0.363436 9.27681C-0.140162 8.74541 -0.117626 7.90635 0.413774 7.40275C0.960534 6.88459 1.52386 6.39346 2.10197 5.92942C12.53 -2.44011 27.7189 -1.94954 37.5876 7.40275C38.1189 7.90635 38.1415 8.74539 37.638 9.27679C37.1344 9.80824 36.2952 9.83069 35.7639 9.32713Z" fill="#AB8A62"/>
<path d="M5.69101 13.4667C13.0419 6.11592 24.9599 6.11592 32.3107 13.4667C32.8285 13.9844 32.8285 14.8238 32.3107 15.3415C31.793 15.8592 30.9538 15.8592 30.4361 15.3415C24.1207 9.02603 13.8812 9.02603 7.56573 15.3415C7.04803 15.8592 6.2087 15.8592 5.69101 15.3415C5.17331 14.8238 5.17331 13.9844 5.69101 13.4667Z" fill="#AB8A62"/>
<path d="M10.9937 19.2243C15.4161 14.802 22.5862 14.802 27.0085 19.2243C27.5262 19.742 27.5262 20.5814 27.0085 21.0991C26.4908 21.6168 25.6515 21.6168 25.1338 21.0991C21.7468 17.712 16.2555 17.712 12.8685 21.0991C12.3508 21.6168 11.5114 21.6168 10.9937 21.0991C10.476 20.5814 10.476 19.742 10.9937 19.2243Z" fill="#AB8A62"/>
<path d="M19.0004 26.9544C20.2205 26.9544 21.2098 25.9651 21.2098 24.745C21.2098 23.5247 20.2205 22.5356 19.0004 22.5356C17.7801 22.5356 16.791 23.5247 16.791 24.745C16.791 25.9651 17.7801 26.9544 19.0004 26.9544Z" fill="#AB8A62"/>
</svg>
