<?xml version="1.0" encoding="UTF-8"?><svg id="a" xmlns="http://www.w3.org/2000/svg" viewBox="0 0 48 48"><defs><style>.d{fill-rule:evenodd;}.d,.e,.f{fill:#1957de;}.d,.f{isolation:isolate;opacity:.24;}</style></defs><g id="b"><g id="c"><path class="f" d="m29.1,21.66c.33-.44.59-.94.77-1.46.2-.58.3-1.19.29-1.81.04-.95-.18-1.9-.64-2.74-.42-.73-1.02-1.33-1.75-1.75-.81-.46-1.69-.77-2.6-.92-1.05-.19-2.11-.29-3.17-.28-1.28,0-2.34,0-3.19.09s-1.6.14-2.25.25v21.89c1.15.14,2.19.24,3.1.29s1.83.08,2.77.08c1.17,0,2.34-.1,3.49-.3,1.03-.15,2.02-.49,2.92-1,.83-.48,1.52-1.17,2-2,.54-.99.8-2.11.75-3.24.03-.86-.14-1.71-.49-2.49-.28-.64-.7-1.21-1.21-1.69-.46-.43-1-.76-1.58-1-.5-.2-1.02-.35-1.55-.43.45-.07.87-.24,1.24-.5.42-.27.79-.61,1.1-.99Zm-8.1-5.58c.47-.06.94-.09,1.41-.08.41,0,.82.03,1.23.1.4.07.78.21,1.12.43.34.22.63.52.82.88.23.44.34.94.32,1.44.02.52-.07,1.03-.27,1.51-.16.38-.43.7-.76.94-.34.24-.73.41-1.14.49-.47.09-.94.13-1.42.13h-1.31v-5.84Zm6,12.43c.07,1.07-.48,2.08-1.4,2.61-.41.23-.85.39-1.31.47-.44.08-.89.12-1.34.12h-1c-.37,0-.7-.05-1-.09v-6.36h1.85c.58,0,1.15.05,1.72.15.48.08.94.27,1.34.54.37.25.67.59.86,1,.21.49.31,1.03.28,1.56Z"/><path class="e" d="m22,12.7c1.06,0,2.12.09,3.16.28.91.15,1.79.46,2.6.92.73.42,1.33,1.02,1.75,1.75.46.84.68,1.79.64,2.74,0,.62-.09,1.23-.29,1.81-.18.52-.44,1.02-.77,1.46-.31.39-.68.73-1.1,1-.37.26-.79.43-1.24.5.53.08,1.05.23,1.55.43.58.24,1.12.57,1.58,1,.52.48.93,1.06,1.22,1.71.35.78.52,1.63.49,2.49.04,1.12-.22,2.23-.75,3.21-.48.83-1.17,1.52-2,2-.9.51-1.89.85-2.92,1-1.15.19-2.31.29-3.48.28-.94,0-1.86,0-2.77-.08s-2-.15-3.1-.29V13c.65-.11,1.4-.18,2.25-.25s1.91-.09,3.19-.09m0-2c-1.34,0-2.43,0-3.34.1s-1.74.15-2.42.26c-.98.16-1.69,1.01-1.68,2v21.91c0,1.02.75,1.88,1.76,2,1.24.15,2.3.25,3.23.3s1.91.08,2.88.08c1.28,0,2.55-.1,3.81-.31,1.26-.19,2.48-.61,3.59-1.24,1.13-.65,2.07-1.58,2.73-2.7.71-1.3,1.05-2.78,1-4.26.02-1.15-.21-2.3-.68-3.35-.4-.88-.97-1.67-1.69-2.32-.14-.13-.29-.25-.44-.37.43-.58.76-1.22,1-1.9.27-.79.4-1.62.4-2.46.03-1.31-.28-2.6-.91-3.75-.59-1.02-1.44-1.87-2.46-2.46-1.01-.58-2.11-.99-3.26-1.19-1.17-.21-2.35-.31-3.53-.3v-.04Z"/><path class="e" d="m22.31,22.92h-2.31v-7.69l.85-.14c.99-.16,2.01-.16,3,0,.53.08,1.04.27,1.49.56.48.31.88.74,1.16,1.24.32.59.47,1.26.45,1.93.02.66-.1,1.32-.36,1.93-.24.53-.62,1-1.09,1.34-.46.32-.97.54-1.52.65-.55.12-1.11.18-1.67.18Zm-.34-2h.34c.4,0,.81-.04,1.2-.12.28-.05.54-.16.77-.32.2-.14.35-.33.44-.55.14-.35.2-.72.18-1.09.02-.33-.05-.66-.19-.95-.12-.21-.29-.4-.49-.53-.23-.14-.49-.24-.76-.28-.48-.07-.97-.1-1.46-.08l-.03,3.92Z"/><path class="e" d="m23,32.71h-1.07c-.41,0-.77-.06-1.08-.1l-.85-.16v-8.19h2.8c.64,0,1.28.05,1.91.17.61.11,1.19.35,1.71.69.52.35.93.83,1.2,1.39.29.63.43,1.31.41,2,.02.76-.17,1.51-.55,2.17-.33.55-.8,1-1.35,1.32-.51.29-1.06.49-1.64.59-.49.08-.99.12-1.49.12Zm-1-2h0c.71.06,1.42.03,2.12-.08.35-.06.69-.18,1-.35.26-.16.49-.38.65-.64.18-.34.26-.72.24-1.1.02-.38-.06-.77-.21-1.12-.11-.25-.29-.46-.52-.61-.3-.2-.64-.33-1-.38-.5-.1-1.02-.14-1.53-.14h-.75v4.42Z"/><path class="d" d="m0,46.58h39.2v-5.95H6V7.38h33.21v21.82h-2.84l5.81,5.8,5.82-5.8h-2.83V1.42H0v45.16Z"/></g></g></svg>