<?xml version="1.0" encoding="UTF-8"?><svg id="a" xmlns="http://www.w3.org/2000/svg" viewBox="0 0 48 48"><defs><style>.c,.d{fill:#1957de;}.d{isolation:isolate;opacity:.24;}</style></defs><g id="b"><rect class="d" x="33" y="31" width="12" height="16"/><rect class="d" x="3" y="25" width="12" height="22"/><path class="c" d="m45,30h-11v-13c0-.55-.45-1-1-1h-2v-4c0-.55-.45-1-1-1h-2v-4c0-.55-.45-1-1-1h-2V1c0-.55-.45-1-1-1s-1,.45-1,1v5h-2c-.55,0-1,.45-1,1v4h-2c-.55,0-1,.45-1,1v4h-2c-.55,0-1,.45-1,1v3h-5c-.55,0-1,.45-1,1v3H3c-.55,0-1,.45-1,1v22c0,.55.45,1,1,1h42c.55,0,1-.45,1-1v-16c0-.55-.45-1-1-1ZM10,22h4v2h-4v-2Zm-6,4h10v20H4v-20Zm12-1v-7h2c.55,0,1-.45,1-1v-4h2c.55,0,1-.45,1-1v-4h4v4c0,.55.45,1,1,1h2v4c0,.55.45,1,1,1h2v28h-16v-21Zm28,21h-10v-14h10v14Z"/></g></svg>