<?xml version="1.0" encoding="UTF-8"?><svg id="a" xmlns="http://www.w3.org/2000/svg" viewBox="0 0 48 48"><defs><style>.c,.d{fill:#1957de;}.d{isolation:isolate;opacity:.24;}</style></defs><g id="b"><circle class="d" cx="6.97" cy="23.94" r="6"/><circle class="d" cx="23.97" cy="35.94" r="6"/><circle class="d" cx="40.97" cy="11.94" r="6"/><path class="c" d="m7.97,17.02V.94C7.97.39,7.53-.06,6.97-.06s-1,.45-1,1v16.08C2.15,17.6-.47,21.17.11,24.99c.46,3.03,2.84,5.4,5.86,5.86v16.08c0,.55.45,1,1,1s1-.45,1-1v-16.08c3.82-.58,6.45-4.15,5.86-7.98-.46-3.03-2.84-5.4-5.86-5.86Zm-1,11.92c-2.76,0-5-2.24-5-5s2.24-5,5-5,5,2.24,5,5-2.24,5-5,5Z"/><path class="c" d="m24.97,29.02V.94c0-.55-.45-1-1-1s-1,.45-1,1v28.08c-3.82.58-6.45,4.15-5.86,7.98.46,3.03,2.84,5.4,5.86,5.86v4.08c0,.55.45,1,1,1s1-.45,1-1v-4.08c3.82-.58,6.45-4.15,5.86-7.98-.46-3.03-2.84-5.4-5.86-5.86Zm-1,11.92c-2.76,0-5-2.24-5-5s2.24-5,5-5,5,2.24,5,5-2.24,5-5,5Z"/><path class="c" d="m47.97,11.94c0-3.48-2.56-6.42-6-6.92V.94c0-.55-.45-1-1-1s-1,.45-1,1v4.08c-3.82.58-6.45,4.15-5.86,7.98.46,3.03,2.84,5.4,5.86,5.86v28.08c0,.55.45,1,1,1s1-.45,1-1v-28.08c3.44-.5,6-3.44,6-6.92Zm-7,5c-2.76,0-5-2.24-5-5s2.24-5,5-5,5,2.24,5,5-2.24,5-5,5Z"/></g></svg>