<?xml version="1.0" encoding="UTF-8"?><svg id="a" xmlns="http://www.w3.org/2000/svg" viewBox="0 0 48 48"><defs><style>.b,.c{fill:#1957de;}.c{isolation:isolate;opacity:.24;}</style></defs><polygon class="c" points="46.76 26.17 36.46 26.17 36.46 20.57 42.69 20.57 46.76 26.17"/><circle class="c" cx="10.61" cy="36.46" r="3.15"/><circle class="c" cx="38.37" cy="36.46" r="3.15"/><path class="b" d="m10.61,40.61c-2.29,0-4.15-1.86-4.15-4.15s1.86-4.15,4.15-4.15,4.15,1.86,4.15,4.15-1.86,4.15-4.15,4.15Zm0-6.3c-1.19,0-2.15.96-2.15,2.15s.96,2.15,2.15,2.15,2.15-.96,2.15-2.15-.96-2.15-2.15-2.15Z"/><path class="b" d="m38.37,40.61c-2.29,0-4.15-1.86-4.15-4.15s1.86-4.15,4.15-4.15,4.15,1.86,4.15,4.15-1.86,4.15-4.15,4.15Zm0-6.3c-1.19,0-2.15.96-2.15,2.15s.96,2.15,2.15,2.15,2.15-.96,2.15-2.15-.96-2.15-2.15-2.15Z"/><path class="c" d="m20.39,27.25c-.72.25-1.49.4-2.3.41-4.01.06-7.32-3.14-7.38-7.15-.04-2.48,1.17-4.69,3.05-6.03-2.87,1.01-4.9,3.76-4.85,6.97.06,4.01,3.37,7.22,7.38,7.15,1.53-.02,2.94-.52,4.1-1.35Z"/><path class="b" d="m16.08,29.9c-4.71,0-8.57-3.79-8.64-8.51-.04-2.31.83-4.49,2.44-6.15s3.76-2.59,6.07-2.63c2.32-.04,4.49.83,6.15,2.44,1.66,1.61,2.59,3.76,2.63,6.07s-.83,4.49-2.44,6.15-3.76,2.59-6.07,2.63c-.05,0-.09,0-.14,0Zm.1-2l.02,1-.02-1c1.77-.03,3.43-.74,4.67-2.02,1.24-1.27,1.9-2.95,1.87-4.73-.03-1.77-.74-3.43-2.02-4.67-1.27-1.24-2.96-1.92-4.73-1.87-1.77.03-3.43.74-4.67,2.02-1.24,1.28-1.9,2.95-1.87,4.73.06,3.66,3.11,6.61,6.75,6.54Z"/><path class="b" d="m16.79,25.04c-.26,0-.51-.1-.71-.29-.39-.39-.39-1.02,0-1.41l1.07-1.07h-4.54c-.55,0-1-.45-1-1s.45-1,1-1h6.95c.4,0,.77.24.92.62s.07.8-.22,1.09l-2.78,2.78c-.2.2-.45.29-.71.29h.02Z"/><path class="b" d="m19.56,22.26c-.26,0-.51-.1-.71-.29l-2.78-2.78c-.39-.39-.39-1.02,0-1.41.39-.39,1.02-.39,1.41,0l2.78,2.78c.39.39.39,1.02,0,1.41-.2.2-.45.29-.71.29h0Z"/><path class="b" d="m30.98,36.54H13.69c-.55,0-1-.45-1-1s.45-1,1-1h16.29V9.39H2.06v25.15h5.26c.55,0,1,.45,1,1s-.45,1-1,1H1.06c-.55,0-1-.45-1-1V8.39c0-.55.45-1,1-1h29.92c.55,0,1,.45,1,1v27.15c0,.55-.45,1-1,1Z"/><path class="b" d="m35.21,36.54h-4.22c-.55,0-1-.45-1-1s.45-1,1-1h4.22c.55,0,1,.45,1,1s-.45,1-1,1Z"/><path class="b" d="m46.94,36.54h-5.36c-.55,0-1-.45-1-1s.45-1,1-1h4.36v-8.07l-7.12-10.12h-7.83c-.55,0-1-.45-1-1s.45-1,1-1h8.34c.33,0,.63.16.82.42l7.6,10.8c.12.17.18.37.18.58v9.39c0,.55-.45,1-1,1h0Z"/><path class="b" d="m46.41,27.17h-10.3c-.55,0-1-.45-1-1v-5.59c0-.55.45-1,1-1h6.22c.55,0,1,.45,1,1s-.45,1-1,1h-5.22v3.59h9.3c.55,0,1,.45,1,1s-.45,1-1,1Z"/></svg>