<?xml version="1.0" encoding="UTF-8"?><svg id="a" xmlns="http://www.w3.org/2000/svg" viewBox="0 0 48 48"><defs><style>.c,.d{fill:#1957de;}.d{isolation:isolate;opacity:.24;}</style></defs><g id="b"><rect class="d" x="17" y="4" width="14" height="14"/><circle class="d" cx="8" cy="37" r="7"/><circle class="d" cx="40" cy="37" r="7"/><path class="c" d="m41,29.07v-4.66l3.71-3.7c.39-.39.39-1.03,0-1.42-.39-.39-1.03-.39-1.42,0l-2.29,2.3v-10.59c0-.55-.45-1-1-1h-8V4c0-.55-.45-1-1-1h-14c-.55,0-1,.45-1,1v6h-8c-.55,0-1,.45-1,1v10.59l-2.29-2.3c-.39-.39-1.03-.39-1.42,0s-.39,1.03,0,1.42l3.71,3.7v4.66C2.62,29.62-.49,33.62.06,38c.55,4.38,4.55,7.49,8.94,6.94s7.49-4.55,6.94-8.94c-.46-3.63-3.31-6.48-6.94-6.94v-4.66l3.71-3.7c.39-.39.39-1.03,0-1.42s-1.03-.39-1.42,0l-2.29,2.3v-9.59h7v6c0,.55.45,1,1,1h14c.55,0,1-.45,1-1v-6h7v9.59l-2.29-2.3c-.39-.39-1.03-.39-1.42,0-.39.39-.39,1.03,0,1.42l3.71,3.7v4.66c-4.38.55-7.49,4.55-6.94,8.94.55,4.38,4.55,7.49,8.94,6.94s7.49-4.55,6.94-8.94c-.46-3.63-3.31-6.48-6.94-6.94Zm-27,7.93c0,3.31-2.69,6-6,6s-6-2.69-6-6,2.69-6,6-6,6,2.69,6,6Zm16-20h-12V5h12v12Zm10,26c-3.31,0-6-2.69-6-6s2.69-6,6-6,6,2.69,6,6-2.69,6-6,6Z"/></g></svg>