<?xml version="1.0" encoding="UTF-8"?><svg id="a" xmlns="http://www.w3.org/2000/svg" viewBox="0 0 48 48"><defs><style>.c,.d{fill:#1957de;}.d{isolation:isolate;opacity:.24;}</style></defs><g id="b"><path class="c" d="m47,48H1c-.55,0-1-.45-1-1V13c0-.55.45-1,1-1h46c.55,0,1,.45,1,1v34c0,.55-.45,1-1,1Zm-45-2h44V14H2v32Z"/><path class="c" d="m43,8H5c-.55,0-1-.45-1-1s.45-1,1-1h38c.55,0,1,.45,1,1s-.45,1-1,1Z"/><path class="c" d="m39,2H9c-.55,0-1-.45-1-1s.45-1,1-1h30c.55,0,1,.45,1,1s-.45,1-1,1Z"/><path class="c" d="m20,39.55c-.26,0-.51-.1-.7-.28l-8.61-8.35c-.4-.38-.41-1.02-.02-1.42.38-.4,1.02-.41,1.41-.02h0l7.92,7.66,15.88-16.39c.39-.39,1.02-.39,1.41,0,.39.39.39,1.02,0,1.41l-16.55,17.09c-.18.19-.44.3-.7.3h-.04Z"/><rect class="d" x="1" y="43" width="46" height="4"/></g></svg>