<?xml version="1.0" encoding="UTF-8"?><svg id="a" xmlns="http://www.w3.org/2000/svg" viewBox="0 0 48 48"><defs><style>.c,.d{fill:#1957de;}.d{isolation:isolate;opacity:.24;}</style></defs><g id="b"><rect class="d" x="26" y="25.88" width="8" height="12"/><path class="c" d="m9,24.88H1c-.55,0-1,.45-1,1v12c0,.55.45,1,1,1h8c.55,0,1-.45,1-1v-12c0-.55-.45-1-1-1Zm-1,12H2v-10h6v10Z"/><path class="c" d="m21,24.88h-8c-.55,0-1,.45-1,1v12c0,.55.45,1,1,1h8c.55,0,1-.45,1-1v-12c0-.55-.45-1-1-1Zm-1,12h-6v-10h6v10Z"/><path class="c" d="m34,24.88h-2.29l.29-2.9c.06-.55-.35-1.04-.9-1.1s-1.04.35-1.1.9l-.31,3.1h-3.69c-.55,0-1,.45-1,1v12c0,.55.45,1,1,1h2.29l-.29,2.9c-.06.55.34,1.04.89,1.1,0,0,0,0,0,0h.1c.52,0,.95-.39,1-.9l.31-3.1h3.69c.55,0,1-.45,1-1v-12c0-.55-.45-1-1-1Zm-7,12v-10h2.49l-1,10h-1.49Zm6,0h-2.49l1-10h1.49v10Z"/><path class="c" d="m47,24.88h-8c-.55,0-1,.45-1,1v12c0,.55.45,1,1,1h8c.55,0,1-.45,1-1v-12c0-.55-.45-1-1-1Zm-1,12h-6v-10h6v10Z"/><path class="c" d="m17,19.88c.55,0,1-.45,1-1v-4c0-6.63,5.37-12,12-12s12,5.37,12,12v1.59l-2.09-2.1c-.39-.39-1.03-.39-1.42,0-.39.39-.39,1.03,0,1.41l3.79,3.8c.09.09.2.16.32.21.25.11.53.11.78,0,.12-.05.23-.12.32-.21l3.8-3.8c.39-.39.39-1.03,0-1.42-.39-.39-1.03-.39-1.42,0l-2.09,2.1v-1.59c0-7.73-6.27-14-14-14s-14,6.27-14,14v4c0,.55.45,1,1,1Z"/></g></svg>