<?xml version="1.0" encoding="UTF-8"?><svg id="a" xmlns="http://www.w3.org/2000/svg" viewBox="0 0 48 48"><defs><style>.c,.d{fill:#1957de;}.d{isolation:isolate;opacity:.24;}</style></defs><g id="b"><path class="d" d="m24,31.98v2.87h-8v-2.87H1v10.12c0,1.59,1.29,2.88,2.88,2.88h32.24c1.59,0,2.88-1.29,2.88-2.88h0v-10.12h-15Z"/><path class="d" d="m45,7.6c.39,1.12.6,2.29.62,3.48.09,6.07-4.77,11.07-10.84,11.16-3.61.05-7.01-1.67-9.11-4.61,2,5.73,8.28,8.76,14.01,6.75,5.73-2,8.76-8.28,6.75-14.01-.35-.99-.83-1.92-1.44-2.77Z"/><path class="c" d="m48,13.79c-.12-6.63-5.6-11.9-12.22-11.77-4.19.08-8.04,2.34-10.15,5.96h-11.63c-.55,0-1,.45-1,1v5H4C1.79,13.98,0,15.77,0,17.98v24C0,44.19,1.79,45.98,4,45.98h32c2.21,0,4-1.79,4-4v-16.7c4.86-1.72,8.08-6.34,8-11.49Zm-33-3.81h9.69v.16c-.08.23-.16.47-.23.71s-.07.29-.1.44-.09.39-.13.59-.09.57-.12.86l-.11.24v1h-9v-4Zm21,34H4c-1.1,0-2-.9-2-2v-9h13v2c0,.55.45,1,1,1h8c.55,0,1-.45,1-1v-2h13v9c0,1.1-.9,2-2,2Zm-13-10h-6v-4h6v4Zm15-8.17v5.17h-13v-2c0-.55-.45-1-1-1h-8c-.55,0-1,.45-1,1v2H2v-13c0-1.1.9-2,2-2h20.18s0,.05,0,.08c.05.31.12.62.2.93v.12c.09.32.18.64.3.95h0c1.34,3.67,4.39,6.46,8.17,7.47h.12c.29.08.59.14.9.2h.28c.26,0,.51.08.77.1h.57l.51.15h.19c.34,0,.69,0,1-.07l.56-.08.25-.02Zm.72-2.22c-.4.11-.8.2-1.21.27h-.12c-.41.07-.82.1-1.23.11h-.42c-5.06-.14-9.23-4.04-9.69-9.08h0c0-.24,0-.49-.05-.73s0-.72,0-1.08v-.23c.03-.28.07-.56.13-.84,0-.06,0-.12,0-.18.06-.3.14-.6.24-.89,0-.04,0-.07,0-.11.1-.31.23-.63.36-.93,1.6-3.55,5.11-5.85,9-5.9h.27c5.52.02,9.98,4.52,9.95,10.05-.02,4.44-2.97,8.34-7.23,9.56v-.02Z"/><path class="c" d="m41,12.98h-1.15c-.1-.35-.25-.69-.44-1l.8-.8c.39-.39.39-1.02,0-1.41,0,0,0,0,0,0-.39-.39-1.02-.39-1.41,0l-.82.82c-.31-.18-.65-.32-1-.41v-1.19c0-.55-.45-1-1-1s-1,.45-1,1v1.15c-.35.1-.69.25-1,.44l-.8-.8c-.39-.39-1.02-.39-1.41,0,0,0,0,0,0,0-.39.39-.39,1.02,0,1.41l.82.82c-.18.31-.32.65-.41,1h-1.17c-.55,0-1,.45-1,1s.45,1,1,1h1.15c.1.35.25.69.44,1l-.8.8c-.39.39-.39,1.02,0,1.41,0,0,0,0,0,0,.19.19.44.29.71.29.26,0,.51-.11.7-.29l.82-.82c.31.18.65.32,1,.41v1.17c0,.55.45,1,1,1s1-.45,1-1v-1.15c.35-.1.69-.25,1-.44l.8.8c.19.19.44.29.71.29.27,0,.52-.1.71-.29.39-.39.39-1.02,0-1.41,0,0,0,0,0,0l-.78-.79c.18-.31.32-.65.41-1h1.13c.55,0,1-.45,1-1s-.45-1-1-1Zm-5,3c-.52,0-1.03-.19-1.41-.55h0c-.8-.76-.83-2.03-.07-2.83.39-.41.92-.63,1.48-.62h0c1.1,0,2,.9,2,2s-.9,2-2,2Z"/></g></svg>