<?xml version="1.0" encoding="UTF-8"?><svg id="a" xmlns="http://www.w3.org/2000/svg" viewBox="0 0 48 48"><defs><style>.c,.d{fill:#1957de;}.d{isolation:isolate;opacity:.24;}</style></defs><g id="b"><path class="d" d="m32.39,24.25c-1.2,1.2-3,1.2-4.2,0l-4.2-4.3-4.2-4.3-8.4,8.5c-.3.3-.5.6-.8,1-.2.3-.4.7-.5,1-.3.7-.4,1.5-.4,2.3v.6c0,.3.1.6.1.9,0,.1,0,.2.1.3,0,.1.1.3.1.4s0,.1.1.2c.1.2.2.3.2.5h0c.3.5.6,1,1,1.5l-7-7.1C-.31,21.05-.31,13.45,4.29,8.65c4.6-4.7,12.1-4.7,16.8,0l.7.7,2.1,2.1,8.4,8.5c1.2,1.2,1.2,3.1.1,4.3Z"/><path class="c" d="m44.19,7.85c-2.4-2.5-5.7-3.8-9.1-3.8s-6.7,1.4-9.1,3.8l-2,2.1-2.1-2.1c-2.4-2.5-5.7-3.8-9.1-3.8s-6.6,1.3-9,3.8c-5,5.1-5,13.4,0,18.5l7,7.1,8.4,8.5c.5.5,1.1.9,1.6,1.2h0c.1,0,.2.1.2.1h.1q.1,0,.1.1c.2.1.3.1.5.2q.1,0,.2.1t.2.1c.1,0,.3.1.4.1h.3c.1,0,.2,0,.3.1h.9c1.8,0,3.6-.7,4.9-2.1l8.4-8.5h0l7-7.1c4.9-5,4.9-13.3-.1-18.4ZM8.69,28.55l-3.5-3.6C.99,20.65.99,13.65,5.19,9.25c2-2.1,4.8-3.2,7.7-3.2s5.6,1.1,7.7,3.2l11.2,11.4c.8.8.8,2.1,0,2.9-.7.8-2,.8-2.8,0h0l-4.1-4.2h0l-4.4-4.4c-.2-.2-.4-.3-.7-.3s-.5.1-.7.3l-8.4,8.5c-.3.4-.6.7-.9,1.1-.3.4-.5.8-.6,1.2-.3.9-.5,1.8-.5,2.8,0-.1,0,0,0,0Zm6.4-1l-2.3,2.4c-.5.5-1.1.6-1.7.5h0v-.1l-.1-.4h0v-.2c-.1-.2-.1-.5-.1-.7v-.5c0-.7.1-1.3.4-1.9.1-.3.3-.6.4-.9.2-.3.4-.5.6-.8l7.7-7.8,2.8,2.8-7.7,7.6Zm.5,7.2h0c-.5,0-1-.2-1.4-.6-.8-.8-.8-2.1,0-2.9l1.1-1.1,8.6-8.8,2.8,2.8-9.8,10c-.3.4-.7.6-1.3.6Zm20.2-2.7h0l-8.4,8.5c-.2.2-.5.4-.7.6-.1,0-.1.1-.2.1-.2.1-.4.2-.6.3-.1,0-.1.1-.2.1-.5.2-1.1.3-1.7.3h-.7c-.2,0-.4-.1-.6-.1h-.1c-.2-.1-.4-.1-.6-.2h0c-.1-.6.1-1.3.5-1.8l10.5-10.7c.4-.4.4-1,0-1.4s-1-.4-1.4,0l-10.4,10.7c-.4.4-.9.6-1.4.6h0c-.5,0-1-.2-1.4-.6-.8-.8-.8-2.1,0-2.9l9.9-10c1.5.9,3.5.7,4.8-.6h0c1.5-1.6,1.5-4.1,0-5.7l-7.7-7.8,2.1-2.1c2-2.1,4.8-3.2,7.7-3.2s5.6,1.1,7.7,3.2c4.2,4.3,4.2,11.3,0,15.7l-7.1,7Z"/></g></svg>