<?xml version="1.0" encoding="UTF-8"?><svg id="a" xmlns="http://www.w3.org/2000/svg" viewBox="0 0 48 48"><defs><style>.d{fill:none;opacity:.24;}.e,.f{fill:#1957de;}.f{fill-rule:evenodd;}</style></defs><g id="b"><g id="c"><g class="d"><polygon class="f" points="33.5 13 24 20 14.5 13 24 6 33.5 13"/><polygon class="f" points="47 23.8 37.5 30.8 28 23.8 37.5 16.8 47 23.8"/><polygon class="f" points="20 23.8 10.5 30.8 1 23.8 10.5 16.8 20 23.8"/><polygon class="f" points="33.5 35 24 42 14.5 35 24 28 33.5 35"/></g><path class="e" d="m24,21c-.21,0-.42-.07-.59-.19l-9.5-7c-.45-.32-.55-.95-.22-1.4.06-.09.14-.16.22-.22l9.5-7c.35-.26.83-.26,1.18,0l9.5,7c.45.32.55.95.22,1.4-.06.09-.14.16-.22.22l-9.5,7c-.17.12-.38.19-.59.19Zm-7.81-8l7.81,5.76,7.81-5.76-7.81-5.76-7.81,5.76Z"/><path class="e" d="m37.5,31.8c-.21,0-.42-.07-.59-.2l-9.5-7c-.26-.19-.41-.48-.41-.8,0-.32.15-.62.41-.81l9.5-7c.35-.26.83-.26,1.18,0l9.5,7c.26.19.41.49.41.81,0,.32-.15.61-.41.8l-9.5,7c-.17.13-.38.2-.59.2Zm-7.81-8l7.81,5.76,7.81-5.76-7.81-5.8-7.81,5.8Z"/><path class="e" d="m10.5,31.8c-.21,0-.42-.07-.59-.2L.41,24.6C.15,24.41,0,24.12,0,23.8c0-.32.15-.61.41-.8l9.5-7c.35-.26.83-.26,1.18,0l9.5,7c.26.19.41.49.41.81,0,.32-.15.61-.41.8l-9.5,7c-.17.12-.38.19-.59.19Zm-7.81-8l7.81,5.76,7.81-5.76-7.81-5.8-7.81,5.8Z"/><path class="e" d="m24,43c-.21,0-.42-.07-.59-.19l-9.5-7c-.45-.32-.55-.95-.22-1.4.06-.09.14-.16.22-.22l9.5-7c.35-.26.83-.26,1.18,0l9.5,7c.45.32.55.95.22,1.4-.06.09-.14.16-.22.22l-9.5,7c-.17.12-.38.19-.59.19Zm-7.81-8l7.81,5.76,7.81-5.76-7.81-5.76-7.81,5.76Z"/></g></g></svg>