<?xml version="1.0" encoding="UTF-8"?><svg id="a" xmlns="http://www.w3.org/2000/svg" viewBox="0 0 48 48"><defs><style>.c,.d{fill:#1957de;}.d{isolation:isolate;opacity:.24;}</style></defs><g id="b"><rect class="d" x="12.99" y="21.8" width="17.01" height="12.28"/><path class="c" d="m47,1H1c-.55,0-1,.45-1,1v44c0,.55.45,1,1,1h46c.55,0,1-.45,1-1V2c0-.55-.45-1-1-1ZM14,33v-10h15v10h-15Zm15,2v10h-15v-10h15Zm0-24v10h-15v-10h15Zm17,0v10h-15v-10h15ZM12,21H2v-10h10v10Zm-10,2h10v10H2v-10Zm29,0h15v10h-15v-10ZM2,3h44v6H2V3Zm0,32h10v10H2v-10Zm44,10h-15v-10h15v10Z"/></g></svg>