<?xml version="1.0" encoding="UTF-8"?><svg id="a" xmlns="http://www.w3.org/2000/svg" viewBox="0 0 48 48"><defs><style>.c,.d{fill:#1957de;}.d{isolation:isolate;opacity:.24;}</style></defs><g id="b"><path class="d" d="m9,47h0V1h0c-.83,1.1-2.4,1.33-3.5.5-.19-.14-.36-.31-.5-.5v46c.83-1.1,2.4-1.33,3.5-.5.19.14.36.31.5.5Z"/><path class="c" d="m5,48c-.55,0-1-.45-1-1V1C4,.45,4.45,0,5,0s1,.45,1,1v46c0,.55-.45,1-1,1Z"/><path class="c" d="m9,48c-.55,0-1-.45-1-1V1C8,.45,8.45,0,9,0s1,.45,1,1v46c0,.55-.45,1-1,1Z"/><path class="c" d="m45,48H9c-.3,0-.58-.13-.77-.36-.51-.68-1.48-.82-2.16-.3-.11.09-.22.19-.3.3-.19.23-.47.36-.77.36H1c-.55,0-1-.45-1-1V1C0,.45.45,0,1,0h4c.3,0,.58.13.77.36.51.68,1.48.82,2.16.3.11-.09.22-.19.3-.3C8.42.13,8.7,0,9,0h36C46.66,0,48,1.34,48,3v42c0,1.66-1.34,3-3,3Zm-35.57-2h35.57c.55,0,1-.45,1-1V3c0-.55-.45-1-1-1H9.43c-1.36,1.3-3.5,1.3-4.86,0h-2.57v44h2.57c1.36-1.3,3.5-1.3,4.86,0Z"/><path class="d" d="m40,21.69c-.19-.06-.38-.15-.56-.25l-4.37-3.53c-.6-.48-1.46-.44-2,.11l-2.6,2.59c-.57.58-1.51.59-2.09.02,0,0-.01-.01-.02-.02l-4.09-4.08c-.58-.59-1.52-.59-2.11-.01,0,0,0,0-.01.01l-5.71,5.71-.44.37v3.39h24v-4.31Z"/><path class="c" d="m34,33h-18c-.55,0-1-.45-1-1s.45-1,1-1h18c.55,0,1,.45,1,1s-.45,1-1,1Z"/><path class="c" d="m30,39h-14c-.55,0-1-.45-1-1s.45-1,1-1h14c.55,0,1,.45,1,1s-.45,1-1,1Z"/><path class="c" d="m40,27h-24c-.55,0-1-.45-1-1V10c0-.55.45-1,1-1h24c.55,0,1,.45,1,1v16c0,.55-.45,1-1,1Zm-23-2h22v-14h-22v14Z"/></g></svg>