<?xml version="1.0" encoding="UTF-8"?><svg id="a" xmlns="http://www.w3.org/2000/svg" viewBox="0 0 48 48"><defs><style>.c,.d{fill:#1957de;}.d{isolation:isolate;opacity:.24;}</style></defs><g id="b"><polygon class="d" points="39 45 27 33 39 33 39 45"/><path class="c" d="m45.5,2H2.5C1.12,2,0,3.12,0,4.5v27c0,1.38,1.12,2.5,2.5,2.5h24.09l11.7,11.71c.19.19.44.29.71.29.13,0,.26-.02.38-.08.37-.15.62-.52.62-.92v-11h5.5c1.38,0,2.5-1.12,2.5-2.5V4.5c0-1.38-1.12-2.5-2.5-2.5Zm-7.5,40.59l-8.59-8.59h8.59v8.59Zm8-11.09c0,.28-.22.5-.5.5H2.5c-.28,0-.5-.22-.5-.5V4.5c0-.28.22-.5.5-.5h43c.28,0,.5.22.5.5v27Z"/><circle class="d" cx="12" cy="18.18" r="4"/><circle class="d" cx="24" cy="18.18" r="4"/><circle class="d" cx="36" cy="18.18" r="4"/></g></svg>