<?xml version="1.0" encoding="UTF-8"?><svg id="a" xmlns="http://www.w3.org/2000/svg" viewBox="0 0 48 48"><defs><style>.c,.d{fill:#1957de;}.d{isolation:isolate;opacity:.24;}</style></defs><g id="b"><path class="d" d="m15,47v-11c0-4.67,2.18-8.46,5.9-8.46h-.16c1.88.04,3.64.95,4.76,2.46,1.86,2.62,5.49,3.24,8.11,1.39.54-.38,1.01-.85,1.39-1.39,2.65-3.56,2.65-8.44,0-12-1.85-2.63-5.48-3.27-8.11-1.42-.55.39-1.04.87-1.42,1.42-1.06,1.51-2.76,2.43-4.6,2.48h-.16c-3.71.02-5.71-3.77-5.71-8.48V1H1v46h14Z"/><path class="c" d="m47,0H1C.45,0,0,.45,0,1v46c0,.55.45,1,1,1h46c.55,0,1-.45,1-1V1c0-.55-.45-1-1-1ZM2,46V2h12v10c0,5.66,2.71,9.46,6.74,9.46h.16c2.14-.06,4.13-1.12,5.38-2.86.94-1.28,2.41-2.06,4-2.1,1.59.04,3.07.82,4,2.1,2.36,3.18,2.36,7.54,0,10.72-.93,1.28-2.41,2.06-4,2.1-1.59-.05-3.06-.82-4-2.1-1.26-1.67-3.19-2.7-5.28-2.81h-.39c-3.91.17-6.62,4-6.62,9.45v10.04H2Zm44,0h-30v-10c0-3.56,1.51-7.39,4.82-7.46,1.55.08,2.98.85,3.9,2.1,2.18,3.06,6.44,3.78,9.5,1.59.62-.44,1.15-.98,1.59-1.59,2.9-3.92,2.9-9.28,0-13.2-2.18-3.06-6.44-3.78-9.5-1.59-.62.44-1.15.98-1.59,1.59-.87,1.26-2.29,2.04-3.82,2.1h-.16c-3.28-.04-4.74-3.79-4.74-7.54V2h30v44Z"/></g></svg>