<?xml version="1.0" encoding="UTF-8"?><svg id="a" xmlns="http://www.w3.org/2000/svg" viewBox="0 0 48 48"><defs><style>.c,.d{fill:#1957de;}.d{isolation:isolate;opacity:.24;}</style></defs><g id="b"><rect class="d" x="1" y="1" width="12" height="12"/><rect class="d" x="35" y="35" width="12" height="12"/><rect class="d" x="18" y="18" width="12" height="12"/><path class="c" d="m13,14H1c-.55,0-1-.45-1-1V1C0,.45.45,0,1,0h12c.55,0,1,.45,1,1v12c0,.55-.45,1-1,1Zm-11-2h10V2H2v10Z"/><path class="c" d="m47,48h-12c-.55,0-1-.45-1-1v-12c0-.55.45-1,1-1h12c.55,0,1,.45,1,1v12c0,.55-.45,1-1,1Zm-11-2h10v-10h-10v10Z"/><path class="c" d="m30,31h-12c-.55,0-1-.45-1-1v-12c0-.55.45-1,1-1h12c.55,0,1,.45,1,1v12c0,.55-.45,1-1,1Zm-11-2h10v-10h-10v10Z"/><path class="c" d="m38.5,25h-3.5c-.55,0-1-.45-1-1s.45-1,1-1h3.5c4.14,0,7.5-3.36,7.5-7.5s-3.36-7.5-7.5-7.5h-18.5c-.55,0-1-.45-1-1s.45-1,1-1h18.5c5.25,0,9.5,4.25,9.5,9.5s-4.25,9.5-9.5,9.5Z"/><path class="c" d="m28,42H9.5c-5.25,0-9.5-4.25-9.5-9.5s4.25-9.5,9.5-9.5h2.5c.55,0,1,.45,1,1s-.45,1-1,1h-2.5c-4.14,0-7.5,3.36-7.5,7.5s3.36,7.5,7.5,7.5h18.5c.55,0,1,.45,1,1s-.45,1-1,1Z"/><path class="c" d="m24.2,45.8c-.27,0-.52-.1-.71-.29-.39-.39-.39-1.02,0-1.41,0,0,0,0,0,0l3.1-3.09-3.1-3.09c-.39-.39-.39-1.03,0-1.42.39-.39,1.03-.39,1.41,0h0l3.8,3.79c.39.39.39,1.02,0,1.41,0,0,0,0,0,0l-3.8,3.8c-.19.19-.44.29-.71.29Z"/><path class="c" d="m38.8,28.8c-.27,0-.52-.1-.71-.29l-3.8-3.8c-.39-.39-.39-1.02,0-1.41,0,0,0,0,0,0l3.8-3.79c.39-.39,1.02-.39,1.41,0,.39.39.39,1.02,0,1.41l-3.1,3.09,3.1,3.09c.39.39.39,1.02,0,1.41,0,0,0,0,0,0-.19.19-.44.29-.71.29Z"/></g></svg>