<?xml version="1.0" encoding="UTF-8"?><svg id="a" xmlns="http://www.w3.org/2000/svg" viewBox="0 0 48 48"><defs><style>.d{fill:none;opacity:.24;}.e{fill:#1957de;}</style></defs><g id="b"><g id="c"><g class="d"><rect class="e" x="27" y="11.5" width="20" height="8"/></g><g class="d"><rect class="e" x="27" y="27.5" width="15" height="8"/></g><path class="e" d="m47,20.5h-20c-.55,0-1-.45-1-1v-8c0-.55.45-1,1-1h20c.55,0,1,.45,1,1v8c0,.55-.45,1-1,1Zm-19-2h18v-6h-18v6Z"/><path class="e" d="m42,36.5h-15c-.55,0-1-.45-1-1v-8c0-.55.45-1,1-1h15c.55,0,1,.45,1,1v8c0,.55-.45,1-1,1Zm-14-2h13v-6h-13v6Z"/><path class="e" d="m13,22.51c-3.87,0-7-3.13-7-7s3.13-7,7-7,7,3.13,7,7-3.13,7-7,7Zm0-12c-2.76,0-5,2.24-5,5s2.24,5,5,5,5-2.24,5-5-2.24-5-5-5Z"/><path class="e" d="m1,39.49c-.55,0-1-.45-1-1v-3c0-5.52,4.48-10,10-10h9c.55,0,1,.45,1,1s-.45,1-1,1h-9c-4.42,0-8,3.58-8,8v3c0,.55-.45,1-1,1Z"/></g></g></svg>