<?xml version="1.0" encoding="UTF-8"?><svg id="a" xmlns="http://www.w3.org/2000/svg" viewBox="0 0 48 48"><defs><style>.c,.d{fill:#1957de;}.d{isolation:isolate;opacity:.24;}</style></defs><g id="b"><rect class="d" x="36" y="42.03" width="4" height="5"/><rect class="d" x="7.52" y="14.03" width="4" height="5"/><path class="c" d="m44,28.03h-12c-.55,0-1,.45-1,1v8.26c-7.33,3.86-16.4,1.04-20.26-6.29-.82-1.55-1.35-3.23-1.59-4.97l4.85,3.37c.47.29,1.09.15,1.38-.32.27-.44.17-1-.24-1.32l-6.57-4.55h-.09l-.19-.08-.19-.1h-.19c-.07,0-.13,0-.2,0l-.17.07c-.05.03-.1.06-.15.1-.06.04-.11.09-.15.14l-.06.06-4.55,6.63c-.31.45-.2,1.08.25,1.39.17.12.37.18.57.18.33,0,.63-.16.82-.43l3-4.32c1.57,9.26,10.34,15.49,19.6,13.93,1.43-.24,2.81-.66,4.13-1.26v7.51c0,.55.45,1,1,1h12c.55,0,1-.45,1-1v-18c0-.55-.45-1-1-1Zm-7,18v-3h2v3h-2Zm6,0h-2v-4c0-.55-.45-1-1-1h-4c-.55,0-1,.45-1,1v4h-2v-16h10v16Z"/><path class="c" d="m35,39.03h1c.55,0,1-.45,1-1s-.45-1-1-1h-1c-.55,0-1,.45-1,1s.45,1,1,1Z"/><path class="c" d="m40,39.03h1c.55,0,1-.45,1-1s-.45-1-1-1h-1c-.55,0-1,.45-1,1s.45,1,1,1Z"/><path class="c" d="m35,36.03h1c.55,0,1-.45,1-1s-.45-1-1-1h-1c-.55,0-1,.45-1,1s.45,1,1,1Z"/><path class="c" d="m40,36.03h1c.55,0,1-.45,1-1s-.45-1-1-1h-1c-.55,0-1,.45-1,1s.45,1,1,1Z"/><path class="c" d="m35,33.03h1c.55,0,1-.45,1-1s-.45-1-1-1h-1c-.55,0-1,.45-1,1s.45,1,1,1Z"/><path class="c" d="m40,33.03h1c.55,0,1-.45,1-1s-.45-1-1-1h-1c-.55,0-1,.45-1,1s.45,1,1,1Z"/><path class="c" d="m45.12,16.63c-.45-.31-1.07-.2-1.39.25l-3,4.32c-1.57-9.26-10.35-15.48-19.61-13.91-1.6.27-3.15.77-4.6,1.48v-3.74c.02-.45-.25-.86-.68-1L3.84.03c-.31-.1-.64-.05-.9.14-.28.2-.44.52-.42.86v18c0,.55.45,1,1,1h12c.55,0,1-.45,1-1v-8c7.19-4.12,16.35-1.64,20.48,5.55.96,1.68,1.59,3.53,1.85,5.45l-4.85-3.37c-.45-.31-1.07-.2-1.39.25-.31.45-.2,1.07.25,1.39l6.58,4.55s.08.04.12.06l.1.05c.11.04.22.06.34.07h0c.15,0,.3-.04.43-.1l.09-.07c.09-.06.18-.13.25-.21v-.05l4.6-6.57c.32-.45.21-1.08-.24-1.39,0,0,0,0,0,0Zm-36.6,1.4v-3h2v3h-2Zm6,0h-2v-4c0-.55-.45-1-1-1h-4c-.55,0-1,.45-1,1v4h-2V2.42l10,3.33v12.28Z"/><path class="c" d="m6.52,11.03h1c.55,0,1-.45,1-1s-.45-1-1-1h-1c-.55,0-1,.45-1,1s.45,1,1,1Z"/><path class="c" d="m11.52,11.03h1c.55,0,1-.45,1-1s-.45-1-1-1h-1c-.55,0-1,.45-1,1s.45,1,1,1Z"/><path class="c" d="m6.52,8.03h1c.55,0,1-.45,1-1s-.45-1-1-1h-1c-.55,0-1,.45-1,1s.45,1,1,1Z"/><path class="c" d="m11.52,8.03h1c.55,0,1-.45,1-1s-.45-1-1-1h-1c-.55,0-1,.45-1,1s.45,1,1,1Z"/></g></svg>