<?xml version="1.0" encoding="UTF-8"?><svg id="a" xmlns="http://www.w3.org/2000/svg" viewBox="0 0 48 48"><defs><style>.c,.d{fill:#1957de;}.d{isolation:isolate;opacity:.24;}</style></defs><g id="b"><polygon class="d" points="40.01 22.96 40.01 32.96 24.01 42 8.01 32.96 8.01 22.96 24.01 32 40.01 22.96"/><path class="c" d="m47.47,18.19L24.47,5.19c-.29-.16-.63-.16-.92,0L.55,18.19c-.29.17-.47.48-.47.81,0,.33.18.64.47.81l6.53,3.69v9.5c0,.33.18.64.47.81l16,9c.29.16.63.16.92,0l10.11-5.72v4.91c0,.51.42.93.93.93s.93-.42.93-.93v-6l4-2.27c.29-.17.47-.48.47-.81v-9.42l6.53-3.69c.29-.17.47-.48.47-.81,0-.33-.16-.64-.44-.81Zm-23.46,22.74l-15.07-8.51v-7.87l11.16,6.31,3.45,2h.11c.22.1.48.1.7,0h.11l3.45-2,6.66-3.77v7.91l-10.57,5.93Zm15.07-8.51l-2.64,1.49v-7.91l2.64-1.49v7.91Zm-3.57-8l-11-6.24c-.45-.25-1.02-.1-1.27.35s-.1,1.02.35,1.27l10.03,5.7-9.61,5.43L2.9,19,24.01,7.07l21.11,11.93-9.61,5.42Z"/></g></svg>