<?xml version="1.0" encoding="UTF-8"?><svg id="a" xmlns="http://www.w3.org/2000/svg" viewBox="0 0 48 48"><defs><style>.c,.d{fill:#1957de;}.d{isolation:isolate;opacity:.24;}</style></defs><g id="b"><rect class="d" x="12.01" y="26" width="10" height="18"/><rect class="d" x="26" y="26" width="10" height="8"/><path class="d" d="m1,16c-.07,3.24,2.51,5.93,5.75,6,3.24-.07,5.82-2.76,5.75-6H1Z"/><path class="d" d="m12.5,16c-.07,3.24,2.51,5.93,5.75,6,3.24-.07,5.82-2.76,5.75-6h-11.5Z"/><path class="d" d="m24,16c-.19,3.18,2.24,5.9,5.41,6.09,3.18.19,5.9-2.24,6.09-5.41.01-.23.01-.45,0-.68h-11.5Z"/><path class="d" d="m35.5,16c-.19,3.18,2.24,5.9,5.41,6.09,3.18.19,5.9-2.24,6.09-5.41.01-.23.01-.45,0-.68h-11.5Z"/><path class="c" d="m36,25h-10c-.55,0-1,.45-1,1v8c0,.55.45,1,1,1h10c.55,0,1-.45,1-1v-8c0-.55-.45-1-1-1Zm-1,8h-8v-6h8v6Z"/><path class="c" d="m48,16h0c0-.12-.03-.23-.07-.34v-.08s-.03-.08-.06-.11l-8-12c-.19-.3-.52-.48-.87-.47H9c-.33,0-.65.17-.83.45L.17,15.45s-.05.07-.06.11v.08C.06,15.75.02,15.88,0,16H0c-.02,3.11,2.02,5.86,5,6.75v21.25c0,.55.45,1,1,1h36c.55,0,1-.45,1-1v-21.25c2.98-.89,5.02-3.64,5-6.75ZM9.54,5h28.92l6.67,10H2.87l6.67-10Zm13.36,12c-.39,2.27-2.34,3.95-4.65,4-2.31-.05-4.26-1.73-4.65-4h9.3Zm11.5,0c-.38,2.57-2.77,4.34-5.33,3.97-2.05-.3-3.66-1.91-3.97-3.97h9.3Zm-32.3,0h9.3c-.06.29-.14.58-.25.85,0,.09-.08.18-.12.27s-.18.37-.28.54l-.19.27c-.11.16-.22.3-.35.44-.07.09-.15.17-.24.25-.13.13-.27.25-.41.36l-.27.2-.49.28-.29.14c-.19.08-.39.14-.59.19-.08.03-.17.05-.25.07-.3.06-.6.1-.91.1h-.07c-2.27-.07-4.19-1.72-4.59-3.96Zm10.9,26v-16h8v16h-8Zm28,0h-18v-17c0-.55-.45-1-1-1h-10c-.55,0-1,.45-1,1v17h-4v-20h.53c.12,0,.24,0,.36-.06l.27-.05.41-.11.2-.05c.19-.06.38-.13.57-.22l.22-.1.35-.18.22-.13c.11-.06.21-.13.31-.2l.22-.15.28-.22.21-.18.26-.25.19-.19.24-.28.16-.19.24-.33c0-.06.09-.12.13-.19.05-.07.09-.14.13-.22,1.8,3.18,5.83,4.29,9.01,2.49,1.04-.59,1.9-1.45,2.49-2.49,1.8,3.18,5.83,4.29,9.01,2.49,1.04-.59,1.9-1.45,2.49-2.49.04.08.08.15.13.22,0,.07.09.13.13.19l.24.33.16.19.24.28.19.19.26.25.21.18.28.22.22.15c.1.07.2.14.31.2l.22.13.35.18.22.1c.19.09.38.16.57.22l.2.05.41.11.27.05c.12,0,.24.05.36.06h.53v20Zm.31-22h-.06c-.31,0-.61-.04-.91-.1-.08-.02-.17-.04-.25-.07-.2-.05-.4-.11-.59-.19l-.29-.14-.49-.28-.27-.2c-.14-.11-.28-.23-.41-.36-.09-.08-.17-.16-.24-.25-.13-.14-.24-.28-.35-.44l-.19-.27c-.1-.17-.19-.36-.28-.54s-.09-.18-.12-.27c-.11-.27-.19-.56-.25-.85h9.3c-.41,2.24-2.32,3.89-4.6,3.96Z"/></g></svg>