<?xml version="1.0" encoding="UTF-8"?><svg id="a" xmlns="http://www.w3.org/2000/svg" viewBox="0 0 48 48"><defs><style>.c,.d{fill:#1957de;}.d{isolation:isolate;opacity:.24;}</style></defs><g id="b"><rect class="d" x="1" y="41" width="46" height="6"/><polygon class="d" points="32 11 29 1 19 1 16 11 32 11"/><polygon class="d" points="10 31 38 31 35 21 13 21 10 31"/><path class="c" d="m47,40h-5.26l-2.74-9.29-3-10-3-10L30,.71c-.13-.44-.54-.73-1-.71h-10c-.46-.02-.87.27-1,.71l-3,10-3,10-3,10-2.74,9.29H1c-.55,0-1,.45-1,1v6c0,.55.45,1,1,1h46c.55,0,1-.45,1-1v-6c0-.55-.45-1-1-1ZM19.74,2h8.52l2.4,8h-13.32l2.4-8Zm-3,10h14.52l2.4,8H14.34l2.4-8Zm-3,10h20.52l2.4,8H11.34l2.4-8Zm-3,10h26.52l2.4,8H8.34l2.4-8Zm35.26,14H2v-4h44v4Z"/></g></svg>