<svg width="48" height="48" viewBox="0 0 48 48" fill="none" xmlns="http://www.w3.org/2000/svg">
<g clip-path="url(#clip0_1148_10069)">
<path opacity="0.24" d="M30 7C30 8.5913 29.3679 10.1174 28.2426 11.2426C27.1174 12.3679 25.5913 13 24 13C22.4087 13 20.8826 12.3679 19.7574 11.2426C18.6321 10.1174 18 8.5913 18 7H30Z" fill="#1957DE"/>
<path opacity="0.24" d="M42 7C42 8.5913 41.3679 10.1174 40.2426 11.2426C39.1174 12.3679 37.5913 13 36 13C34.4087 13 32.8826 12.3679 31.7574 11.2426C30.6321 10.1174 30 8.5913 30 7H42Z" fill="#1957DE"/>
<path opacity="0.24" d="M18 7C18 8.5913 17.3679 10.1174 16.2426 11.2426C15.1174 12.3679 13.5913 13 12 13C10.4087 13 8.88258 12.3679 7.75736 11.2426C6.63214 10.1174 6 8.5913 6 7H18Z" fill="#1957DE"/>
<path opacity="0.24" d="M30 17H18V31H30V17Z" fill="#1957DE"/>
<path d="M47 38.0001H39C38.7348 38.0001 38.4804 38.1055 38.2929 38.293C38.1054 38.4806 38 38.7349 38 39.0001V42.0001H29V39.0001C29 38.7349 28.8946 38.4806 28.7071 38.293C28.5196 38.1055 28.2652 38.0001 28 38.0001H25V32.0001H36C36.2652 32.0001 36.5196 31.8948 36.7071 31.7072C36.8946 31.5197 37 31.2654 37 31.0001V13.9201C38.6477 13.6825 40.1568 12.8654 41.2564 11.6155C42.3561 10.3656 42.9742 8.7647 43 7.10013V7.00013C43 7.00013 43 7.00013 43 6.94013C42.9896 6.84827 42.9695 6.75776 42.94 6.67013V6.58013C42.8919 6.47731 42.8278 6.3828 42.75 6.30013L36.75 0.300133C36.6527 0.200719 36.5358 0.122691 36.4066 0.0710351C36.2775 0.0193788 36.139 -0.00476949 36 0.000133184H12C11.8684 -0.000627709 11.7379 0.0245974 11.6161 0.074362C11.4943 0.124127 11.3834 0.197452 11.29 0.290133L5.29 6.29013C5.21222 6.3728 5.14808 6.46731 5.1 6.57013V6.66013C5.05615 6.74937 5.0226 6.84331 5 6.94013V7.00013V7.09013C5.02576 8.7547 5.64393 10.3556 6.74356 11.6055C7.84318 12.8554 9.35228 13.6725 11 13.9101V31.0001C11 31.2654 11.1054 31.5197 11.2929 31.7072C11.4804 31.8948 11.7348 32.0001 12 32.0001H23V38.0001H20C19.7348 38.0001 19.4804 38.1055 19.2929 38.293C19.1054 38.4806 19 38.7349 19 39.0001V42.0001H10V39.0001C10 38.7349 9.89464 38.4806 9.70711 38.293C9.51957 38.1055 9.26522 38.0001 9 38.0001H1C0.734784 38.0001 0.48043 38.1055 0.292893 38.293C0.105357 38.4806 0 38.7349 0 39.0001L0 47.0001C0 47.2654 0.105357 47.5197 0.292893 47.7072C0.48043 47.8948 0.734784 48.0001 1 48.0001H9C9.26522 48.0001 9.51957 47.8948 9.70711 47.7072C9.89464 47.5197 10 47.2654 10 47.0001V44.0001H19V47.0001C19 47.2654 19.1054 47.5197 19.2929 47.7072C19.4804 47.8948 19.7348 48.0001 20 48.0001H28C28.2652 48.0001 28.5196 47.8948 28.7071 47.7072C28.8946 47.5197 29 47.2654 29 47.0001V44.0001H38V47.0001C38 47.2654 38.1054 47.5197 38.2929 47.7072C38.4804 47.8948 38.7348 48.0001 39 48.0001H47C47.2652 48.0001 47.5196 47.8948 47.7071 47.7072C47.8946 47.5197 48 47.2654 48 47.0001V39.0001C48 38.7349 47.8946 38.4806 47.7071 38.293C47.5196 38.1055 47.2652 38.0001 47 38.0001ZM36 12.0001C34.8473 12.0004 33.73 11.6024 32.8371 10.8734C31.9442 10.1445 31.3305 9.1295 31.1 8.00013H40.9C40.6695 9.1295 40.0558 10.1445 39.1629 10.8734C38.27 11.6024 37.1527 12.0004 36 12.0001ZM12.41 2.00013H35.59L39.59 6.00013H8.41L12.41 2.00013ZM28.9 8.00013C28.6705 9.13042 28.0573 10.1466 27.1643 10.8765C26.2712 11.6064 25.1534 12.0051 24 12.0051C22.8466 12.0051 21.7288 11.6064 20.8357 10.8765C19.9427 10.1466 19.3295 9.13042 19.1 8.00013H28.9ZM7.1 8.00013H16.9C16.6705 9.13042 16.0573 10.1466 15.1643 10.8765C14.2712 11.6064 13.1534 12.0051 12 12.0051C10.8466 12.0051 9.72875 11.6064 8.83574 10.8765C7.94273 10.1466 7.32951 9.13042 7.1 8.00013ZM13 13.9201C14.0283 13.771 15.0105 13.3948 15.8754 12.8188C16.7402 12.2428 17.466 11.4815 18 10.5901C18.6222 11.6256 19.5018 12.4823 20.5532 13.0772C21.6046 13.672 22.792 13.9846 24 13.9846C25.208 13.9846 26.3954 13.672 27.4468 13.0772C28.4982 12.4823 29.3778 11.6256 30 10.5901C30.534 11.4815 31.2598 12.2428 32.1246 12.8188C32.9895 13.3948 33.9717 13.771 35 13.9201V30.0001H31V17.0001C31 16.7349 30.8946 16.4806 30.7071 16.293C30.5196 16.1055 30.2652 16.0001 30 16.0001H18C17.7348 16.0001 17.4804 16.1055 17.2929 16.293C17.1054 16.4806 17 16.7349 17 17.0001V30.0001H13V13.9201ZM19 18.0001H29V30.0001H19V18.0001ZM8 46.0001H2V40.0001H8V46.0001ZM27 46.0001H21V40.0001H27V46.0001ZM46 46.0001H40V40.0001H46V46.0001Z" fill="#1957DE"/>
</g>
<defs>
<clipPath id="clip0_1148_10069">
<rect width="48" height="48" fill="white"/>
</clipPath>
</defs>
</svg>
