<?xml version="1.0" encoding="UTF-8"?>
<svg xmlns="http://www.w3.org/2000/svg" id="a" viewBox="0 0 48 48"><defs><style>.b{fill:none;opacity:.24;}.c{fill:#1957de;}</style></defs><g class="b"><circle class="c" cx="6" cy="12.76" r="5"/></g><g class="b"><circle class="c" cx="30.5" cy="36.76" r="2.5"/></g><path class="c" d="m44.5,32.36v-9.61c0-.55-.45-1-1-1h-8.63c-.56-2.42-2.97-3.92-5.38-3.37-1.67.39-2.98,1.69-3.37,3.37h-9.12v-9c0-.55-.45-1-1-1h-4.09c-.55-3.27-3.65-5.47-6.92-4.92C1.73,7.39-.47,10.48.08,13.75s3.65,5.47,6.92,4.92c2.52-.43,4.49-2.4,4.92-4.92h3.09v23c0,.55.45,1,1,1h10.12c.55,2.42,2.96,3.94,5.39,3.39s3.94-2.96,3.39-5.39-2.96-3.94-5.39-3.39c-1.69.38-3,1.7-3.39,3.39h-9.12v-12h9.12c.55,2.42,2.95,3.94,5.37,3.39,1.69-.38,3.01-1.7,3.39-3.39h7.62v8.61c-2.42.55-3.94,2.96-3.39,5.39.55,2.42,2.96,3.94,5.39,3.39s3.94-2.96,3.39-5.39c-.38-1.69-1.7-3-3.39-3.39ZM6,16.76c-2.21,0-4-1.79-4-4s1.79-4,4-4,4,1.79,4,4-1.79,4-4,4Zm24.5,17.5c1.38,0,2.5,1.12,2.5,2.5s-1.12,2.5-2.5,2.5-2.5-1.12-2.5-2.5,1.12-2.5,2.5-2.5Zm0-9c-1.38,0-2.5-1.12-2.5-2.5s1.12-2.5,2.5-2.5,2.5,1.12,2.5,2.5-1.12,2.5-2.5,2.5Zm13,14c-1.38,0-2.5-1.12-2.5-2.5s1.12-2.5,2.5-2.5h0c1.38,0,2.5,1.12,2.5,2.5s-1.12,2.5-2.5,2.5Z"/></svg>
