<?xml version="1.0" encoding="UTF-8"?><svg id="a" xmlns="http://www.w3.org/2000/svg" xmlns:xlink="http://www.w3.org/1999/xlink" viewBox="0 0 48 48"><defs><style>.e,.f{fill:none;}.g,.h{fill:#1957de;}.f{clip-path:url(#c);}.h{isolation:isolate;opacity:.24;}</style><clipPath id="c"><circle class="e" cx="-48.04" cy="24" r="23"/></clipPath></defs><g id="b"><g class="f"><path class="h" d="m2.67,9.65C1.34,8.95-.02,8.25-1.39,7.53c-.11-.03-.22-.03-.33,0h-2.32c-.22.03-.45.03-.67,0-.29,0-.48-.24-.7-.38-1.15-.77-2.28-1.54-3.4-2.31-.17-.14-.43-.14-.6,0-.63.41-1.28.79-1.92,1.18-.11.07-.23.1-.36.08l-1.51-.14c-.16,0-.2-.07-.1-.21l.42-.58c.05-.06.14-.12.09-.22s-.15-.06-.23-.07l-.92-.11s-.1,0-.13-.06c-.07.03-.14.03-.21,0-.51-.02-1.02-.08-1.53-.16-.08,0-.15,0-.23,0h-.1c-.4.18-.82.33-1.24.45l-1,.37c-.07,0-.16.07-.21,0s.05-.12.09-.17c.74-.88,1.48-1.75,2.23-2.62.12-.14.15-.2,0-.31-.8-.47-1.59-.95-2.37-1.43-.12-.09-.29-.09-.41,0-.76.43-1.55.83-2.3,1.28-.56.33-1.09.71-1.63,1.08l-1.89,1.18c-.12.08-.21.2-.24.34-.25.89-.51,1.78-.76,2.66,0,.06,0,.13-.09.14s-.1,0-.13-.11c-.34-.72-.68-1.45-1-2.18,0-.06,0-.16-.13-.16s-.12.08-.16.15c-.48.76-1,1.52-1.43,2.28-.07.16-.21.29-.38.35l-3.18,1.15c-.25.09-.44,0-.65-.27h0c-.17,0-.26-.18-.4-.25s-.13-.14-.23-.09-.05.15-.05.23v1.05c.03.27-.09.54-.31.71-.49.44-1.06.78-1.68,1-.15.05-.22,0-.29-.11-.22-.52-.46-1-.68-1.55-.1-.22-.07-.25.17-.22l1.55.2c.12.04.25-.04.28-.16,0,0,0-.02,0-.02.18-.49.19-.5-.27-.78-.84-.51-1.69-1-2.52-1.52-.22-.12-.47-.15-.71-.09-.66.16-1.33.29-2,.38-.54,0-.69.36-.84.78-.4,1.08-.82,2.14-1.23,3.21-.07.19-.24.25-.41.31h0c-.22.18-.45.33-.7.46-.13.09-.27.17-.41.25v1.56c.18.2.34.41.48.64h.07c0-.07,0-.1.1-.09h0c0-.07,0-.1.09-.1h0c.17-.28.39-.52.66-.71.13-.11.16.09.2.19h0c.27.33.5.68.7,1.06,0,.06.07.16.14.17s.11-.09.14-.17c.02-.05.05-.1.09-.15.41-.61.59-1.34.48-2.07v-.74c-.02-.17.08-.32.24-.38h0c.08-.18.22-.32.4-.4h0c0-.14.14-.2.23-.29.22-.24.46-.47.69-.69.06-.06.1-.15.23-.12-.12.41-.33.78-.48,1.18s-.26.59-.39.89c-.05.09-.05.2,0,.29.25.53.49,1.07.74,1.6.11.14.11.33,0,.47-.3.38-.59.78-.89,1.16s-.46.24-.71.33c-.34.21-.76.29-1.15.2,0,0-.08,0-.11-.06h-.21c-.22.07-.33,0-.34-.25-.02-.11-.02-.21,0-.32-.02-.09-.02-.18,0-.27-.09-.07-.06-.19-.06-.28s-.06-.24-.25-.2-.33,0-.26.25c.03.06.03.13,0,.19v.18c.16.22.09.49.16.74,0,.06-.06.12-.12.16-.56.31-1.09.67-1.63,1h-.07c-.2.22-.45.38-.73.49-.21.21-.46.38-.73.49h0v.17h0c.09,0,.17.05.2.14l.06.06c.2.07.37.21.47.4.04.15.04.31,0,.46.02.17.02.33,0,.5,0,.07,0,.14-.08.14-.33.06-.68.04-1-.06h-.08c-.09.03-.18.03-.27,0-.3,0-.43.08-.51.35-.06.2-.13.4-.21.6-.07.12-.07.28,0,.4.18.09.32.24.4.42h0c.07,0,.1,0,.1.1h0c.06,0,.09,0,.08.1h0c.18.21.43.19.67.2h.16c.23-.09.52-.06.7-.3,0-.06.04-.11.09-.13.21-.36.44-.7.7-1.02.09-.11.17-.22.24-.34.16-.34.51-.54.88-.5,0-.09-.32,3.24-.36,2.44l-1.19.48c-.32.13-.68.13-1,0-.07.03-.14.03-.21,0-.08.04-.18.04-.26,0h-.11c-.01.11-.09.2-.19.23,0,.04-.04.08-.08.09,0,.1-.06.13-.13.16h0l-.05.06h0c-.18.3-.41.57-.68.79h0c0,.08-.06.15-.14.16,0,.05-.05.1-.1.11-.13.26-.32.49-.56.66-.17.3-.4.57-.67.78-.06.22-.25.34-.37.51-.08.08-.1.19-.07.3.18.81.35,1.62.52,2.43.04.19.15.35.31.45.55.37,1.12.73,1.66,1.15h.16c.32-.1.66-.13,1-.09h.18c2.46-4.71,7.93-6.99,13-5.42-.08-.1-.15-.2-.21-.3-.14,0-.18-.18-.27-.27-.05-.06-.05-.13,0-.19h0c.46-.47.28-.47.8-.12.36.24.72.49,1.07.75.19.14.41.23.65.26l1.86.23c.36.08.69.22,1,.42.15.09.31.17.47.24.43.16.73.54.78,1,.28.95.69,1.86,1.22,2.7.1.2.15.08.21,0,.36-.76.78-1.48,1.26-2.17,0-.07.08-.15.18-.18.02-.16.14-.28.3-.31.29-.29.6-.55.94-.78.27-.22.29-.21.46.08l1.3,2.21c.18.31.34.62.48.95.3.64.66,1.24,1.09,1.8l.09.08c.13-.35.28-.67,0-1-.56-.27-.88-.87-.8-1.48,0-.18.13-.09.2-.05.37.19.74.38,1.1.58.12.1.3.1.42,0,.25-.25.52-.45.83-.62.08-.11.05-.2,0-.31-.29-.37-.58-.75-.86-1.13-.15-.2-.14-.23.12-.31h0c.29-.2.61-.37.95-.49.53-.27,1.06-.51,1.6-.76.08-.04.15-.1.2-.18.35-.51.69-1,1-1.52.07-.11.07-.24,0-.35-.29-.61-.55-1.23-.84-1.84-.07-.16,0-.23.1-.3.28-.11.55-.24.81-.39.15-.08.21,0,.29.08l.93,1.22c.08.12.16.19.31.12s.3-.1.29-.32c0-.46,0-.91.06-1.36-.02-.18.09-.36.26-.42.39-.19.77-.4,1.16-.61.14-.07.24-.19.29-.33.37-.91.75-1.82,1.14-2.72.06-.15,0-.2-.1-.27l-1.88-1.09c-.25-.16-.25-.19,0-.37l1.2-1c.12-.1.26-.16.41-.18.54-.08,1.07-.17,1.6-.23.4-.1.77-.29,1.09-.55.76-.42,1.5-.88,2.25-1.32.06,0,.12-.1.19,0s0,.12,0,.18c-.3.92-.59,1.84-.88,2.76-.11.33-.22.67-.32,1-.05.11-.02.25.09.31l.53.41c.11.09.18.07.23-.06l1.15-2.82c.04-.16.17-.28.33-.32l2.06-.61c.14-.03.26-.14.3-.28.16-.52.33-1,.5-1.54,0-.08,0-.16.15-.18l2.08-.4s.09,0,.13,0h.11c.18-.15.42-.12.63-.17.41-.09.82-.15,1.23-.22.1,0,.19-.06.24-.14l-1.12-.62Z"/></g></g><g id="d"><rect class="h" x="5" y="19" width="6" height="22"/><rect class="h" x="21" y="19" width="6" height="22"/><rect class="h" x="37" y="19" width="6" height="22"/><path class="g" d="m45,19v-3h2c.55,0,1-.45,1-1v-6c0-.42-.27-.8-.67-.94L24.33.06c-.21-.08-.45-.08-.66,0L.67,8.06c-.4.14-.67.52-.67.94v6c0,.55.45,1,1,1h2v3c0,.55.45,1,1,1v20H1c-.55,0-1,.45-1,1v6c0,.55.45,1,1,1h46c.55,0,1-.45,1-1v-6c0-.55-.45-1-1-1h-3v-20c.55,0,1-.45,1-1Zm-2-1h-6v-2h6v2Zm-7,22h-8v-20c.55,0,1-.45,1-1v-3h6v3c0,.55.45,1,1,1v20Zm-24,0v-20c.55,0,1-.45,1-1v-3h6v3c0,.55.45,1,1,1v20h-8Zm15-22h-6v-2h6v2Zm-5,2h4v20h-4v-20ZM2,9.71L24,2.06l22,7.65v4.29H2v-4.29Zm9,6.29v2h-6v-2h6Zm-5,4h4v20h-4v-20Zm40,26H2v-4h44v4Zm-4-6h-4v-20h4v20Z"/></g></svg>