<?xml version="1.0" encoding="utf-8"?>
<!-- Generator: Adobe Illustrator 28.0.0, SVG Export Plug-In . SVG Version: 6.00 Build 0)  -->
<svg version="1.1" id="Layer_1" xmlns="http://www.w3.org/2000/svg" xmlns:xlink="http://www.w3.org/1999/xlink" x="0px" y="0px"
	 viewBox="0 0 48 48" style="enable-background:new 0 0 48 48;" xml:space="preserve">
<style type="text/css">
	.st0{clip-path:url(#SVGID_00000107568045253759319710000000893235105068140446_);}
	.st1{opacity:0.24;fill:#1957DE;enable-background:new    ;}
	.st2{fill:none;stroke:#1957DE;stroke-width:2;stroke-linecap:round;stroke-linejoin:round;}
	.st3{fill:none;stroke:#0244D1;stroke-width:2;stroke-linecap:round;stroke-linejoin:round;}
</style>
<g>
	<defs>
		<rect id="SVGID_1_" width="48" height="48"/>
	</defs>
	<clipPath id="SVGID_00000072971573046034415130000006204148512063226802_">
		<use xlink:href="#SVGID_1_"  style="overflow:visible;"/>
	</clipPath>
	<g style="clip-path:url(#SVGID_00000072971573046034415130000006204148512063226802_);">
		<path class="st1" d="M28,1h-8c-1.1,0-2,0.9-2,2v8c0,1.1,0.9,2,2,2h8c1.1,0,2-0.9,2-2V3C30,1.9,29.1,1,28,1z"/>
		<path class="st1" d="M11,18H3c-1.1,0-2,0.9-2,2v8c0,1.1,0.9,2,2,2h8c1.1,0,2-0.9,2-2v-8C13,18.9,12.1,18,11,18z"/>
		<path class="st1" d="M28,35h-8c-1.1,0-2,0.9-2,2v8c0,1.1,0.9,2,2,2h8c1.1,0,2-0.9,2-2v-8C30,35.9,29.1,35,28,35z"/>
		<path class="st2" d="M11,1H3C1.9,1,1,1.9,1,3v8c0,1.1,0.9,2,2,2h8c1.1,0,2-0.9,2-2V3C13,1.9,12.1,1,11,1z"/>
		<path class="st3" d="M28,1h-8c-1.1,0-2,0.9-2,2v8c0,1.1,0.9,2,2,2h8c1.1,0,2-0.9,2-2V3C30,1.9,29.1,1,28,1z"/>
		<path class="st2" d="M45,1h-8c-1.1,0-2,0.9-2,2v8c0,1.1,0.9,2,2,2h8c1.1,0,2-0.9,2-2V3C47,1.9,46.1,1,45,1z"/>
		<path class="st2" d="M11,18H3c-1.1,0-2,0.9-2,2v8c0,1.1,0.9,2,2,2h8c1.1,0,2-0.9,2-2v-8C13,18.9,12.1,18,11,18z"/>
		<path class="st2" d="M28,18h-8c-1.1,0-2,0.9-2,2v8c0,1.1,0.9,2,2,2h8c1.1,0,2-0.9,2-2v-8C30,18.9,29.1,18,28,18z"/>
		<path class="st1" d="M45,18h-8c-1.1,0-2,0.9-2,2v8c0,1.1,0.9,2,2,2h8c1.1,0,2-0.9,2-2v-8C47,18.9,46.1,18,45,18z"/>
		<path class="st2" d="M45,18h-8c-1.1,0-2,0.9-2,2v8c0,1.1,0.9,2,2,2h8c1.1,0,2-0.9,2-2v-8C47,18.9,46.1,18,45,18z"/>
		<path class="st2" d="M28,35h-8c-1.1,0-2,0.9-2,2v8c0,1.1,0.9,2,2,2h8c1.1,0,2-0.9,2-2v-8C30,35.9,29.1,35,28,35z"/>
		<path class="st2" d="M11,35H3c-1.1,0-2,0.9-2,2v8c0,1.1,0.9,2,2,2h8c1.1,0,2-0.9,2-2v-8C13,35.9,12.1,35,11,35z"/>
		<path class="st2" d="M41,36.3v9.5"/>
		<path class="st2" d="M45.7,41h-9.5"/>
	</g>
</g>
</svg>
