<?xml version="1.0" encoding="UTF-8"?>
<svg xmlns="http://www.w3.org/2000/svg" id="a" viewBox="0 0 48 48"><defs><style>.c,.d{fill:#1957de;}.d{isolation:isolate;opacity:.24;}</style></defs><g id="b"><polygon class="d" points="41 1 29 1 23 6 41 6 41 1"/><polygon class="d" points="41 17 29 17 23 12 41 12 41 17"/><path class="d" d="m41,33.91v-2.91h-12l-6,5h16c-.05-1.1.8-2.04,1.91-2.09.03,0,.06,0,.09,0Z"/><path class="d" d="m39.26,42h-16.26l6,5h12v-2.83c-1.05-.16-1.81-1.11-1.74-2.17Z"/><path class="c" d="m47,12h-5v-6h5c.55,0,1-.45,1-1s-.45-1-1-1h-5V1c0-.55-.45-1-1-1h-12c-.2,0-.39.06-.55.17l-6,4c-.28.18-.45.5-.45.83v3h-6C7.16,8,0,15.16,0,24s7.16,16,16,16h6v3c0,.33.17.65.45.83l6,4c.16.11.35.17.55.17h12c.55,0,1-.45,1-1v-3c0-.55-.45-1-1-1s-1-.45-1-1,.45-1,1-1,1-.45,1-1v-2c0-.55-.45-1-1-1s-1-.45-1-1,.45-1,1-1,1-.45,1-1v-3c0-.55-.45-1-1-1h-12c-.2,0-.39.06-.55.17l-6,4c-.28.18-.45.5-.45.83v3h-6c-7.73,0-14-6.27-14-14s6.27-14,14-14h6v3c0,.33.17.65.45.83l6,4c.16.11.35.17.55.17h12c.55,0,1-.45,1-1v-3h5c.55,0,1-.45,1-1s-.45-1-1-1Zm-23,23.54l5.3-3.54h10.7v1.17c-1.56.55-2.38,2.26-1.83,3.83.3.86.98,1.53,1.83,1.83v.34c-1.56.55-2.38,2.26-1.83,3.83.3.86.98,1.53,1.83,1.83v1.17h-10.7l-5.3-3.54v-6.92Zm16-19.54h-10.7l-5.3-3.54v-6.92l5.3-3.54h10.7v14Z"/></g></svg>
