<?xml version="1.0" encoding="utf-8"?>
<!-- Generator: Adobe Illustrator 26.1.0, SVG Export Plug-In . SVG Version: 6.00 Build 0)  -->
<svg version="1.1" id="Layer_1" xmlns="http://www.w3.org/2000/svg" xmlns:xlink="http://www.w3.org/1999/xlink" x="0px" y="0px"
	 viewBox="0 0 454 74" style="enable-background:new 0 0 454 74;" xml:space="preserve">
<style type="text/css">
	.st0{fill:#041C4E;}
</style>
<g>
	<path class="st0" d="M100.6,32.9c-0.9-1.1-2-2-3.2-2.7c-1.4-0.8-3.1-1.2-4.7-1.1c-1.6,0-3.2,0.3-4.6,1.1c-1.2,0.6-2,1.9-1.9,3.2
		c0,1,0.4,2.1,1.1,2.8c0.8,0.7,1.7,1.3,2.6,1.7c1,0.5,2.1,0.8,3.2,1l3,0.6c1.5,0.4,3,0.8,4.5,1.4c1.3,0.5,2.5,1.2,3.6,2.1
		c1,0.9,1.8,2,2.4,3.2c0.6,1.5,0.9,3,0.8,4.6c0.1,2-0.4,3.9-1.4,5.6c-0.9,1.5-2.1,2.8-3.6,3.8c-1.5,1-3.2,1.7-5,2.1
		c-1.9,0.4-3.8,0.6-5.7,0.7c-2.9,0.1-5.8-0.4-8.5-1.5c-2.6-1.2-4.9-3-6.5-5.4l5.6-4.6c1.2,1.2,2.6,2.3,4,3.2c1.6,1,3.5,1.5,5.4,1.4
		c1,0,1.9-0.1,2.8-0.3c0.9-0.2,1.7-0.5,2.5-0.9c0.7-0.4,1.3-0.9,1.8-1.6c0.5-0.6,0.7-1.4,0.7-2.2c0-1-0.3-2-1-2.7
		c-0.7-0.7-1.6-1.3-2.5-1.7c-1-0.4-2-0.8-3-1c-1.1-0.2-2-0.4-2.8-0.6c-1.6-0.4-3.1-0.8-4.5-1.3c-1.4-0.5-2.6-1.1-3.8-2
		c-1.1-0.8-2-1.9-2.7-3.1c-0.7-1.5-1.1-3.1-1-4.7c0-1.9,0.4-3.7,1.3-5.3c0.8-1.5,2-2.8,3.4-3.7c1.4-1,3.1-1.8,4.8-2.2
		c1.7-0.5,3.6-0.7,5.4-0.7c2.6,0,5.1,0.5,7.5,1.5c2.4,1,4.4,2.7,5.7,4.9L100.6,32.9z"/>
	<path class="st0" d="M110.8,23.2h6.9v6.1h0.2c0.3-0.8,0.7-1.5,1.3-2c0.8-0.9,1.7-1.7,2.7-2.3c1.2-0.8,2.4-1.4,3.8-1.9
		c1.5-0.5,3.2-0.8,4.8-0.8c2.6-0.1,5.1,0.5,7.3,1.8c2.1,1.3,3.8,3.2,4.8,5.4c1.2-2.3,3-4.2,5.3-5.4c2.1-1.2,4.6-1.8,7-1.8
		c2.5-0.1,5.1,0.4,7.4,1.5c1.8,0.9,3.4,2.2,4.5,3.9c1.1,1.7,1.9,3.5,2.2,5.5c0.4,2.1,0.6,4.2,0.6,6.3v22.6h-7.4V40.4
		c0-1.4-0.1-2.8-0.3-4.3c-0.2-1.3-0.6-2.5-1.2-3.6c-0.6-1-1.5-1.9-2.5-2.5c-1.3-0.7-2.8-1-4.4-0.9c-3.6,0-6.1,1.1-7.6,3.3
		c-1.6,2.5-2.4,5.5-2.3,8.4v21.2h-7.4V41.7c0-1.7-0.1-3.4-0.3-5.1c-0.1-1.4-0.5-2.7-1.1-4c-0.5-1.1-1.4-2-2.5-2.6
		c-1.3-0.7-2.8-1-4.3-0.9c-1.3,0-2.6,0.3-3.8,0.8c-1.2,0.5-2.3,1.3-3.2,2.3c-1,1.2-1.8,2.5-2.2,4c-0.6,1.8-0.9,3.8-0.8,5.7v20.2
		h-7.4V23.2z"/>
	<path class="st0" d="M175,27.9c2.1-1.9,4.5-3.4,7.2-4.3c2.6-0.9,5.4-1.4,8.2-1.4c2.5-0.1,5,0.3,7.4,1.1c1.8,0.6,3.5,1.6,5,2.9
		c1.3,1.1,2.3,2.6,2.9,4.1c0.6,1.6,0.9,3.2,0.9,4.9V55c0,1.4,0,2.6,0.1,3.8s0.1,2.2,0.2,3.3h-6.6c-0.2-2-0.2-4-0.2-5.9H200
		c-1.4,2.3-3.4,4.1-5.8,5.3c-2.5,1.1-5.1,1.6-7.8,1.6c-1.7,0-3.5-0.2-5.2-0.7c-1.6-0.4-3-1.2-4.3-2.2c-1.2-1-2.2-2.2-2.9-3.7
		c-1.6-3.7-1.4-7.9,0.6-11.3c1.2-1.7,2.7-3.2,4.6-4.1c2.1-1.1,4.4-1.9,6.8-2.3c2.7-0.5,5.5-0.7,8.3-0.7h5.5v-1.6c0-1-0.2-2-0.6-3
		c-0.4-1-1-1.9-1.7-2.7c-0.8-0.8-1.8-1.5-2.9-1.9c-1.3-0.5-2.7-0.7-4.1-0.7c-1.3,0-2.5,0.1-3.7,0.4c-1,0.2-2,0.6-2.9,1
		c-0.8,0.4-1.6,0.9-2.4,1.4l-2.1,1.5L175,27.9z M195.8,43.4c-1.8,0-3.6,0.1-5.4,0.3c-1.7,0.2-3.4,0.5-5,1.1
		c-1.4,0.5-2.7,1.3-3.7,2.3c-1,1-1.5,2.4-1.4,3.8c-0.2,1.9,0.7,3.7,2.3,4.8c1.8,1.1,4,1.6,6.1,1.5c1.8,0.1,3.5-0.3,5.2-1
		c1.3-0.6,2.5-1.5,3.4-2.7c0.9-1.1,1.5-2.3,1.9-3.7c0.4-1.3,0.6-2.6,0.6-4v-2.5H195.8z"/>
	<path class="st0" d="M294.4,32.9c-0.9-1.1-2-2-3.2-2.7c-1.4-0.8-3.1-1.2-4.7-1.1c-1.6,0-3.2,0.3-4.5,1.1c-1.2,0.6-2,1.9-1.9,3.2
		c0,1,0.4,2.1,1.1,2.8c0.8,0.7,1.6,1.3,2.6,1.7c1,0.5,2.1,0.8,3.2,1l3,0.6c1.5,0.4,3,0.8,4.5,1.4c1.3,0.5,2.5,1.2,3.6,2.1
		c1,0.9,1.8,2,2.4,3.2c0.6,1.5,0.9,3,0.9,4.6c0.1,2-0.4,3.9-1.4,5.6c-0.9,1.5-2.1,2.8-3.6,3.8c-1.5,1-3.3,1.7-5,2.1
		c-1.9,0.4-3.8,0.6-5.7,0.7c-2.9,0.1-5.8-0.4-8.5-1.5c-2.6-1.2-4.9-3-6.5-5.4l5.6-4.6c1.2,1.2,2.6,2.3,4,3.2c1.6,1,3.5,1.5,5.4,1.4
		c1,0,1.9-0.1,2.8-0.3c0.9-0.2,1.7-0.5,2.5-0.9c0.7-0.4,1.3-0.9,1.8-1.6c0.5-0.6,0.7-1.4,0.7-2.2c0-1-0.3-2-1-2.7
		c-0.7-0.7-1.6-1.3-2.5-1.7c-1-0.4-2-0.8-3-1c-1.1-0.2-2-0.4-2.8-0.6c-1.6-0.4-3.1-0.8-4.5-1.3c-1.4-0.5-2.6-1.1-3.8-2
		c-1.1-0.8-2-1.9-2.6-3.1c-0.7-1.5-1.1-3.1-1-4.7c0-1.9,0.4-3.7,1.3-5.3c0.8-1.5,2-2.8,3.4-3.7c1.4-1,3.1-1.8,4.8-2.2
		c1.7-0.5,3.6-0.7,5.4-0.7c2.6,0,5.1,0.5,7.5,1.5c2.4,1,4.4,2.7,5.7,4.9L294.4,32.9z"/>
	<path class="st0" d="M304.9,0.1h7.4v29.1h0.2c1-2.2,2.7-3.9,4.8-5c2.5-1.3,5.2-2,8-1.9c1.8,0,3.6,0.3,5.4,0.9
		c1.7,0.6,3.2,1.5,4.5,2.7c1.4,1.3,2.4,2.9,3.1,4.6c0.8,2.1,1.2,4.4,1.1,6.7v25H332v-23c0-1.6-0.2-3.1-0.7-4.6
		c-0.4-1.2-1.1-2.2-2-3.1c-0.8-0.8-1.8-1.4-2.8-1.7c-1.1-0.4-2.2-0.5-3.3-0.5c-1.5,0-2.9,0.3-4.3,0.8c-1.3,0.5-2.5,1.3-3.4,2.3
		c-1,1.2-1.8,2.5-2.3,4c-0.6,1.9-0.9,3.8-0.8,5.8v20h-7.4L304.9,0.1z"/>
	<path class="st0" d="M350.9,45.3c0,1.6,0.4,3.2,1.1,4.6c0.7,1.4,1.7,2.6,2.9,3.6c1.2,1,2.7,1.8,4.2,2.3c1.6,0.5,3.2,0.8,4.9,0.8
		c2.1,0.1,4.2-0.5,6-1.6c1.8-1.1,3.3-2.5,4.7-4.2l5.6,4.3c-4.1,5.3-9.8,8-17.2,8c-2.8,0-5.7-0.6-8.3-1.7c-2.4-1-4.5-2.4-6.3-4.3
		c-1.8-1.9-3.1-4.1-4-6.5c-0.9-2.6-1.4-5.3-1.4-8.1c0-2.8,0.5-5.5,1.5-8.1c1-2.4,2.4-4.6,4.2-6.5c1.8-1.9,4-3.3,6.4-4.3
		c2.5-1.1,5.3-1.6,8-1.6c3-0.1,6,0.5,8.7,1.8c2.3,1.1,4.3,2.7,5.9,4.7c1.5,1.9,2.7,4.2,3.3,6.6c0.7,2.4,1,4.9,1,7.4v2.6L350.9,45.3z
		 M374.2,39.4c0-1.5-0.3-3.1-0.8-4.5c-0.4-1.3-1.1-2.5-2.1-3.6c-1-1-2.2-1.9-3.5-2.4c-1.6-0.6-3.2-0.9-4.9-0.9
		c-3.3,0-6.5,1.3-8.8,3.7c-1,1.1-1.9,2.3-2.4,3.6c-0.6,1.3-0.9,2.6-0.9,4L374.2,39.4z"/>
	<path class="st0" d="M394.1,45.3c0,1.6,0.4,3.2,1.1,4.6c0.7,1.4,1.7,2.6,2.9,3.6c1.2,1,2.7,1.8,4.2,2.3c1.6,0.5,3.2,0.8,4.9,0.8
		c2.1,0.1,4.2-0.5,6-1.6c1.8-1.1,3.3-2.5,4.7-4.2l5.6,4.3c-4.1,5.3-9.8,8-17.2,8c-2.8,0-5.7-0.5-8.3-1.6c-2.4-1-4.5-2.4-6.3-4.3
		c-1.8-1.9-3.1-4.1-4-6.5c-0.9-2.6-1.4-5.3-1.4-8.1c0-2.8,0.5-5.6,1.6-8.2c1-2.4,2.4-4.6,4.2-6.5c1.8-1.9,4-3.3,6.4-4.3
		c2.5-1.1,5.3-1.6,8-1.6c3-0.1,6,0.5,8.7,1.8c2.3,1.1,4.3,2.7,5.9,4.7c1.5,1.9,2.7,4.2,3.3,6.6c0.7,2.4,1,4.9,1,7.4v2.6H394.1z
		 M417.4,39.4c0-1.5-0.3-3.1-0.8-4.5c-0.4-1.3-1.2-2.5-2.1-3.6c-1-1-2.2-1.9-3.5-2.4c-1.6-0.6-3.2-0.9-4.9-0.9
		c-3.3,0-6.5,1.3-8.8,3.7c-1,1.1-1.8,2.3-2.4,3.6c-0.6,1.3-0.8,2.6-0.9,4L417.4,39.4z"/>
	<path class="st0" d="M235.4,23.3c-2.2-0.3-4.5-0.4-6.7-0.4c-1.9,0-3.7,0.5-5.3,1.5c-1,0.6-1.9,1.3-2.8,2.2c-0.8,0.8-1.5,1.8-2,2.8
		h-0.2v-6h-7.4v38.9h7.4c0,0-0.2-16,0-19.9s0.9-8,2.9-9.9c1.4-1.6,3.5-2.6,5.6-2.7c1.8-0.2,3.7-0.2,5.5,0L235.4,23.3z"/>
	<path class="st0" d="M262.6,55.9c-0.9,0.2-1.8,0.2-2.7,0.2c-1.1,0.1-2.3-0.2-3.2-0.8c-0.7-0.5-1.3-1.2-1.6-2
		c-0.4-0.9-0.6-1.9-0.6-2.9c0-1.1-0.1-2.2-0.1-3.2V29.6h10.6v-6.4h-10.6V12.3h-7.4v10.9h-7.4l-2.8,6.4h10.2v20.3
		c0,1.6,0.1,3.2,0.2,4.7c0.1,1.5,0.6,2.9,1.3,4.2c0.8,1.3,2,2.4,3.4,3.1c2.1,0.9,4.3,1.3,6.6,1.2c1.1,0,2.2-0.1,3.2-0.3
		c1.2-0.1,2.3-0.5,3.4-1V55C264.4,55.4,263.5,55.7,262.6,55.9z"/>
	<path class="st0" d="M451.1,55.9c-0.9,0.2-1.8,0.2-2.7,0.2c-1.1,0.1-2.3-0.2-3.2-0.8c-0.7-0.5-1.3-1.2-1.6-2
		c-0.4-0.9-0.6-1.9-0.6-2.9c0-1.1-0.1-2.2-0.1-3.2V29.6h10.6v-6.4h-10.6V12.3h-7.4v10.9h-7.4l-2.8,6.4h10.2v20.3
		c0,1.6,0.1,3.2,0.2,4.7c0.1,1.5,0.6,2.9,1.3,4.2c0.8,1.3,2,2.4,3.4,3.1c2.1,0.9,4.3,1.3,6.6,1.2c1.1,0,2.2-0.1,3.2-0.3
		c1.2-0.1,2.3-0.5,3.4-1V55C452.9,55.4,452,55.7,451.1,55.9z"/>
	<path class="st0" d="M9.7,37.5c0,0,2.6-3.7,6.1-3.8c5.4-0.1,9.8,9.6,10.5,11c6-13.4,15.9-24.7,23.9-32.3H0.9c0,4.6,0,51.5,0,55.3
		c0,2.1-0.2,4.1-0.6,6.2c6.4-1,12.8-2.6,18.9-4.8C34.2,63.8,40.1,58,40.2,58l0.4-0.4l0.2,0.5c1,2.2,2.3,4.4,3.7,6.4
		c2.1,2.4,3.3,2.7,3.9,2.5c0.8-0.3,1.4-1.6,1.6-3.9s0.4-7.3,0.4-13.4V16.8C35.9,34.6,25.1,61.4,25.1,61.4S18.1,37.4,9.7,37.5z"/>
</g>
</svg>
